SplineFontDB: 3.0
FontName: Inconsesi-Italic
FullName: Inconsesi Italic
FamilyName: Inconsesi
Weight: Book
Copyright: Copyright (c) 2012, Alexei Vanyashin (a@cyreal.org). Based on Inconsolata by Raph Levien (firstname.lastname@gmail.com), Copyright (c) 2006-2012.
Version: 1.002
ItalicAngle: -7
UnderlinePosition: -50
UnderlineWidth: 50
Ascent: 1520
Descent: 528
sfntRevision: 0x00010083
LayerCount: 2
Layer: 0 1 "Back"  1
Layer: 1 1 "Fore"  0
XUID: [1021 810 1493434818 16728063]
FSType: 0
OS2Version: 3
OS2_WeightWidthSlopeOnly: 0
OS2_UseTypoMetrics: 1
CreationTime: 1346730960
ModificationTime: 1354987189
PfmFamily: 81
TTFWeight: 400
TTFWidth: 5
LineGap: 350
VLineGap: 0
Panose: 0 0 5 0 0 0 0 0 0 0
OS2TypoAscent: 1520
OS2TypoAOffset: 0
OS2TypoDescent: -528
OS2TypoDOffset: 0
OS2TypoLinegap: 350
OS2WinAscent: 1520
OS2WinAOffset: 0
OS2WinDescent: 528
OS2WinDOffset: 0
HheadAscent: 1520
HheadAOffset: 0
HheadDescent: -528
HheadDOffset: 0
OS2SubXSize: 1331
OS2SubYSize: 1228
OS2SubXOff: -19
OS2SubYOff: 153
OS2SupXSize: 1331
OS2SupYSize: 1228
OS2SupXOff: 88
OS2SupYOff: 716
OS2StrikeYSize: 50
OS2StrikeYPos: 561
OS2Vendor: 'UKWN'
OS2CodePages: 20000093.00000000
OS2UnicodeRanges: a00000ef.500001fb.00000000.00000000
DEI: 91125
TtTable: prep
PUSHW_1
 511
SCANCTRL
PUSHB_1
 4
SCANTYPE
EndTTInstrs
ShortTable: maxp 16
  1
  0
  438
  87
  7
  0
  0
  2
  0
  1
  1
  0
  64
  0
  0
  0
EndShort
LangName: 1033 "" "" "" "Cyreal.org: Inconsesi Italic: 2012" "" "Version 1.002" "" "Please refer to the Copyright section for the font trademark attribution notices." "Cyreal.org" "Alexei Vanyashin" "" "http://www.cyreal.org" "http://www.cyreal.org" "This Font Software is licensed under the SIL Open Font License,+AAoA-Version 1.1. This license is available with a FAQ at:+AAoA-http://scripts.sil.org/OFL" "http://scripts.sil.org/OFL" 
GaspTable: 1 65535 15 1
Encoding: UnicodeBmp
UnicodeInterp: none
NameList: AGL For New Fonts
DisplaySize: -24
AntiAlias: 1
FitToEm: 1
BeginChars: 65557 438

StartChar: exclam
Encoding: 33 33 4
Width: 1126
GlyphClass: 2
Flags: W
LayerCount: 2
Fore
SplineSet
457 397 m 1,0,-1
 525 1368 l 1,1,-1
 734 1368 l 1,2,-1
 560 397 l 1,3,-1
 457 397 l 1,0,-1
382.5 212.5 m 128,-1,5
 420 252 420 252 476 252 c 128,-1,6
 532 252 532 252 574.5 212 c 128,-1,7
 617 172 617 172 617 115.5 c 128,-1,8
 617 59 617 59 579 19.5 c 128,-1,9
 541 -20 541 -20 485 -20 c 128,-1,10
 429 -20 429 -20 387.5 20 c 128,-1,11
 346 60 346 60 345.5 116.5 c 128,-1,4
 345 173 345 173 382.5 212.5 c 128,-1,5
EndSplineSet
EndChar

StartChar: quotedbl
Encoding: 34 34 5
Width: 1126
GlyphClass: 2
Flags: W
LayerCount: 2
Fore
SplineSet
745 1117 m 1,0,-1
 740 1521 l 1,1,-1
 916 1521 l 1,2,-1
 853 1117 l 1,3,-1
 745 1117 l 1,0,-1
431 1117 m 1,4,-1
 431 1521 l 1,5,-1
 607 1521 l 1,6,-1
 544 1117 l 1,7,-1
 431 1117 l 1,4,-1
EndSplineSet
EndChar

StartChar: numbersign
Encoding: 35 35 6
Width: 1126
GlyphClass: 2
Flags: W
LayerCount: 2
Fore
SplineSet
181 27 m 1,0,-1
 265 375 l 1,1,-1
 60 375 l 1,2,-1
 93 494 l 1,3,-1
 294 494 l 1,4,-1
 372 817 l 1,5,-1
 155 817 l 1,6,-1
 188 936 l 1,7,-1
 401 936 l 1,8,-1
 483 1276 l 1,9,-1
 607 1276 l 1,10,-1
 524 936 l 1,11,-1
 749 936 l 1,12,-1
 831 1276 l 1,13,-1
 956 1276 l 1,14,-1
 873 936 l 1,15,-1
 1062 936 l 1,16,-1
 1030 817 l 1,17,-1
 844 817 l 1,18,-1
 764 494 l 1,19,-1
 967 494 l 1,20,-1
 935 375 l 1,21,-1
 735 375 l 1,22,-1
 650 27 l 1,23,-1
 529 27 l 1,24,-1
 613 375 l 1,25,-1
 387 375 l 1,26,-1
 302 27 l 1,27,-1
 181 27 l 1,0,-1
416 494 m 1,28,-1
 642 494 l 1,29,-1
 720 817 l 1,30,-1
 495 817 l 1,31,-1
 416 494 l 1,28,-1
EndSplineSet
EndChar

StartChar: dollar
Encoding: 36 36 7
Width: 1126
GlyphClass: 2
Flags: W
LayerCount: 2
Fore
SplineSet
903 1010 m 1,0,-1
 904 1022 l 1,1,2
 904 1049 904 1049 864.5 1087 c 128,-1,3
 825 1125 825 1125 756 1141 c 1,4,-1
 708 724 l 1,5,6
 798 679 798 679 855 634 c 0,7,8
 977 537 977 537 977 396 c 128,-1,9
 977 255 977 255 883 160 c 128,-1,10
 789 65 789 65 630 40 c 1,11,-1
 615 -94 l 1,12,-1
 495 -94 l 1,13,-1
 509 32 l 1,14,15
 281 37 281 37 163 186 c 1,16,-1
 265 334 l 1,17,18
 284 313 284 313 284 301 c 2,19,-1
 283 285 l 1,20,21
 283 240 283 240 348.5 202.5 c 128,-1,22
 414 165 414 165 524 159 c 1,23,-1
 577 622 l 1,24,25
 504 661 504 661 460 689.5 c 128,-1,26
 416 718 416 718 376 755 c 0,27,28
 299 825 299 825 299 929 c 0,29,30
 299 1067 299 1067 399.5 1157.5 c 128,-1,31
 500 1248 500 1248 650 1264 c 1,32,-1
 662 1362 l 1,33,-1
 796 1362 l 1,34,35
 794 1353 794 1353 785.5 1333 c 128,-1,36
 777 1313 777 1313 774 1292 c 2,37,-1
 770 1262 l 1,38,39
 929 1238 929 1238 1025 1110 c 1,40,-1
 916 984 l 1,41,42
 903 997 903 997 903 1010 c 1,0,-1
453 957 m 0,43,44
 453 905 453 905 484 869.5 c 128,-1,45
 515 834 515 834 595 787 c 1,46,-1
 636 1145 l 1,47,48
 551 1133 551 1133 502 1083.5 c 128,-1,49
 453 1034 453 1034 453 957 c 0,43,44
822 380 m 0,50,51
 822 433 822 433 791 473 c 128,-1,52
 760 513 760 513 689 558 c 1,53,-1
 645 169 l 1,54,55
 729 191 729 191 775.5 247 c 128,-1,56
 822 303 822 303 822 380 c 0,50,51
EndSplineSet
EndChar

StartChar: percent
Encoding: 37 37 8
Width: 1126
GlyphClass: 2
Flags: W
LayerCount: 2
Fore
SplineSet
72 0 m 1,0,-1
 948 1376 l 1,1,-1
 1075 1376 l 1,2,-1
 193 0 l 1,3,-1
 72 0 l 1,0,-1
345 843 m 0,4,5
 257 843 257 843 201.5 904 c 128,-1,6
 146 965 146 965 146 1068 c 0,7,8
 146 1203 146 1203 220 1288 c 128,-1,9
 294 1373 294 1373 410 1373 c 0,10,11
 499 1373 499 1373 553 1316 c 128,-1,12
 607 1259 607 1259 607 1152 c 0,13,14
 607 1009 607 1009 540 926 c 128,-1,15
 473 843 473 843 345 843 c 0,4,5
358 945 m 0,16,17
 486 945 486 945 486 1152 c 0,18,19
 486 1269 486 1269 395 1269 c 0,20,21
 332 1269 332 1269 299.5 1214 c 128,-1,22
 267 1159 267 1159 267 1084 c 0,23,24
 267 945 267 945 358 945 c 0,16,17
790 510 m 0,25,26
 879 510 879 510 933 453 c 128,-1,27
 987 396 987 396 987 289 c 0,28,29
 987 146 987 146 920 63 c 128,-1,30
 853 -20 853 -20 725 -20 c 0,31,32
 637 -20 637 -20 581.5 41 c 128,-1,33
 526 102 526 102 526 205 c 0,34,35
 526 230 526 230 528 244 c 0,36,37
 541 364 541 364 611.5 437 c 128,-1,38
 682 510 682 510 790 510 c 0,25,26
647 209 m 0,39,40
 647 147 647 147 670.5 114.5 c 128,-1,41
 694 82 694 82 738 82 c 0,42,43
 866 82 866 82 866 289 c 0,44,45
 866 406 866 406 775 406 c 0,46,47
 720 406 720 406 688 363 c 0,48,49
 647 308 647 308 647 209 c 0,39,40
EndSplineSet
EndChar

StartChar: ampersand
Encoding: 38 38 9
Width: 1126
GlyphClass: 2
Flags: W
LayerCount: 2
Fore
SplineSet
282 1002 m 0,0,1
 282 1144 282 1144 363 1216 c 128,-1,2
 444 1288 444 1288 576.5 1288 c 128,-1,3
 709 1288 709 1288 777 1227 c 128,-1,4
 845 1166 845 1166 845 1062 c 0,5,6
 845 841 845 841 576 673 c 1,7,8
 631 577 631 577 773 350 c 1,9,10
 860 466 860 466 873 498 c 0,11,12
 878 510 878 510 886 537 c 1,13,-1
 886 561 l 1,14,15
 887 572 887 572 897 582 c 1,16,-1
 1019 489 l 1,17,18
 897 317 897 317 838 248 c 1,19,-1
 955 66 l 1,20,-1
 822 -25 l 1,21,-1
 729 128 l 1,22,23
 667 53 667 53 577.5 16.5 c 128,-1,24
 488 -20 488 -20 389 -20 c 0,25,26
 245 -20 245 -20 163 52.5 c 128,-1,27
 81 125 81 125 81 249 c 0,28,29
 81 397 81 397 182 528 c 0,30,31
 268 639 268 639 392 702 c 1,32,33
 331 815 331 815 306.5 883 c 128,-1,34
 282 951 282 951 282 1002 c 0,0,1
707 1043 m 0,35,36
 707 1167 707 1167 574 1167 c 0,37,38
 496 1167 496 1167 460.5 1126 c 128,-1,39
 425 1085 425 1085 425 1023 c 0,40,41
 425 945 425 945 523 766 c 1,42,43
 569 799 569 799 596.5 822 c 128,-1,44
 624 845 624 845 652 878 c 0,45,46
 707 943 707 943 707 1043 c 0,35,36
239 280 m 0,47,48
 239 203 239 203 285 157 c 128,-1,49
 331 111 331 111 411 111 c 0,50,51
 565 111 565 111 669 228 c 1,52,53
 514 483 514 483 447 603 c 1,54,55
 365 554 365 554 308 476 c 0,56,57
 239 380 239 380 239 280 c 0,47,48
EndSplineSet
EndChar

StartChar: quotesingle
Encoding: 39 39 10
Width: 1126
GlyphClass: 2
Flags: W
LayerCount: 2
Fore
SplineSet
556 1117 m 1,0,-1
 556 1521 l 1,1,-1
 732 1521 l 1,2,-1
 669 1117 l 1,3,-1
 556 1117 l 1,0,-1
EndSplineSet
EndChar

StartChar: parenleft
Encoding: 40 40 11
Width: 1126
GlyphClass: 2
Flags: W
LayerCount: 2
Fore
SplineSet
940 1230 m 1,0,-1
 907 1234 l 1,1,2
 891 1234 891 1234 876 1226 c 0,3,4
 667 1106 667 1106 543.5 886.5 c 128,-1,5
 420 667 420 667 420 393 c 0,6,7
 420 180 420 180 513 17.5 c 128,-1,8
 606 -145 606 -145 778 -246 c 1,9,-1
 700 -354 l 1,10,11
 494 -249 494 -249 386 -62 c 128,-1,12
 278 125 278 125 278 376 c 0,13,14
 278 750 278 750 480 1028 c 0,15,16
 642 1251 642 1251 905 1368 c 1,17,-1
 957 1235 l 1,18,19
 950 1230 950 1230 940 1230 c 1,0,-1
EndSplineSet
EndChar

StartChar: parenright
Encoding: 41 41 12
Width: 1126
GlyphClass: 2
Flags: W
LayerCount: 2
Fore
SplineSet
215 -220 m 2,0,-1
 248 -224 l 1,1,2
 266 -224 266 -224 279 -216 c 0,3,4
 488 -96 488 -96 611.5 123.5 c 128,-1,5
 735 343 735 343 735 617 c 0,6,7
 735 830 735 830 642 992.5 c 128,-1,8
 549 1155 549 1155 377 1256 c 1,9,-1
 455 1364 l 1,10,11
 661 1259 661 1259 769 1072 c 128,-1,12
 877 885 877 885 877 634 c 0,13,14
 877 293 877 293 709.5 32.5 c 128,-1,15
 542 -228 542 -228 250 -358 c 1,16,-1
 198 -225 l 1,17,18
 208 -220 208 -220 215 -220 c 2,0,-1
EndSplineSet
EndChar

StartChar: asterisk
Encoding: 42 42 13
Width: 1126
GlyphClass: 2
Flags: W
LayerCount: 2
Fore
SplineSet
283 530 m 1,0,-1
 183 620 l 1,1,-1
 487 927 l 1,2,-1
 146 1036 l 1,3,-1
 216 1169 l 1,4,-1
 528 1013 l 1,5,-1
 540 1376 l 1,6,-1
 720 1376 l 1,7,8
 716 1354 716 1354 703.5 1340.5 c 128,-1,9
 691 1327 691 1327 687 1311 c 2,10,-1
 618 1013 l 1,11,-1
 963 1161 l 1,12,-1
 1000 1036 l 1,13,-1
 637 929 l 1,14,-1
 857 620 l 1,15,-1
 733 532 l 1,16,-1
 554 872 l 1,17,-1
 283 530 l 1,0,-1
EndSplineSet
EndChar

StartChar: plus
Encoding: 43 43 14
Width: 1126
GlyphClass: 2
Flags: W
LayerCount: 2
Fore
SplineSet
455 246 m 1,0,-1
 498 596 l 1,1,-1
 135 596 l 1,2,-1
 151 721 l 1,3,-1
 514 721 l 1,4,-1
 557 1071 l 1,5,-1
 686 1071 l 1,6,-1
 643 721 l 1,7,-1
 993 721 l 1,8,-1
 977 596 l 1,9,-1
 627 596 l 1,10,-1
 584 246 l 1,11,-1
 455 246 l 1,0,-1
EndSplineSet
EndChar

StartChar: comma
Encoding: 44 44 15
Width: 1126
GlyphClass: 2
Flags: W
LayerCount: 2
Fore
SplineSet
523 -64 m 128,-1,1
 523 -45 523 -45 502.5 -21 c 128,-1,2
 482 3 482 3 461.5 32.5 c 128,-1,3
 441 62 441 62 441 95 c 0,4,5
 441 153 441 153 476 182 c 128,-1,6
 511 211 511 211 571 211 c 128,-1,7
 631 211 631 211 665.5 175 c 128,-1,8
 700 139 700 139 700 81 c 0,9,10
 700 -130 700 -130 379 -378 c 1,11,-1
 316 -317 l 1,12,13
 476 -163 476 -163 508 -108 c 0,14,0
 523 -83 523 -83 523 -64 c 128,-1,1
EndSplineSet
EndChar

StartChar: hyphen
Encoding: 45 45 16
Width: 1126
GlyphClass: 2
Flags: W
LayerCount: 2
Fore
SplineSet
188 575 m 1,0,-1
 204 713 l 1,1,-1
 942 713 l 1,2,-1
 926 575 l 1,3,-1
 188 575 l 1,0,-1
EndSplineSet
EndChar

StartChar: period
Encoding: 46 46 17
Width: 1126
GlyphClass: 2
Flags: W
LayerCount: 2
Fore
SplineSet
437.5 212.5 m 128,-1,1
 475 252 475 252 531 252 c 128,-1,2
 587 252 587 252 629.5 212 c 128,-1,3
 672 172 672 172 672 115.5 c 128,-1,4
 672 59 672 59 634 19.5 c 128,-1,5
 596 -20 596 -20 540 -20 c 128,-1,6
 484 -20 484 -20 442.5 20 c 128,-1,7
 401 60 401 60 400.5 116.5 c 128,-1,0
 400 173 400 173 437.5 212.5 c 128,-1,1
EndSplineSet
EndChar

StartChar: slash
Encoding: 47 47 18
Width: 1126
GlyphClass: 2
Flags: W
LayerCount: 2
Fore
SplineSet
100 -27 m 1,0,-1
 912 1362 l 1,1,-1
 1027 1298 l 1,2,-1
 214 -86 l 1,3,-1
 100 -27 l 1,0,-1
EndSplineSet
EndChar

StartChar: zero
Encoding: 48 48 19
Width: 1126
GlyphClass: 2
Flags: W
LayerCount: 2
Fore
SplineSet
483 -23 m 0,0,1
 314 -23 314 -23 218.5 106.5 c 128,-1,2
 123 236 123 236 123 471 c 0,3,4
 123 655 123 655 164.5 809.5 c 128,-1,5
 206 964 206 964 277 1067 c 128,-1,6
 348 1170 348 1170 442 1227 c 128,-1,7
 536 1284 536 1284 640 1284 c 0,8,9
 807 1284 807 1284 904.5 1150.5 c 128,-1,10
 1002 1017 1002 1017 1002 779 c 0,11,12
 1002 707 1002 707 991 616 c 0,13,14
 952 314 952 314 814 145.5 c 128,-1,15
 676 -23 676 -23 483 -23 c 0,0,1
624 1159 m 0,16,17
 556 1159 556 1159 491 1115 c 128,-1,18
 426 1071 426 1071 374 990.5 c 128,-1,19
 322 910 322 910 290.5 783.5 c 128,-1,20
 259 657 259 657 259 516.5 c 128,-1,21
 259 376 259 376 292 286 c 1,22,-1
 767 1101 l 1,23,24
 709 1159 709 1159 624 1159 c 0,16,17
510 109 m 0,25,26
 635 109 635 109 728 236.5 c 128,-1,27
 821 364 821 364 856 600 c 0,28,29
 870 698 870 698 870 774 c 0,30,31
 870 902 870 902 836 992 c 1,32,-1
 356 177 l 1,33,34
 419 109 419 109 510 109 c 0,25,26
EndSplineSet
EndChar

StartChar: one
Encoding: 49 49 20
Width: 1126
GlyphClass: 2
Flags: W
LayerCount: 2
Fore
SplineSet
444 0 m 1,0,-1
 579 1100 l 1,1,-1
 311 1024 l 1,2,-1
 288 1104 l 1,3,-1
 643 1278 l 1,4,-1
 744 1278 l 1,5,-1
 588 0 l 1,6,-1
 444 0 l 1,0,-1
EndSplineSet
EndChar

StartChar: two
Encoding: 50 50 21
Width: 1126
GlyphClass: 2
Flags: W
LayerCount: 2
Fore
SplineSet
812 978 m 0,0,1
 812 1165 812 1165 624 1165 c 0,2,3
 486 1165 486 1165 390 1078 c 0,4,5
 356 1047 356 1047 349.5 1018 c 128,-1,6
 343 989 343 989 331 978 c 1,7,-1
 221 1069 l 1,8,9
 386 1290 386 1290 645 1290 c 0,10,11
 803 1290 803 1290 883 1210 c 128,-1,12
 963 1130 963 1130 963 996 c 0,13,14
 963 955 963 955 953 910 c 128,-1,15
 943 865 943 865 926.5 834 c 128,-1,16
 910 803 910 803 903 787 c 128,-1,17
 896 771 896 771 868.5 735.5 c 128,-1,18
 841 700 841 700 832.5 688 c 128,-1,19
 824 676 824 676 787.5 635 c 128,-1,20
 751 594 751 594 742.5 584 c 128,-1,21
 734 574 734 574 690 526 c 2,22,-1
 323 123 l 1,23,-1
 806 123 l 2,24,25
 826 123 826 123 846.5 130 c 128,-1,26
 867 137 867 137 876 137 c 1,27,-1
 860 0 l 1,28,-1
 121 0 l 1,29,-1
 132 90 l 1,30,-1
 601 612 l 2,31,32
 719 743 719 743 765.5 817 c 128,-1,33
 812 891 812 891 812 978 c 0,0,1
EndSplineSet
EndChar

StartChar: three
Encoding: 51 51 22
Width: 1126
GlyphClass: 2
Flags: W
LayerCount: 2
Fore
SplineSet
464 109 m 0,0,1
 587 109 587 109 664 186 c 128,-1,2
 741 263 741 263 741 383 c 0,3,4
 741 480 741 480 668.5 541 c 128,-1,5
 596 602 596 602 435 602 c 2,6,-1
 408 602 l 1,7,-1
 423 725 l 1,8,9
 605 725 605 725 698 795 c 128,-1,10
 791 865 791 865 791 999 c 0,11,12
 791 1078 791 1078 742.5 1121.5 c 128,-1,13
 694 1165 694 1165 613 1165 c 0,14,15
 483 1165 483 1165 397 1087 c 0,16,17
 363 1056 363 1056 356.5 1027 c 128,-1,18
 350 998 350 998 338 987 c 1,19,-1
 228 1078 l 1,20,21
 386 1289 386 1289 646 1289 c 0,22,23
 780 1289 780 1289 860 1218.5 c 128,-1,24
 940 1148 940 1148 940 1018 c 128,-1,25
 940 888 940 888 875.5 804 c 128,-1,26
 811 720 811 720 690 669 c 1,27,28
 891 594 891 594 891 409 c 0,29,30
 891 275 891 275 830 175.5 c 128,-1,31
 769 76 769 76 667.5 26.5 c 128,-1,32
 566 -23 566 -23 446 -23 c 0,33,34
 206 -23 206 -23 101 123 c 1,35,-1
 225 252 l 1,36,37
 238 239 238 239 240 219 c 0,38,39
 244 173 244 173 314 141 c 128,-1,40
 384 109 384 109 464 109 c 0,0,1
EndSplineSet
EndChar

StartChar: four
Encoding: 52 52 23
Width: 1126
GlyphClass: 2
Flags: W
LayerCount: 2
Fore
SplineSet
69 296 m 1,0,-1
 82 399 l 1,1,-1
 754 1276 l 1,2,-1
 931 1276 l 1,3,-1
 826 419 l 1,4,-1
 990 419 l 1,5,-1
 975 296 l 1,6,-1
 809 296 l 1,7,-1
 773 0 l 1,8,-1
 629 0 l 1,9,-1
 665 296 l 1,10,-1
 69 296 l 1,0,-1
251 419 m 1,11,-1
 682 419 l 1,12,-1
 767 1112 l 1,13,-1
 251 419 l 1,11,-1
EndSplineSet
EndChar

StartChar: five
Encoding: 53 53 24
Width: 1126
GlyphClass: 2
Flags: W
LayerCount: 2
Fore
SplineSet
261 250 m 2,0,-1
 259 230 l 2,1,2
 259 224 259 224 261 221 c 0,3,4
 324 102 324 102 493 102 c 0,5,6
 618 102 618 102 699.5 191 c 128,-1,7
 781 280 781 280 781 464 c 0,8,9
 781 587 781 587 721.5 654 c 128,-1,10
 662 721 662 721 553 721 c 0,11,12
 487 721 487 721 420.5 689 c 128,-1,13
 354 657 354 657 299 600 c 1,14,-1
 221 637 l 1,15,-1
 336 1276 l 1,16,-1
 983 1276 l 1,17,-1
 968 1153 l 1,18,-1
 442 1153 l 1,19,-1
 373 778 l 1,20,21
 469 839 469 839 590 839 c 0,22,23
 751 839 751 839 838.5 743 c 128,-1,24
 926 647 926 647 926 476 c 0,25,26
 926 240 926 240 798 108.5 c 128,-1,27
 670 -23 670 -23 469 -23 c 0,28,29
 223 -23 223 -23 114 174 c 1,30,-1
 253 268 l 1,31,32
 261 260 261 260 261 250 c 2,0,-1
EndSplineSet
EndChar

StartChar: six
Encoding: 54 54 25
Width: 1126
GlyphClass: 2
Flags: W
LayerCount: 2
Fore
SplineSet
888 1073 m 1,0,-1
 889 1085 l 1,1,2
 889 1116 889 1116 834.5 1139.5 c 128,-1,3
 780 1163 780 1163 717 1163 c 0,4,5
 551 1163 551 1163 439.5 1033.5 c 128,-1,6
 328 904 328 904 297 670 c 1,7,8
 361 742 361 742 450 782.5 c 128,-1,9
 539 823 539 823 641 823 c 0,10,11
 791 823 791 823 874.5 734 c 128,-1,12
 958 645 958 645 958 484 c 0,13,14
 958 252 958 252 836 116 c 128,-1,15
 714 -20 714 -20 524 -20 c 128,-1,16
 334 -20 334 -20 235.5 99.5 c 128,-1,17
 137 219 137 219 137 447 c 0,18,19
 137 520 137 520 147 597 c 0,20,21
 187 919 187 919 342.5 1104.5 c 128,-1,22
 498 1290 498 1290 736 1290 c 0,23,24
 834 1290 834 1290 900.5 1258 c 128,-1,25
 967 1226 967 1226 1022 1166 c 1,26,-1
 899 1048 l 1,27,28
 888 1058 888 1058 888 1073 c 1,0,-1
342.5 183.5 m 128,-1,30
 410 106 410 106 536.5 106 c 128,-1,31
 663 106 663 106 740 203 c 128,-1,32
 817 300 817 300 817 467 c 0,33,34
 817 578 817 578 762 638 c 128,-1,35
 707 698 707 698 604 698 c 0,36,37
 428 698 428 698 288 526 c 1,38,-1
 280 477 l 2,39,40
 278 465 278 465 275 400 c 1,41,29
 275 261 275 261 342.5 183.5 c 128,-1,30
EndSplineSet
EndChar

StartChar: seven
Encoding: 55 55 26
Width: 1126
GlyphClass: 2
Flags: W
LayerCount: 2
Fore
SplineSet
269 0 m 1,0,1
 516 539 516 539 861 1153 c 1,2,-1
 245 1153 l 1,3,-1
 260 1276 l 1,4,-1
 1065 1276 l 1,5,-1
 1056 1196 l 1,6,7
 669 532 669 532 442 0 c 1,8,-1
 269 0 l 1,0,1
EndSplineSet
EndChar

StartChar: eight
Encoding: 56 56 27
Width: 1126
GlyphClass: 2
Flags: W
LayerCount: 2
Fore
SplineSet
430 677 m 1,0,1
 268 781 268 781 268 941 c 128,-1,2
 268 1101 268 1101 374 1194.5 c 128,-1,3
 480 1288 480 1288 651 1288 c 0,4,5
 795 1288 795 1288 873.5 1222.5 c 128,-1,6
 952 1157 952 1157 952 1042 c 128,-1,7
 952 927 952 927 887.5 833 c 128,-1,8
 823 739 823 739 709 681 c 1,9,10
 816 618 816 618 857.5 555.5 c 128,-1,11
 899 493 899 493 899 410 c 128,-1,12
 899 327 899 327 873 253 c 128,-1,13
 847 179 847 179 797 117 c 128,-1,14
 747 55 747 55 664 17.5 c 128,-1,15
 581 -20 581 -20 477 -20 c 0,16,17
 310 -20 310 -20 218 55.5 c 128,-1,18
 126 131 126 131 126 268 c 0,19,20
 126 413 126 413 222 526 c 0,21,22
 301 620 301 620 430 677 c 1,0,1
753.5 860.5 m 128,-1,24
 805 935 805 935 805 1012.5 c 128,-1,25
 805 1090 805 1090 760 1130 c 128,-1,26
 715 1170 715 1170 622 1170 c 128,-1,27
 529 1170 529 1170 469 1114 c 128,-1,28
 409 1058 409 1058 409 961 c 0,29,30
 409 898 409 898 454 848.5 c 128,-1,31
 499 799 499 799 610 736 c 1,32,23
 702 786 702 786 753.5 860.5 c 128,-1,24
276 300 m 0,33,34
 276 209 276 209 334 159 c 128,-1,35
 392 109 392 109 497 109 c 0,36,37
 546 109 546 109 588.5 126.5 c 128,-1,38
 631 144 631 144 660.5 172 c 128,-1,39
 690 200 690 200 711 235 c 0,40,41
 751 302 751 302 751 376.5 c 128,-1,42
 751 451 751 451 702.5 506.5 c 128,-1,43
 654 562 654 562 532 622 c 1,44,45
 423 578 423 578 356 504 c 0,46,47
 276 415 276 415 276 300 c 0,33,34
EndSplineSet
EndChar

StartChar: nine
Encoding: 57 57 28
Width: 1126
GlyphClass: 2
Flags: W
LayerCount: 2
Fore
SplineSet
238 197 m 1,0,-1
 237 185 l 1,1,2
 237 154 237 154 291.5 130.5 c 128,-1,3
 346 107 346 107 409 107 c 0,4,5
 575 107 575 107 686.5 236.5 c 128,-1,6
 798 366 798 366 829 600 c 1,7,8
 765 528 765 528 676 487.5 c 128,-1,9
 587 447 587 447 485 447 c 0,10,11
 335 447 335 447 251.5 536 c 128,-1,12
 168 625 168 625 168 785 c 0,13,14
 168 1017 168 1017 290 1153.5 c 128,-1,15
 412 1290 412 1290 602 1290 c 128,-1,16
 792 1290 792 1290 890.5 1170.5 c 128,-1,17
 989 1051 989 1051 989 823 c 0,18,19
 989 761 989 761 979 673 c 0,20,21
 939 351 939 351 783.5 165.5 c 128,-1,22
 628 -20 628 -20 390 -20 c 0,23,24
 292 -20 292 -20 225.5 12 c 128,-1,25
 159 44 159 44 104 104 c 1,26,-1
 227 222 l 1,27,28
 238 211 238 211 238 197 c 1,0,-1
522 572 m 0,29,30
 698 572 698 572 838 744 c 1,31,-1
 846 793 l 2,32,33
 848 810 848 810 851 870 c 1,34,35
 851 1009 851 1009 783.5 1086.5 c 128,-1,36
 716 1164 716 1164 589.5 1164 c 128,-1,37
 463 1164 463 1164 386 1067 c 128,-1,38
 309 970 309 970 309 803 c 0,39,40
 309 691 309 691 364 631.5 c 128,-1,41
 419 572 419 572 522 572 c 0,29,30
EndSplineSet
EndChar

StartChar: colon
Encoding: 58 58 29
Width: 1126
GlyphClass: 2
Flags: W
LayerCount: 2
Fore
SplineSet
610 610 m 128,-1,1
 554 610 554 610 512 650 c 128,-1,2
 470 690 470 690 470 746.5 c 128,-1,3
 470 803 470 803 507.5 842.5 c 128,-1,4
 545 882 545 882 601 882 c 128,-1,5
 657 882 657 882 699.5 842 c 128,-1,6
 742 802 742 802 742 745.5 c 128,-1,7
 742 689 742 689 704 649.5 c 128,-1,0
 666 610 666 610 610 610 c 128,-1,1
421.5 212.5 m 128,-1,9
 459 252 459 252 515 252 c 128,-1,10
 571 252 571 252 613.5 212 c 128,-1,11
 656 172 656 172 656 115.5 c 128,-1,12
 656 59 656 59 618 19.5 c 128,-1,13
 580 -20 580 -20 524 -20 c 128,-1,14
 468 -20 468 -20 426.5 20 c 128,-1,15
 385 60 385 60 384.5 116.5 c 128,-1,8
 384 173 384 173 421.5 212.5 c 128,-1,9
EndSplineSet
EndChar

StartChar: semicolon
Encoding: 59 59 30
Width: 1126
GlyphClass: 2
Flags: W
LayerCount: 2
Fore
SplineSet
621 610 m 128,-1,1
 565 610 565 610 523 650 c 128,-1,2
 481 690 481 690 481 746.5 c 128,-1,3
 481 803 481 803 518.5 842.5 c 128,-1,4
 556 882 556 882 612 882 c 128,-1,5
 668 882 668 882 710.5 842 c 128,-1,6
 753 802 753 802 753 745.5 c 128,-1,7
 753 689 753 689 715 649.5 c 128,-1,0
 677 610 677 610 621 610 c 128,-1,1
508 -64 m 128,-1,9
 508 -45 508 -45 487.5 -21 c 128,-1,10
 467 3 467 3 446.5 32.5 c 128,-1,11
 426 62 426 62 426 95 c 0,12,13
 426 153 426 153 461 182 c 128,-1,14
 496 211 496 211 556 211 c 128,-1,15
 616 211 616 211 650.5 175 c 128,-1,16
 685 139 685 139 685 81 c 0,17,18
 685 -130 685 -130 364 -378 c 1,19,-1
 301 -317 l 1,20,21
 461 -163 461 -163 493 -108 c 0,22,8
 508 -83 508 -83 508 -64 c 128,-1,9
EndSplineSet
EndChar

StartChar: less
Encoding: 60 60 31
Width: 1126
GlyphClass: 2
Flags: W
LayerCount: 2
Fore
SplineSet
121 606 m 1,0,-1
 133 705 l 1,1,-1
 1055 1161 l 1,2,-1
 1038 1016 l 1,3,-1
 282 653 l 1,4,-1
 950 252 l 1,5,-1
 931 96 l 1,6,-1
 121 606 l 1,0,-1
EndSplineSet
EndChar

StartChar: equal
Encoding: 61 61 32
Width: 1126
GlyphClass: 2
Flags: W
LayerCount: 2
Fore
SplineSet
157 771 m 1,0,-1
 172 896 l 1,1,-1
 1014 896 l 1,2,-1
 999 771 l 1,3,-1
 157 771 l 1,0,-1
114 421 m 1,4,-1
 129 546 l 1,5,-1
 971 546 l 1,6,-1
 956 421 l 1,7,-1
 114 421 l 1,4,-1
EndSplineSet
EndChar

StartChar: greater
Encoding: 62 62 33
Width: 1126
GlyphClass: 2
Flags: W
LayerCount: 2
Fore
SplineSet
68 96 m 1,0,-1
 87 252 l 1,1,-1
 851 653 l 1,2,-1
 185 1016 l 1,3,-1
 202 1161 l 1,4,-1
 1014 705 l 1,5,-1
 1002 606 l 1,6,-1
 68 96 l 1,0,-1
EndSplineSet
EndChar

StartChar: question
Encoding: 63 63 34
Width: 1126
GlyphClass: 2
Flags: W
LayerCount: 2
Fore
SplineSet
791 919.5 m 128,-1,1
 830 996 830 996 830 1069.5 c 128,-1,2
 830 1143 830 1143 790.5 1184 c 128,-1,3
 751 1225 751 1225 663 1225 c 128,-1,4
 575 1225 575 1225 495 1183 c 128,-1,5
 415 1141 415 1141 334 1051 c 1,6,-1
 241 1149 l 1,7,8
 319 1249 319 1249 432.5 1305.5 c 128,-1,9
 546 1362 546 1362 669 1362 c 0,10,11
 824 1362 824 1362 908.5 1291.5 c 128,-1,12
 993 1221 993 1221 993 1093 c 0,13,14
 993 1000 993 1000 943.5 901 c 128,-1,15
 894 802 894 802 799 714 c 0,16,17
 728 648 728 648 695.5 606.5 c 128,-1,18
 663 565 663 565 646 515.5 c 128,-1,19
 629 466 629 466 618 379 c 1,20,-1
 475 379 l 1,21,22
 492 524 492 524 532.5 604 c 128,-1,23
 573 684 573 684 678 778 c 0,24,0
 752 843 752 843 791 919.5 c 128,-1,1
418.5 212.5 m 128,-1,26
 456 252 456 252 512 252 c 128,-1,27
 568 252 568 252 610.5 212 c 128,-1,28
 653 172 653 172 653 115.5 c 128,-1,29
 653 59 653 59 615 19.5 c 128,-1,30
 577 -20 577 -20 521 -20 c 128,-1,31
 465 -20 465 -20 423.5 20 c 128,-1,32
 382 60 382 60 381.5 116.5 c 128,-1,25
 381 173 381 173 418.5 212.5 c 128,-1,26
EndSplineSet
EndChar

StartChar: at
Encoding: 64 64 35
Width: 1126
GlyphClass: 2
Flags: W
LayerCount: 2
Fore
SplineSet
574 -23 m 0,0,1
 380 -23 380 -23 250 102 c 0,2,3
 184 166 184 166 146 273.5 c 128,-1,4
 108 381 108 381 108 530 c 128,-1,5
 108 679 108 679 141 808.5 c 128,-1,6
 174 938 174 938 230.5 1027 c 128,-1,7
 287 1116 287 1116 364 1178 c 0,8,9
 512 1296 512 1296 706 1296 c 0,10,11
 865 1296 865 1296 948 1209 c 128,-1,12
 1031 1122 1031 1122 1031 927 c 0,13,14
 1031 862 1031 862 1020 774 c 2,15,-1
 969 358 l 1,16,-1
 846 358 l 1,17,-1
 855 436 l 1,18,19
 765 342 765 342 648 342 c 0,20,21
 562 342 562 342 487 393 c 0,22,23
 449 419 449 419 426 467 c 128,-1,24
 403 515 403 515 403 578 c 0,25,26
 403 735 403 735 526.5 822 c 128,-1,27
 650 909 650 909 877 909 c 2,28,-1
 907 909 l 1,29,30
 910 938 910 938 910 964 c 0,31,32
 910 1186 910 1186 685 1186 c 0,33,34
 497 1186 497 1186 368 1034 c 0,35,36
 304 958 304 958 267 834.5 c 128,-1,37
 230 711 230 711 230 572 c 128,-1,38
 230 433 230 433 260 342.5 c 128,-1,39
 290 252 290 252 342 199 c 0,40,41
 447 94 447 94 598 94 c 0,42,43
 716 94 716 94 829 162 c 1,44,-1
 871 61 l 1,45,46
 727 -23 727 -23 574 -23 c 0,0,1
884 690 m 0,47,48
 893 739 893 739 901 807 c 1,49,-1
 867 807 l 2,50,51
 533 807 533 807 533 595 c 0,52,53
 533 533 533 533 570 494 c 128,-1,54
 607 455 607 455 688.5 455 c 128,-1,55
 770 455 770 455 816 514.5 c 128,-1,56
 862 574 862 574 884 690 c 0,47,48
EndSplineSet
EndChar

StartChar: A
Encoding: 65 65 36
Width: 1126
GlyphClass: 2
Flags: W
LayerCount: 2
Fore
SplineSet
-23 0 m 1,0,-1
 610 1298 l 1,1,-1
 682 1298 l 1,2,-1
 995 0 l 1,3,-1
 835 0 l 1,4,-1
 752 373 l 1,5,-1
 300 373 l 1,6,-1
 123 0 l 1,7,-1
 -23 0 l 1,0,-1
358 496 m 1,8,-1
 724 496 l 1,9,-1
 610 1021 l 1,10,-1
 358 496 l 1,8,-1
EndSplineSet
EndChar

StartChar: B
Encoding: 66 66 37
Width: 1126
GlyphClass: 2
Flags: W
LayerCount: 2
Fore
SplineSet
665 1276 m 2,0,1
 826 1276 826 1276 927.5 1208.5 c 128,-1,2
 1029 1141 1029 1141 1029 1010 c 0,3,4
 1029 905 1029 905 968 812.5 c 128,-1,5
 907 720 907 720 804 684 c 1,6,7
 894 653 894 653 949.5 575 c 128,-1,8
 1005 497 1005 497 1005 397 c 0,9,10
 1005 215 1005 215 869 107.5 c 128,-1,11
 733 0 733 0 482 0 c 2,12,-1
 101 0 l 1,13,-1
 257 1276 l 1,14,-1
 665 1276 l 2,0,1
556 748 m 2,15,16
 877 748 877 748 877 979 c 0,17,18
 877 1064 877 1064 811 1108.5 c 128,-1,19
 745 1153 745 1153 627 1153 c 2,20,-1
 386 1153 l 1,21,-1
 337 748 l 1,22,-1
 556 748 l 2,15,16
522 123 m 2,23,24
 691 123 691 123 772 192.5 c 128,-1,25
 853 262 853 262 853 386 c 0,26,27
 853 490 853 490 777.5 557.5 c 128,-1,28
 702 625 702 625 568 625 c 2,29,-1
 321 625 l 1,30,-1
 260 123 l 1,31,-1
 522 123 l 2,23,24
EndSplineSet
EndChar

StartChar: C
Encoding: 67 67 38
Width: 1126
GlyphClass: 2
Flags: W
LayerCount: 2
Fore
SplineSet
915 972 m 2,0,-1
 918 1006 l 1,1,2
 918 1058 918 1058 868 1110 c 0,3,4
 844 1135 844 1135 799.5 1151.5 c 128,-1,5
 755 1168 755 1168 699 1168 c 0,6,7
 520 1168 520 1168 398.5 983 c 128,-1,8
 277 798 277 798 277 500 c 0,9,10
 277 311 277 311 354.5 208.5 c 128,-1,11
 432 106 432 106 576 106 c 0,12,13
 756 106 756 106 869 260 c 1,14,-1
 966 188 l 1,15,16
 806 -20 806 -20 556 -20 c 0,17,18
 351 -20 351 -20 238 113 c 128,-1,19
 125 246 125 246 125 488 c 0,20,21
 125 671 125 671 170.5 823 c 128,-1,22
 216 975 216 975 295.5 1076.5 c 128,-1,23
 375 1178 375 1178 483.5 1234 c 128,-1,24
 592 1290 592 1290 718 1290 c 0,25,26
 998 1290 998 1290 1084 1026 c 1,27,-1
 919 948 l 1,28,29
 915 961 915 961 915 972 c 2,0,-1
EndSplineSet
EndChar

StartChar: D
Encoding: 68 68 39
Width: 1126
GlyphClass: 2
Flags: W
LayerCount: 2
Fore
SplineSet
551 1276 m 2,0,1
 708 1276 708 1276 796.5 1233.5 c 128,-1,2
 885 1191 885 1191 941 1102 c 0,3,4
 1019 976 1019 976 1019 776 c 0,5,6
 1019 773 1019 773 1019 769 c 0,7,8
 1019 582 1019 582 964 429 c 128,-1,9
 909 276 909 276 812 168 c 0,10,11
 659 -2 659 -2 370 -2 c 2,12,-1
 96 -2 l 1,13,-1
 252 1276 l 1,14,-1
 551 1276 l 2,0,1
379 121 m 2,15,16
 621 121 621 121 746 284 c 128,-1,17
 871 447 871 447 871 762 c 0,18,19
 871 954 871 954 788 1053.5 c 128,-1,20
 705 1153 705 1153 527 1153 c 2,21,-1
 380 1153 l 1,22,-1
 254 121 l 1,23,-1
 379 121 l 2,15,16
EndSplineSet
EndChar

StartChar: E
Encoding: 69 69 40
Width: 1126
GlyphClass: 2
Flags: W
LayerCount: 2
Fore
SplineSet
104 0 m 1,0,-1
 260 1276 l 1,1,-1
 1043 1276 l 1,2,-1
 1028 1153 l 1,3,-1
 389 1153 l 1,4,-1
 337 727 l 1,5,-1
 863 727 l 1,6,-1
 848 604 l 1,7,-1
 322 604 l 1,8,-1
 263 123 l 1,9,-1
 895 123 l 1,10,-1
 880 0 l 1,11,-1
 104 0 l 1,0,-1
EndSplineSet
EndChar

StartChar: F
Encoding: 70 70 41
Width: 1126
GlyphClass: 2
Flags: W
LayerCount: 2
Fore
SplineSet
122 0 m 1,0,-1
 278 1276 l 1,1,-1
 1034 1276 l 1,2,-1
 1019 1153 l 1,3,-1
 407 1153 l 1,4,-1
 358 752 l 1,5,-1
 856 752 l 1,6,-1
 841 629 l 1,7,-1
 343 629 l 1,8,-1
 266 0 l 1,9,-1
 122 0 l 1,0,-1
EndSplineSet
EndChar

StartChar: G
Encoding: 71 71 42
Width: 1126
GlyphClass: 2
Flags: W
LayerCount: 2
Fore
SplineSet
897 970 m 1,0,-1
 901 996 l 1,1,2
 901 1065 901 1065 841 1117 c 128,-1,3
 781 1169 781 1169 691 1169 c 128,-1,4
 601 1169 601 1169 524.5 1123.5 c 128,-1,5
 448 1078 448 1078 389 995 c 128,-1,6
 330 912 330 912 295.5 785.5 c 128,-1,7
 261 659 261 659 261 507 c 0,8,9
 261 310 261 310 338.5 207.5 c 128,-1,10
 416 105 416 105 557.5 105 c 128,-1,11
 699 105 699 105 784 151 c 1,12,-1
 831 487 l 1,13,-1
 600 487 l 1,14,-1
 615 610 l 1,15,-1
 990 610 l 1,16,-1
 918 84 l 1,17,18
 756 -21 756 -21 543.5 -21 c 128,-1,19
 331 -21 331 -21 218.5 112 c 128,-1,20
 106 245 106 245 106 486 c 0,21,22
 106 546 106 546 116 631 c 0,23,24
 154 946 154 946 305 1118 c 128,-1,25
 456 1290 456 1290 710 1290 c 0,26,27
 835 1290 835 1290 931 1222.5 c 128,-1,28
 1027 1155 1027 1155 1065 1026 c 1,29,-1
 902 948 l 1,30,31
 897 958 897 958 897 970 c 1,0,-1
EndSplineSet
EndChar

StartChar: H
Encoding: 72 72 43
Width: 1126
GlyphClass: 2
Flags: W
LayerCount: 2
Fore
SplineSet
61 0 m 1,0,-1
 217 1276 l 1,1,-1
 375 1276 l 1,2,3
 374 1266 374 1266 365 1246.5 c 128,-1,4
 356 1227 356 1227 353 1206 c 2,5,-1
 294 731 l 1,6,-1
 855 731 l 1,7,-1
 922 1276 l 1,8,-1
 1080 1276 l 1,9,10
 1079 1266 1079 1266 1070 1246.5 c 128,-1,11
 1061 1227 1061 1227 1058 1206 c 2,12,-1
 910 0 l 1,13,-1
 764 0 l 1,14,-1
 838 608 l 1,15,-1
 279 608 l 1,16,-1
 205 0 l 1,17,-1
 61 0 l 1,0,-1
EndSplineSet
EndChar

StartChar: I
Encoding: 73 73 44
Width: 1126
GlyphClass: 2
Flags: W
LayerCount: 2
Fore
SplineSet
135 0 m 1,0,-1
 150 125 l 1,1,-1
 422 125 l 1,2,-1
 548 1153 l 1,3,-1
 290 1153 l 1,4,-1
 305 1276 l 1,5,-1
 979 1276 l 1,6,-1
 964 1153 l 1,7,-1
 692 1153 l 1,8,-1
 566 123 l 1,9,-1
 850 123 l 1,10,-1
 835 0 l 1,11,-1
 135 0 l 1,0,-1
EndSplineSet
EndChar

StartChar: J
Encoding: 74 74 45
Width: 1126
GlyphClass: 2
Flags: W
LayerCount: 2
Fore
SplineSet
220 184 m 0,0,1
 269 115 269 115 381.5 115 c 128,-1,2
 494 115 494 115 548 185.5 c 128,-1,3
 602 256 602 256 623 426 c 2,4,-1
 713 1153 l 1,5,-1
 357 1153 l 1,6,-1
 372 1276 l 1,7,-1
 1077 1276 l 1,8,-1
 1062 1153 l 1,9,-1
 857 1153 l 1,10,-1
 765 408 l 2,11,12
 741 211 741 211 637 94 c 128,-1,13
 533 -23 533 -23 372 -23 c 0,14,15
 192 -23 192 -23 89 119 c 1,16,-1
 199 236 l 1,17,18
 203 230 203 230 209.5 210 c 128,-1,19
 216 190 216 190 220 184 c 0,0,1
EndSplineSet
EndChar

StartChar: K
Encoding: 75 75 46
Width: 1126
GlyphClass: 2
Flags: W
LayerCount: 2
Fore
SplineSet
1017 1276 m 2,0,-1
 1070 1276 l 1,1,-1
 579 796 l 1,2,-1
 946 0 l 1,3,-1
 792 -20 l 1,4,-1
 472 692 l 1,5,-1
 285 508 l 1,6,-1
 222 0 l 1,7,-1
 78 0 l 1,8,-1
 235 1276 l 1,9,-1
 393 1276 l 1,10,11
 392 1266 392 1266 383 1246.5 c 128,-1,12
 374 1227 374 1227 371 1206 c 2,13,-1
 307 689 l 1,14,-1
 911 1286 l 1,15,16
 961 1276 961 1276 1017 1276 c 2,0,-1
EndSplineSet
EndChar

StartChar: L
Encoding: 76 76 47
Width: 1126
GlyphClass: 2
Flags: W
LayerCount: 2
Fore
SplineSet
131 0 m 1,0,-1
 287 1276 l 1,1,-1
 445 1276 l 1,2,3
 444 1266 444 1266 435 1246.5 c 128,-1,4
 426 1227 426 1227 423 1206 c 2,5,-1
 290 123 l 1,6,-1
 904 123 l 1,7,-1
 889 0 l 1,8,-1
 131 0 l 1,0,-1
EndSplineSet
EndChar

StartChar: M
Encoding: 77 77 48
Width: 1126
GlyphClass: 2
Flags: W
LayerCount: 2
Fore
SplineSet
26 0 m 1,0,-1
 182 1276 l 1,1,-1
 370 1276 l 1,2,-1
 516 817 l 1,3,-1
 569 627 l 1,4,-1
 672 815 l 1,5,-1
 944 1276 l 1,6,-1
 1099 1276 l 1,7,-1
 943 0 l 1,8,-1
 799 0 l 1,9,-1
 890 744 l 1,10,-1
 938 1042 l 1,11,-1
 780 765 l 1,12,-1
 561 397 l 1,13,-1
 499 397 l 1,14,-1
 378 804 l 1,15,-1
 290 1064 l 1,16,-1
 267 793 l 1,17,-1
 170 0 l 1,18,-1
 26 0 l 1,0,-1
EndSplineSet
EndChar

StartChar: N
Encoding: 78 78 49
Width: 1126
GlyphClass: 2
Flags: W
LayerCount: 2
Fore
SplineSet
61 0 m 1,0,-1
 217 1276 l 1,1,-1
 383 1276 l 1,2,-1
 807 270 l 1,3,-1
 831 547 l 1,4,-1
 920 1276 l 1,5,-1
 1078 1276 l 1,6,7
 1077 1266 1077 1266 1068 1246.5 c 128,-1,8
 1059 1227 1059 1227 1056 1206 c 2,9,-1
 908 0 l 1,10,-1
 778 0 l 1,11,-1
 444 780 l 1,12,-1
 325 1064 l 1,13,-1
 300 776 l 1,14,-1
 205 0 l 1,15,-1
 61 0 l 1,0,-1
EndSplineSet
EndChar

StartChar: O
Encoding: 79 79 50
Width: 1126
GlyphClass: 2
Flags: W
LayerCount: 2
Fore
SplineSet
493 -20 m 0,0,1
 294 -20 294 -20 185 115 c 128,-1,2
 76 250 76 250 76 496 c 0,3,4
 76 862 76 862 236.5 1076 c 128,-1,5
 397 1290 397 1290 653 1290 c 0,6,7
 854 1290 854 1290 964 1159 c 128,-1,8
 1074 1028 1074 1028 1074 789 c 0,9,10
 1074 722 1074 722 1065 649 c 0,11,12
 1026 333 1026 333 874 156.5 c 128,-1,13
 722 -20 722 -20 493 -20 c 0,0,1
507 99 m 0,14,15
 687 99 687 99 805.5 281.5 c 128,-1,16
 924 464 924 464 924 774 c 0,17,18
 924 963 924 963 850 1066.5 c 128,-1,19
 776 1170 776 1170 639 1170 c 0,20,21
 458 1170 458 1170 340 986.5 c 128,-1,22
 222 803 222 803 222 496 c 0,23,24
 222 303 222 303 295.5 201 c 128,-1,25
 369 99 369 99 507 99 c 0,14,15
EndSplineSet
EndChar

StartChar: P
Encoding: 80 80 51
Width: 1126
GlyphClass: 2
Flags: W
LayerCount: 2
Fore
SplineSet
698 1276 m 2,0,1
 878 1276 878 1276 963 1191.5 c 128,-1,2
 1048 1107 1048 1107 1048 968 c 0,3,4
 1048 753 1048 753 923 637.5 c 128,-1,5
 798 522 798 522 604 522 c 2,6,-1
 332 522 l 1,7,-1
 268 0 l 1,8,-1
 124 0 l 1,9,-1
 280 1276 l 1,10,-1
 698 1276 l 2,0,1
602 645 m 2,11,12
 897 645 897 645 897 948 c 0,13,14
 897 1043 897 1043 845 1098 c 128,-1,15
 793 1153 793 1153 687 1153 c 2,16,-1
 409 1153 l 1,17,-1
 347 645 l 1,18,-1
 602 645 l 2,11,12
EndSplineSet
EndChar

StartChar: Q
Encoding: 81 81 52
Width: 1126
GlyphClass: 2
Flags: W
LayerCount: 2
Fore
SplineSet
76 496 m 0,0,1
 76 862 76 862 236.5 1076 c 128,-1,2
 397 1290 397 1290 653 1290 c 0,3,4
 854 1290 854 1290 964 1159 c 128,-1,5
 1074 1028 1074 1028 1074 789 c 0,6,7
 1074 722 1074 722 1065 649 c 0,8,9
 1028 346 1028 346 886.5 170.5 c 128,-1,10
 745 -5 745 -5 530 -19 c 1,11,12
 529 -30 529 -30 529 -49 c 0,13,14
 529 -114 529 -114 559 -141 c 128,-1,15
 589 -168 589 -168 660 -168 c 128,-1,16
 731 -168 731 -168 831 -158 c 1,17,-1
 810 -297 l 1,18,-1
 730 -297 l 2,19,20
 549 -297 549 -297 476.5 -251.5 c 128,-1,21
 404 -206 404 -206 404 -72 c 0,22,23
 404 -44 404 -44 407 -13 c 1,24,25
 248 16 248 16 162 147.5 c 128,-1,26
 76 279 76 279 76 496 c 0,0,1
507 99 m 0,27,28
 687 99 687 99 805.5 281.5 c 128,-1,29
 924 464 924 464 924 774 c 0,30,31
 924 963 924 963 850 1066.5 c 128,-1,32
 776 1170 776 1170 639 1170 c 0,33,34
 458 1170 458 1170 340 986.5 c 128,-1,35
 222 803 222 803 222 496 c 0,36,37
 222 303 222 303 295.5 201 c 128,-1,38
 369 99 369 99 507 99 c 0,27,28
EndSplineSet
EndChar

StartChar: R
Encoding: 82 82 53
Width: 1126
GlyphClass: 2
Flags: W
LayerCount: 2
Fore
SplineSet
648 1276 m 2,0,1
 831 1276 831 1276 916.5 1202.5 c 128,-1,2
 1002 1129 1002 1129 1002 1001 c 0,3,4
 1002 835 1002 835 918.5 741.5 c 128,-1,5
 835 648 835 648 697 623 c 1,6,-1
 923 0 l 1,7,-1
 763 0 l 1,8,-1
 552 612 l 1,9,-1
 332 612 l 1,10,-1
 257 0 l 1,11,-1
 114 0 l 1,12,-1
 270 1276 l 1,13,-1
 648 1276 l 2,0,1
563 735 m 2,14,15
 633 735 633 735 679 743 c 128,-1,16
 725 751 725 751 768 776 c 0,17,18
 851 824 851 824 851 983 c 0,19,20
 851 1153 851 1153 637 1153 c 2,21,-1
 398 1153 l 1,22,-1
 347 735 l 1,23,-1
 563 735 l 2,14,15
EndSplineSet
EndChar

StartChar: S
Encoding: 83 83 54
Width: 1126
GlyphClass: 2
Flags: W
LayerCount: 2
Fore
SplineSet
877 1017 m 1,0,-1
 878 1029 l 1,1,2
 878 1060 878 1060 824 1108 c 0,3,4
 798 1132 798 1132 751 1148.5 c 128,-1,5
 704 1165 704 1165 648 1165 c 0,6,7
 535 1165 535 1165 466.5 1110 c 128,-1,8
 398 1055 398 1055 398 961 c 0,9,10
 398 892 398 892 453 846.5 c 128,-1,11
 508 801 508 801 665.5 716.5 c 128,-1,12
 823 632 823 632 889 557 c 128,-1,13
 955 482 955 482 955 372 c 0,14,15
 955 190 955 190 821.5 85 c 128,-1,16
 688 -20 688 -20 473 -20 c 0,17,18
 222 -20 222 -20 91 143 c 1,19,-1
 199 300 l 1,20,21
 220 279 220 279 220 265 c 2,22,-1
 219 245 l 1,23,24
 219 196 219 196 298.5 155 c 128,-1,25
 378 114 378 114 506.5 114 c 128,-1,26
 635 114 635 114 713 179 c 128,-1,27
 791 244 791 244 791 347 c 0,28,29
 791 419 791 419 736.5 471.5 c 128,-1,30
 682 524 682 524 544 598 c 0,31,32
 418 666 418 666 365 706 c 128,-1,33
 312 746 312 746 289 776 c 0,34,35
 236 845 236 845 236 931 c 0,36,37
 236 1092 236 1092 362 1191 c 128,-1,38
 488 1290 488 1290 668 1290 c 0,39,40
 774 1290 774 1290 860.5 1246 c 128,-1,41
 947 1202 947 1202 1006 1124 c 1,42,-1
 890 990 l 1,43,44
 877 1003 877 1003 877 1017 c 1,0,-1
EndSplineSet
EndChar

StartChar: T
Encoding: 84 84 55
Width: 1126
GlyphClass: 2
Flags: W
LayerCount: 2
Fore
SplineSet
405 0 m 1,0,-1
 546 1153 l 1,1,-1
 163 1153 l 1,2,-1
 178 1276 l 1,3,-1
 1104 1276 l 1,4,-1
 1089 1153 l 1,5,-1
 690 1153 l 1,6,-1
 549 0 l 1,7,-1
 405 0 l 1,0,-1
EndSplineSet
EndChar

StartChar: U
Encoding: 85 85 56
Width: 1126
GlyphClass: 2
Flags: W
LayerCount: 2
Fore
SplineSet
242 358 m 0,0,1
 242 230 242 230 306 171.5 c 128,-1,2
 370 113 370 113 505.5 113 c 128,-1,3
 641 113 641 113 727 189.5 c 128,-1,4
 813 266 813 266 835 440 c 2,5,-1
 938 1276 l 1,6,-1
 1081 1276 l 1,7,-1
 979 449 l 2,8,9
 950 215 950 215 820 96 c 128,-1,10
 690 -23 690 -23 479 -23 c 0,11,12
 300 -23 300 -23 199 67 c 128,-1,13
 98 157 98 157 98 345 c 0,14,15
 98 391 98 391 104 442 c 2,16,-1
 206 1276 l 1,17,-1
 364 1276 l 1,18,19
 363 1266 363 1266 354 1246.5 c 128,-1,20
 345 1227 345 1227 342 1206 c 2,21,-1
 247 434 l 2,22,23
 242 389 242 389 242 358 c 0,0,1
EndSplineSet
EndChar

StartChar: V
Encoding: 86 86 57
Width: 1126
GlyphClass: 2
Flags: W
LayerCount: 2
Fore
SplineSet
442 0 m 1,0,-1
 159 1276 l 1,1,-1
 313 1276 l 1,2,-1
 529 267 l 1,3,-1
 968 1276 l 1,4,-1
 1125 1276 l 1,5,-1
 530 0 l 1,6,-1
 442 0 l 1,0,-1
EndSplineSet
EndChar

StartChar: W
Encoding: 87 87 58
Width: 1126
GlyphClass: 2
Flags: W
LayerCount: 2
Fore
SplineSet
208 0 m 1,0,-1
 98 1276 l 1,1,-1
 242 1276 l 1,2,-1
 319 383 l 1,3,-1
 636 1182 l 1,4,-1
 685 1182 l 1,5,-1
 792 350 l 1,6,-1
 1063 1276 l 1,7,-1
 1208 1276 l 1,8,-1
 798 0 l 1,9,-1
 706 0 l 1,10,-1
 606 800 l 1,11,-1
 277 0 l 1,12,-1
 208 0 l 1,0,-1
EndSplineSet
EndChar

StartChar: X
Encoding: 88 88 59
Width: 1126
GlyphClass: 2
Flags: W
LayerCount: 2
Fore
SplineSet
15 0 m 1,0,-1
 474 677 l 1,1,-1
 173 1278 l 1,2,-1
 332 1278 l 1,3,-1
 593 763 l 1,4,-1
 956 1278 l 1,5,-1
 1110 1278 l 1,6,-1
 658 635 l 1,7,-1
 980 0 l 1,8,-1
 814 0 l 1,9,-1
 543 541 l 1,10,-1
 172 0 l 1,11,-1
 15 0 l 1,0,-1
EndSplineSet
EndChar

StartChar: Y
Encoding: 89 89 60
Width: 1126
GlyphClass: 2
Flags: W
LayerCount: 2
Fore
SplineSet
416 0 m 1,0,-1
 479 512 l 1,1,-1
 153 1276 l 1,2,-1
 311 1276 l 1,3,-1
 579 665 l 1,4,-1
 992 1276 l 1,5,-1
 1150 1276 l 1,6,-1
 622 511 l 1,7,-1
 560 0 l 1,8,-1
 416 0 l 1,0,-1
EndSplineSet
EndChar

StartChar: Z
Encoding: 90 90 61
Width: 1126
GlyphClass: 2
Flags: W
LayerCount: 2
Fore
SplineSet
879 123 m 2,0,1
 899 123 899 123 919.5 130 c 128,-1,2
 940 137 940 137 949 137 c 1,3,-1
 933 0 l 1,4,-1
 47 0 l 1,5,-1
 59 100 l 1,6,-1
 890 1153 l 1,7,-1
 213 1153 l 1,8,-1
 228 1276 l 1,9,-1
 1077 1276 l 1,10,-1
 1065 1176 l 1,11,-1
 240 123 l 1,12,-1
 879 123 l 2,0,1
EndSplineSet
EndChar

StartChar: bracketleft
Encoding: 91 91 62
Width: 1126
GlyphClass: 2
Flags: W
LayerCount: 2
Fore
SplineSet
219 -338 m 1,0,-1
 419 1276 l 1,1,-1
 1005 1276 l 1,2,-1
 990 1153 l 1,3,-1
 535 1153 l 1,4,-1
 365 -222 l 1,5,-1
 822 -222 l 1,6,-1
 807 -338 l 1,7,-1
 219 -338 l 1,0,-1
EndSplineSet
EndChar

StartChar: backslash
Encoding: 92 92 63
Width: 1126
GlyphClass: 2
Flags: W
LayerCount: 2
Fore
SplineSet
736 -86 m 1,0,-1
 263 1298 l 1,1,-1
 392 1362 l 1,2,-1
 864 -27 l 1,3,-1
 736 -86 l 1,0,-1
EndSplineSet
EndChar

StartChar: bracketright
Encoding: 93 93 64
Width: 1126
GlyphClass: 2
Flags: W
LayerCount: 2
Fore
SplineSet
186 -215 m 1,0,-1
 641 -215 l 1,1,-1
 811 1160 l 1,2,-1
 354 1160 l 1,3,-1
 369 1276 l 1,4,-1
 957 1276 l 1,5,-1
 757 -338 l 1,6,-1
 171 -338 l 1,7,-1
 186 -215 l 1,0,-1
EndSplineSet
EndChar

StartChar: asciicircum
Encoding: 94 94 65
Width: 1126
GlyphClass: 2
Flags: W
LayerCount: 2
Fore
SplineSet
289 702 m 1,0,-1
 192 752 l 1,1,-1
 550 1276 l 1,2,-1
 600 1276 l 1,3,-1
 830 752 l 1,4,-1
 721 702 l 1,5,-1
 551 1081 l 1,6,-1
 289 702 l 1,0,-1
EndSplineSet
EndChar

StartChar: underscore
Encoding: 95 95 66
Width: 1126
GlyphClass: 2
Flags: W
LayerCount: 2
Fore
SplineSet
81 -39 m 1,0,-1
 963 -39 l 1,1,-1
 947 -164 l 1,2,-1
 65 -164 l 1,3,-1
 81 -39 l 1,0,-1
EndSplineSet
EndChar

StartChar: grave
Encoding: 96 96 67
Width: 1126
GlyphClass: 2
Flags: W
LayerCount: 2
Fore
SplineSet
535 1048 m 1,0,-1
 360 1371 l 1,1,-1
 500 1449 l 1,2,-1
 623 1089 l 1,3,-1
 535 1048 l 1,0,-1
EndSplineSet
EndChar

StartChar: a
Encoding: 97 97 68
Width: 1126
GlyphClass: 2
Flags: W
LayerCount: 2
Fore
SplineSet
427 -25 m 0,0,1
 140 -25 140 -25 140 322 c 0,2,3
 140 615 140 615 283 785.5 c 128,-1,4
 426 956 426 956 663 956 c 0,5,6
 773 956 773 956 871 926 c 1,7,-1
 1025 941 l 1,8,9
 1023 932 1023 932 1014.5 912 c 128,-1,10
 1006 892 1006 892 1003 871 c 2,11,-1
 912 153 l 2,12,13
 908 117 908 117 908 97.5 c 128,-1,14
 908 78 908 78 916 0 c 1,15,-1
 778 0 l 1,16,17
 765 62 765 62 765 92.5 c 128,-1,18
 765 123 765 123 768 147 c 1,19,20
 636 -25 636 -25 427 -25 c 0,0,1
641 836 m 0,21,22
 479 836 479 836 383 693.5 c 128,-1,23
 287 551 287 551 287 306 c 0,24,25
 287 194 287 194 326.5 150 c 128,-1,26
 366 106 366 106 464 105.5 c 128,-1,27
 562 105 562 105 655 191.5 c 128,-1,28
 748 278 748 278 805 425 c 1,29,-1
 854 800 l 1,30,31
 748 836 748 836 641 836 c 0,21,22
EndSplineSet
EndChar

StartChar: b
Encoding: 98 98 69
Width: 1126
GlyphClass: 2
Flags: W
LayerCount: 2
Fore
SplineSet
717 958 m 0,0,1
 1016 958 1016 958 1016 639 c 0,2,3
 1016 578 1016 578 1004 501 c 0,4,5
 965 248 965 248 825.5 112.5 c 128,-1,6
 686 -23 686 -23 477 -23 c 0,7,8
 351 -23 351 -23 258 20 c 1,9,-1
 112 -25 l 1,10,-1
 302 1364 l 1,11,-1
 456 1364 l 1,12,13
 454 1355 454 1355 445.5 1335 c 128,-1,14
 437 1315 437 1315 434 1294 c 2,15,-1
 359 742 l 1,16,17
 508 958 508 958 717 958 c 0,0,1
279 157 m 1,18,19
 371 97 371 97 502.5 97 c 128,-1,20
 634 97 634 97 729 196.5 c 128,-1,21
 824 296 824 296 857 494 c 0,22,23
 868 563 868 563 868 612 c 0,24,25
 868 724 868 724 824 776 c 128,-1,26
 780 828 780 828 708 828 c 0,27,28
 590 828 590 828 473 709.5 c 128,-1,29
 356 591 356 591 315 416 c 1,30,-1
 279 157 l 1,18,19
EndSplineSet
EndChar

StartChar: c
Encoding: 99 99 70
Width: 1126
GlyphClass: 2
Flags: W
LayerCount: 2
Fore
SplineSet
834 680 m 1,0,-1
 836 700 l 1,1,2
 836 734 836 734 790 778 c 0,3,4
 767 801 767 801 723.5 817 c 128,-1,5
 680 833 680 833 625 833 c 0,6,7
 478 833 478 833 382 715.5 c 128,-1,8
 286 598 286 598 286 405 c 0,9,10
 286 265 286 265 355.5 180.5 c 128,-1,11
 425 96 425 96 555 96 c 0,12,13
 713 96 713 96 850 233 c 1,14,-1
 924 133 l 1,15,16
 760 -24 760 -24 535 -24 c 0,17,18
 346 -24 346 -24 239 86 c 128,-1,19
 132 196 132 196 132 388 c 0,20,21
 132 533 132 533 186 658 c 0,22,23
 269 848 269 848 440 920 c 0,24,25
 530 958 530 958 639 958 c 0,26,27
 868 958 868 958 971 775 c 1,28,-1
 847 648 l 1,29,30
 834 661 834 661 834 680 c 1,0,-1
EndSplineSet
EndChar

StartChar: d
Encoding: 100 100 71
Width: 1126
GlyphClass: 2
Flags: W
LayerCount: 2
Fore
SplineSet
423 -25 m 0,0,1
 138 -25 138 -25 138 307 c 0,2,3
 138 619 138 619 282.5 787.5 c 128,-1,4
 427 956 427 956 663 956 c 0,5,6
 788 956 788 956 873 912 c 1,7,-1
 932 1362 l 1,8,-1
 1086 1362 l 1,9,10
 1085 1353 1085 1353 1075.5 1333 c 128,-1,11
 1066 1313 1066 1313 1064 1292 c 2,12,-1
 912 153 l 2,13,14
 908 129 908 129 908 103.5 c 128,-1,15
 908 78 908 78 916 0 c 1,16,-1
 778 0 l 1,17,18
 765 62 765 62 765 95 c 128,-1,19
 765 128 765 128 769 153 c 1,20,21
 635 -25 635 -25 423 -25 c 0,0,1
455 105 m 0,22,23
 588 105 588 105 676 202 c 128,-1,24
 764 299 764 299 810 455 c 1,25,-1
 854 773 l 1,26,27
 768 836 768 836 625 836 c 128,-1,28
 482 836 482 836 384 703.5 c 128,-1,29
 286 571 286 571 286 314 c 0,30,31
 286 204 286 204 326 154.5 c 128,-1,32
 366 105 366 105 455 105 c 0,22,23
EndSplineSet
EndChar

StartChar: e
Encoding: 101 101 72
Width: 1126
GlyphClass: 2
Flags: W
LayerCount: 2
Fore
SplineSet
477 -25 m 0,0,1
 345 -25 345 -25 244 48 c 1,2,3
 192 87 192 87 161 159 c 128,-1,4
 130 231 130 231 130 326 c 128,-1,5
 130 421 130 421 157.5 532 c 128,-1,6
 185 643 185 643 235.5 728 c 128,-1,7
 286 813 286 813 350 862 c 1,8,9
 476 956 476 956 629.5 956 c 128,-1,10
 783 956 783 956 855 879.5 c 128,-1,11
 927 803 927 803 927 677 c 0,12,13
 927 600 927 600 887 560.5 c 128,-1,14
 847 521 847 521 749 508 c 2,15,-1
 291 446 l 1,16,17
 279 391 279 391 279 343 c 0,18,19
 279 227 279 227 340 162 c 128,-1,20
 401 97 401 97 497.5 97 c 128,-1,21
 594 97 594 97 656.5 128.5 c 128,-1,22
 719 160 719 160 782 227 c 1,23,-1
 854 147 l 1,24,25
 704 -25 704 -25 477 -25 c 0,0,1
787 696 m 0,26,27
 787 760 787 760 747.5 797.5 c 128,-1,28
 708 835 708 835 624 835 c 0,29,30
 509 835 509 835 428.5 761.5 c 128,-1,31
 348 688 348 688 310 561 c 1,32,-1
 690 614 l 2,33,34
 743 621 743 621 765 640 c 128,-1,35
 787 659 787 659 787 696 c 0,26,27
EndSplineSet
EndChar

StartChar: f
Encoding: 102 102 73
Width: 1126
GlyphClass: 2
Flags: W
LayerCount: 2
Fore
SplineSet
1095 1126 m 2,0,-1
 1096 1138 l 1,1,2
 1096 1181 1096 1181 1040 1215 c 128,-1,3
 984 1249 984 1249 896 1249 c 0,4,5
 782 1249 782 1249 711 1183.5 c 128,-1,6
 640 1118 640 1118 623 983 c 2,7,-1
 605 841 l 1,8,-1
 1006 841 l 1,9,-1
 991 721 l 1,10,-1
 590 721 l 1,11,-1
 497 -16 l 1,12,13
 480 -139 480 -139 460 -217.5 c 128,-1,14
 440 -296 440 -296 405 -357.5 c 128,-1,15
 370 -419 370 -419 316.5 -446.5 c 128,-1,16
 263 -474 263 -474 177.5 -474 c 128,-1,17
 92 -474 92 -474 -12 -438 c 1,18,-1
 22 -261 l 1,19,20
 44 -268 44 -268 47 -278 c 0,21,22
 48 -281 48 -281 49 -291 c 0,23,24
 52 -319 52 -319 90.5 -335.5 c 128,-1,25
 129 -352 129 -352 194.5 -352 c 128,-1,26
 260 -352 260 -352 298 -282.5 c 128,-1,27
 336 -213 336 -213 357 -29 c 1,28,-1
 451 721 l 1,29,-1
 208 721 l 1,30,-1
 223 841 l 1,31,-1
 466 841 l 1,32,-1
 482 987 l 2,33,34
 502 1170 502 1170 620.5 1273 c 128,-1,35
 739 1376 739 1376 920 1376 c 128,-1,36
 1101 1376 1101 1376 1195 1245 c 1,37,-1
 1109 1106 l 1,38,39
 1095 1115 1095 1115 1095 1126 c 2,0,-1
EndSplineSet
EndChar

StartChar: g
Encoding: 103 103 74
Width: 1126
GlyphClass: 2
Flags: W
LayerCount: 2
Fore
SplineSet
171 -216 m 0,0,1
 171 -259 171 -259 208 -288 c 0,2,3
 272 -337 272 -337 361.5 -337 c 128,-1,4
 451 -337 451 -337 521.5 -307.5 c 128,-1,5
 592 -278 592 -278 646.5 -207 c 128,-1,6
 701 -136 701 -136 717 -29 c 2,7,-1
 739 117 l 1,8,9
 611 -25 611 -25 425 -25 c 0,10,11
 138 -25 138 -25 138 306 c 0,12,13
 138 616 138 616 282 786 c 128,-1,14
 426 956 426 956 673 956 c 0,15,16
 779 956 779 956 863 927 c 1,17,-1
 1013 941 l 1,18,19
 1012 932 1012 932 1002.5 912 c 128,-1,20
 993 892 993 892 991 871 c 2,21,-1
 983 804 l 1,22,-1
 857 -16 l 2,23,24
 839 -135 839 -135 792.5 -224 c 128,-1,25
 746 -313 746 -313 678 -366 c 1,26,27
 544 -473 544 -473 356 -473 c 0,28,29
 261 -473 261 -473 202 -448 c 128,-1,30
 143 -423 143 -423 86 -373 c 1,31,-1
 149 -185 l 1,32,33
 171 -193 171 -193 171 -216 c 0,0,1
455 105 m 0,34,35
 666 105 666 105 775 357 c 1,36,-1
 841 795 l 1,37,38
 755 836 755 836 641 836 c 0,39,40
 483 836 483 836 383.5 703.5 c 128,-1,41
 284 571 284 571 284 317 c 0,42,43
 284 206 284 206 324.5 155.5 c 128,-1,44
 365 105 365 105 455 105 c 0,34,35
EndSplineSet
EndChar

StartChar: h
Encoding: 104 104 75
Width: 1126
GlyphClass: 2
Flags: W
LayerCount: 2
Fore
SplineSet
730 958 m 0,0,1
 841 958 841 958 895.5 906 c 128,-1,2
 950 854 950 854 950 732 c 0,3,4
 950 690 950 690 944 639 c 2,5,-1
 882 153 l 2,6,7
 877 119 877 119 877 82.5 c 128,-1,8
 877 46 877 46 886 0 c 1,9,-1
 748 0 l 1,10,11
 734 51 734 51 734 84.5 c 128,-1,12
 734 118 734 118 739 153 c 2,13,-1
 780 426 l 1,14,-1
 801 613 l 2,15,16
 805 646 805 646 805 679 c 0,17,18
 805 762 805 762 772 793.5 c 128,-1,19
 739 825 739 825 667 825 c 128,-1,20
 595 825 595 825 514 785 c 128,-1,21
 433 745 433 745 371.5 674.5 c 128,-1,22
 310 604 310 604 300 528 c 2,23,-1
 235 0 l 1,24,-1
 95 0 l 1,25,-1
 262 1362 l 1,26,-1
 416 1362 l 1,27,28
 415 1352 415 1352 406 1332.5 c 128,-1,29
 397 1313 397 1313 394 1292 c 2,30,-1
 330 770 l 1,31,32
 509 958 509 958 730 958 c 0,0,1
EndSplineSet
EndChar

StartChar: i
Encoding: 105 105 76
Width: 1126
GlyphClass: 2
Flags: W
LayerCount: 2
Fore
SplineSet
609 1117 m 128,-1,1
 560 1117 560 1117 524 1152.5 c 128,-1,2
 488 1188 488 1188 488 1237.5 c 128,-1,3
 488 1287 488 1287 522.5 1323 c 128,-1,4
 557 1359 557 1359 607.5 1359 c 128,-1,5
 658 1359 658 1359 694.5 1322.5 c 128,-1,6
 731 1286 731 1286 731 1237 c 128,-1,7
 731 1188 731 1188 694.5 1152.5 c 128,-1,0
 658 1117 658 1117 609 1117 c 128,-1,1
117 0 m 1,8,-1
 131 120 l 1,9,-1
 449 120 l 1,10,-1
 535 816 l 1,11,-1
 221 816 l 1,12,-1
 235 936 l 1,13,-1
 692 936 l 1,14,-1
 592 120 l 1,15,-1
 910 120 l 1,16,-1
 896 0 l 1,17,-1
 117 0 l 1,8,-1
EndSplineSet
EndChar

StartChar: j
Encoding: 106 106 77
Width: 1126
GlyphClass: 2
Flags: W
LayerCount: 2
Fore
SplineSet
782 1117 m 128,-1,1
 733 1117 733 1117 697 1152.5 c 128,-1,2
 661 1188 661 1188 661 1237.5 c 128,-1,3
 661 1287 661 1287 695.5 1323 c 128,-1,4
 730 1359 730 1359 780.5 1359 c 128,-1,5
 831 1359 831 1359 867.5 1322.5 c 128,-1,6
 904 1286 904 1286 904 1237 c 128,-1,7
 904 1188 904 1188 867.5 1152.5 c 128,-1,0
 831 1117 831 1117 782 1117 c 128,-1,1
206 -168 m 0,8,9
 273 -229 273 -229 364.5 -229 c 128,-1,10
 456 -229 456 -229 519.5 -163.5 c 128,-1,11
 583 -98 583 -98 599 37 c 2,12,-1
 695 816 l 1,13,-1
 306 816 l 1,14,-1
 320 936 l 1,15,-1
 849 936 l 1,16,-1
 740 45 l 2,17,18
 716 -152 716 -152 612 -254 c 128,-1,19
 508 -356 508 -356 328.5 -356 c 128,-1,20
 149 -356 149 -356 60 -225 c 1,21,-1
 171 -98 l 1,22,23
 178 -105 178 -105 185.5 -130.5 c 128,-1,24
 193 -156 193 -156 206 -168 c 0,8,9
EndSplineSet
EndChar

StartChar: k
Encoding: 107 107 78
Width: 1126
GlyphClass: 2
Flags: W
LayerCount: 2
Fore
SplineSet
983 936 m 2,0,-1
 1028 936 l 1,1,-1
 562 564 l 1,2,-1
 947 0 l 1,3,-1
 770 -8 l 1,4,-1
 445 470 l 1,5,-1
 294 349 l 1,6,-1
 251 0 l 1,7,-1
 111 0 l 1,8,-1
 278 1362 l 1,9,-1
 432 1362 l 1,10,11
 431 1352 431 1352 422 1332.5 c 128,-1,12
 413 1313 413 1313 410 1292 c 2,13,-1
 313 504 l 1,14,-1
 851 952 l 1,15,16
 911 936 911 936 983 936 c 2,0,-1
EndSplineSet
EndChar

StartChar: l
Encoding: 108 108 79
Width: 1126
GlyphClass: 2
Flags: W
LayerCount: 2
Fore
SplineSet
129 0 m 1,0,-1
 144 120 l 1,1,-1
 420 120 l 1,2,-1
 558 1242 l 1,3,-1
 294 1242 l 1,4,-1
 309 1362 l 1,5,-1
 713 1362 l 1,6,-1
 560 120 l 1,7,-1
 844 120 l 1,8,-1
 829 0 l 1,9,-1
 129 0 l 1,0,-1
EndSplineSet
EndChar

StartChar: m
Encoding: 109 109 80
Width: 1126
GlyphClass: 2
Flags: W
LayerCount: 2
Fore
SplineSet
499 958 m 0,0,1
 629 958 629 958 656 830 c 1,2,3
 780 958 780 958 909 958 c 0,4,5
 1078 958 1078 958 1078 781 c 0,6,7
 1078 754 1078 754 1073 719 c 2,8,-1
 997 153 l 2,9,10
 993 129 993 129 993 103.5 c 128,-1,11
 993 78 993 78 1001 0 c 1,12,-1
 863 0 l 1,13,14
 850 62 850 62 850 95 c 128,-1,15
 850 128 850 128 854 153 c 2,16,-1
 930 684 l 2,17,18
 935 718 935 718 935 758 c 128,-1,19
 935 798 935 798 918 816 c 128,-1,20
 901 834 901 834 863 834 c 0,21,22
 777 834 777 834 661 703 c 1,23,-1
 575 0 l 1,24,-1
 436 0 l 1,25,-1
 516 651 l 2,26,27
 525 730 525 730 525 764.5 c 128,-1,28
 525 799 525 799 510.5 816.5 c 128,-1,29
 496 834 496 834 458 834 c 0,30,31
 381 834 381 834 315 778.5 c 128,-1,32
 249 723 249 723 239 645 c 2,33,-1
 160 0 l 1,34,-1
 21 0 l 1,35,-1
 135 936 l 1,36,-1
 289 936 l 1,37,38
 288 927 288 927 278 907 c 0,39,40
 269 887 269 887 266 856 c 1,41,-1
 262 827 l 1,42,43
 302 890 302 890 369 924 c 128,-1,44
 436 958 436 958 499 958 c 0,0,1
EndSplineSet
EndChar

StartChar: n
Encoding: 110 110 81
Width: 1126
GlyphClass: 2
Flags: W
LayerCount: 2
Fore
SplineSet
765 958 m 0,0,1
 984 958 984 958 984 711 c 0,2,3
 984 677 984 677 979 629 c 2,4,-1
 920 153 l 2,5,6
 915 108 915 108 915 77 c 128,-1,7
 915 46 915 46 924 0 c 1,8,-1
 786 0 l 1,9,10
 773 48 773 48 773 86 c 128,-1,11
 773 124 773 124 777 153 c 2,12,-1
 831 563 l 2,13,14
 838 618 838 618 838 665 c 0,15,16
 838 754 838 754 809 789.5 c 128,-1,17
 780 825 780 825 711.5 825 c 128,-1,18
 643 825 643 825 560 787 c 128,-1,19
 477 749 477 749 412 676 c 128,-1,20
 347 603 347 603 337 518 c 2,21,-1
 273 0 l 1,22,-1
 133 0 l 1,23,-1
 248 936 l 1,24,-1
 402 936 l 1,25,26
 400 919 400 919 391 901 c 128,-1,27
 382 883 382 883 380 866 c 2,28,-1
 368 770 l 1,29,30
 439 852 439 852 549 905 c 128,-1,31
 659 958 659 958 765 958 c 0,0,1
EndSplineSet
EndChar

StartChar: o
Encoding: 111 111 82
Width: 1126
GlyphClass: 2
Flags: W
LayerCount: 2
Fore
SplineSet
623 956 m 0,0,1
 799 956 799 956 903 849.5 c 128,-1,2
 1007 743 1007 743 1007 561 c 128,-1,3
 1007 379 1007 379 938 245.5 c 128,-1,4
 869 112 869 112 755.5 43.5 c 128,-1,5
 642 -25 642 -25 503 -25 c 0,6,7
 328 -25 328 -25 226 81 c 128,-1,8
 124 187 124 187 124 376 c 0,9,10
 124 419 124 419 130 467 c 0,11,12
 158 695 158 695 292.5 825.5 c 128,-1,13
 427 956 427 956 623 956 c 0,0,1
518 95 m 0,14,15
 673 95 673 95 768 216 c 128,-1,16
 863 337 863 337 863 543 c 0,17,18
 863 683 863 683 797.5 759.5 c 128,-1,19
 732 836 732 836 608 836 c 0,20,21
 454 836 454 836 361 713 c 128,-1,22
 268 590 268 590 268 379 c 0,23,24
 268 243 268 243 332 169 c 128,-1,25
 396 95 396 95 518 95 c 0,14,15
EndSplineSet
EndChar

StartChar: p
Encoding: 112 112 83
Width: 1126
GlyphClass: 2
Flags: W
LayerCount: 2
Fore
SplineSet
725 979 m 0,0,1
 876 979 876 979 949 882 c 0,2,3
 1010 801 1010 801 1010 645 c 128,-1,4
 1010 489 1010 489 971 365 c 128,-1,5
 932 241 932 241 862 161 c 0,6,7
 718 -2 718 -2 485 -2 c 0,8,9
 362 -2 362 -2 279 40 c 1,10,-1
 229 -330 l 1,11,-1
 87 -330 l 1,12,-1
 256 936 l 1,13,-1
 410 936 l 1,14,15
 408 927 408 927 399.5 907 c 128,-1,16
 391 887 391 887 388 866 c 1,17,-1
 371 801 l 1,18,19
 432 881 432 881 523 930 c 128,-1,20
 614 979 614 979 725 979 c 0,0,1
517 118 m 0,21,22
 666 118 666 118 764 250.5 c 128,-1,23
 862 383 862 383 862 640 c 0,24,25
 862 750 862 750 822 799.5 c 128,-1,26
 782 849 782 849 693 849 c 0,27,28
 564 849 564 849 477 758 c 128,-1,29
 390 667 390 667 343 518 c 1,30,-1
 298 178 l 1,31,32
 382 118 382 118 517 118 c 0,21,22
EndSplineSet
EndChar

StartChar: q
Encoding: 113 113 84
Width: 1126
GlyphClass: 2
Flags: W
LayerCount: 2
Fore
SplineSet
423 -25 m 0,0,1
 138 -25 138 -25 138 307 c 0,2,3
 138 619 138 619 282.5 787.5 c 128,-1,4
 427 956 427 956 663 956 c 0,5,6
 783 956 783 956 864 916 c 1,7,-1
 866 936 l 1,8,-1
 1020 936 l 1,9,10
 1019 927 1019 927 1009.5 907 c 128,-1,11
 1000 887 1000 887 998 866 c 2,12,-1
 857 -179 l 2,13,14
 848 -242 848 -242 845 -332 c 1,15,-1
 703 -332 l 1,16,17
 706 -235 706 -235 714 -179 c 2,18,-1
 758 140 l 1,19,20
 628 -25 628 -25 423 -25 c 0,0,1
455 105 m 0,21,22
 578 105 578 105 663 188.5 c 128,-1,23
 748 272 748 272 796 411 c 1,24,-1
 848 778 l 1,25,26
 763 836 763 836 631 836 c 0,27,28
 482 836 482 836 384 703.5 c 128,-1,29
 286 571 286 571 286 314 c 0,30,31
 286 204 286 204 326 154.5 c 128,-1,32
 366 105 366 105 455 105 c 0,21,22
EndSplineSet
EndChar

StartChar: r
Encoding: 114 114 85
Width: 1126
GlyphClass: 2
Flags: W
LayerCount: 2
Fore
SplineSet
787 958 m 0,0,1
 1025 958 1025 958 1032 699 c 1,2,-1
 883 628 l 1,3,4
 879 632 879 632 879 637.5 c 128,-1,5
 879 643 879 643 887.5 662.5 c 128,-1,6
 896 682 896 682 896 721 c 128,-1,7
 896 760 896 760 870.5 792 c 128,-1,8
 845 824 845 824 766.5 824 c 128,-1,9
 688 824 688 824 602.5 769.5 c 128,-1,10
 517 715 517 715 464.5 641.5 c 128,-1,11
 412 568 412 568 402 504 c 1,12,-1
 338 -2 l 1,13,-1
 195 -2 l 1,14,-1
 315 936 l 1,15,-1
 469 936 l 1,16,17
 468 927 468 927 458.5 907 c 128,-1,18
 449 887 449 887 447 866 c 2,19,-1
 429 735 l 1,20,21
 565 958 565 958 787 958 c 0,0,1
EndSplineSet
EndChar

StartChar: s
Encoding: 115 115 86
Width: 1126
GlyphClass: 2
Flags: W
LayerCount: 2
Fore
SplineSet
254 271 m 2,0,-1
 254 258 l 2,1,2
 254 213 254 213 339.5 162.5 c 128,-1,3
 425 112 425 112 545.5 112 c 128,-1,4
 666 112 666 112 719 143.5 c 128,-1,5
 772 175 772 175 772 248 c 0,6,7
 772 303 772 303 722.5 339 c 128,-1,8
 673 375 673 375 574.5 411 c 128,-1,9
 476 447 476 447 430.5 466 c 128,-1,10
 385 485 385 485 342.5 509 c 128,-1,11
 300 533 300 533 280 558 c 0,12,13
 236 613 236 613 236 691.5 c 128,-1,14
 236 770 236 770 267.5 822.5 c 128,-1,15
 299 875 299 875 354 903 c 0,16,17
 457 956 457 956 604 956 c 0,18,19
 857 956 857 956 973 805 c 1,20,-1
 867 667 l 1,21,22
 855 673 855 673 852 691 c 1,23,24
 848 730 848 730 795 779 c 0,25,26
 768 804 768 804 716 821 c 128,-1,27
 664 838 664 838 597 838 c 0,28,29
 493 838 493 838 439 807 c 128,-1,30
 385 776 385 776 385 719.5 c 128,-1,31
 385 663 385 663 439.5 627 c 128,-1,32
 494 591 494 591 606 550.5 c 128,-1,33
 718 510 718 510 769.5 485 c 128,-1,34
 821 460 821 460 863 426 c 128,-1,35
 905 392 905 392 922 349.5 c 128,-1,36
 939 307 939 307 939 247 c 0,37,38
 939 115 939 115 832.5 47.5 c 128,-1,39
 726 -20 726 -20 542 -20 c 0,40,41
 272 -20 272 -20 130 127 c 1,42,-1
 242 295 l 1,43,44
 254 285 254 285 254 271 c 2,0,-1
EndSplineSet
EndChar

StartChar: t
Encoding: 116 116 87
Width: 1126
GlyphClass: 2
Flags: W
LayerCount: 2
Fore
SplineSet
288 287 m 2,0,1
 288 287 288 287 287 321 c 1,2,3
 287 532 287 532 350 816 c 1,4,-1
 156 816 l 1,5,-1
 169 936 l 1,6,-1
 379 936 l 1,7,8
 414 1069 414 1069 451 1182 c 1,9,-1
 621 1202 l 1,10,11
 619 1180 619 1180 606 1169 c 0,12,13
 582 1149 582 1149 527 936 c 1,14,-1
 905 936 l 1,15,-1
 892 816 l 1,16,-1
 499 816 l 1,17,18
 438 542 438 542 438 352 c 0,19,20
 438 214 438 214 474 159 c 128,-1,21
 510 104 510 104 600 104 c 0,22,23
 665 104 665 104 743.5 127 c 128,-1,24
 822 150 822 150 880 188 c 1,25,-1
 913 86 l 1,26,27
 748 -23 748 -23 562 -23 c 0,28,29
 400 -23 400 -23 342 60 c 0,30,31
 313 102 313 102 301.5 155 c 128,-1,32
 290 208 290 208 288 287 c 2,0,1
EndSplineSet
EndChar

StartChar: u
Encoding: 117 117 88
Width: 1126
GlyphClass: 2
Flags: W
LayerCount: 2
Fore
SplineSet
299 299 m 0,0,1
 299 205 299 205 341 155.5 c 128,-1,2
 383 106 383 106 461 106 c 0,3,4
 576 106 576 106 678.5 200 c 128,-1,5
 781 294 781 294 796 414 c 2,6,-1
 860 936 l 1,7,-1
 1000 936 l 1,8,-1
 904 155 l 2,9,10
 900 123 900 123 900 84.5 c 128,-1,11
 900 46 900 46 911 0 c 1,12,-1
 771 0 l 1,13,14
 761 39 761 39 761 88 c 128,-1,15
 761 137 761 137 765 166 c 1,16,17
 696 76 696 76 602 26.5 c 128,-1,18
 508 -23 508 -23 403 -23 c 0,19,20
 155 -23 155 -23 155 253 c 0,21,22
 155 294 155 294 161 342 c 2,23,-1
 234 936 l 1,24,-1
 374 936 l 1,25,-1
 303 358 l 2,26,27
 299 330 299 330 299 299 c 0,0,1
EndSplineSet
EndChar

StartChar: v
Encoding: 118 118 89
Width: 1126
GlyphClass: 2
Flags: W
LayerCount: 2
Fore
SplineSet
364 936 m 1,0,1
 364 924 364 924 356.5 905 c 128,-1,2
 349 886 349 886 349 874.5 c 128,-1,3
 349 863 349 863 351 841 c 0,4,5
 395 499 395 499 534 187 c 1,6,7
 833 615 833 615 895 936 c 1,8,-1
 1053 936 l 1,9,10
 1017 757 1017 757 901.5 531 c 128,-1,11
 786 305 786 305 557 0 c 1,12,-1
 460 0 l 1,13,14
 233 505 233 505 187 936 c 1,15,-1
 364 936 l 1,0,1
EndSplineSet
EndChar

StartChar: w
Encoding: 119 119 90
Width: 1126
GlyphClass: 2
Flags: W
LayerCount: 2
Fore
SplineSet
282 936 m 1,0,1
 282 912 282 912 273 900 c 0,2,3
 255 873 255 873 255 759.5 c 128,-1,4
 255 646 255 646 263 563 c 128,-1,5
 271 480 271 480 287 367 c 128,-1,6
 303 254 303 254 309 200 c 1,7,-1
 524 663 l 1,8,-1
 659 663 l 1,9,10
 667 486 667 486 676.5 393 c 128,-1,11
 686 300 686 300 707 208 c 1,12,13
 853 417 853 417 915.5 588.5 c 128,-1,14
 978 760 978 760 995 936 c 1,15,-1
 1137 936 l 1,16,17
 1127 842 1127 842 1106 756 c 128,-1,18
 1085 670 1085 670 1040 555 c 0,19,20
 950 322 950 322 711 0 c 1,21,-1
 620 0 l 1,22,23
 552 238 552 238 538 466 c 1,24,-1
 488 327 l 1,25,-1
 329 0 l 1,26,-1
 212 0 l 1,27,28
 102 499 102 499 97 936 c 1,29,-1
 282 936 l 1,0,1
EndSplineSet
EndChar

StartChar: x
Encoding: 120 120 91
Width: 1126
GlyphClass: 2
Flags: W
LayerCount: 2
Fore
SplineSet
80 0 m 1,0,-1
 465 485 l 1,1,-1
 200 936 l 1,2,-1
 362 936 l 1,3,-1
 575 577 l 1,4,-1
 860 936 l 1,5,-1
 1011 936 l 1,6,-1
 641 467 l 1,7,-1
 918 0 l 1,8,-1
 750 0 l 1,9,-1
 532 372 l 1,10,-1
 248 0 l 1,11,-1
 80 0 l 1,0,-1
EndSplineSet
EndChar

StartChar: y
Encoding: 121 121 92
Width: 1126
GlyphClass: 2
Flags: W
LayerCount: 2
Fore
SplineSet
129 -160 m 2,0,-1
 129 -168 l 2,1,2
 129 -196 129 -196 156 -215 c 128,-1,3
 183 -234 183 -234 229 -234 c 0,4,5
 305 -234 305 -234 360 -181 c 128,-1,6
 415 -128 415 -128 505 26 c 1,7,8
 253 433 253 433 200 936 c 1,9,-1
 374 936 l 1,10,11
 374 927 374 927 366.5 906 c 128,-1,12
 359 885 359 885 359 875 c 128,-1,13
 359 865 359 865 360 862 c 0,14,15
 391 649 391 649 442.5 486.5 c 128,-1,16
 494 324 494 324 590 171 c 1,17,18
 855 647 855 647 864 936 c 1,19,-1
 1019 936 l 1,20,21
 1014 834 1014 834 966.5 688.5 c 128,-1,22
 919 543 919 543 846 393 c 0,23,24
 716 122 716 122 577 -106 c 0,25,26
 497 -237 497 -237 413 -296.5 c 128,-1,27
 329 -356 329 -356 225 -356 c 0,28,29
 94 -356 94 -356 23 -276 c 1,30,-1
 120 -139 l 1,31,32
 129 -151 129 -151 129 -160 c 2,0,-1
EndSplineSet
EndChar

StartChar: z
Encoding: 122 122 93
Width: 1126
GlyphClass: 2
Flags: W
LayerCount: 2
Fore
SplineSet
860 123 m 2,0,1
 880 123 880 123 900.5 130 c 128,-1,2
 921 137 921 137 930 137 c 1,3,-1
 914 0 l 1,4,-1
 97 0 l 1,5,-1
 109 100 l 1,6,-1
 797 823 l 1,7,-1
 621 813 l 1,8,-1
 218 813 l 1,9,-1
 233 936 l 1,10,-1
 1001 936 l 1,11,-1
 989 836 l 1,12,-1
 297 118 l 1,13,-1
 465 123 l 1,14,-1
 860 123 l 2,0,1
EndSplineSet
EndChar

StartChar: braceleft
Encoding: 123 123 94
Width: 1126
GlyphClass: 2
Flags: W
LayerCount: 2
Fore
SplineSet
338 282 m 0,0,1
 338 373 338 373 298 409.5 c 128,-1,2
 258 446 258 446 177 446 c 2,3,-1
 136 446 l 1,4,-1
 150 561 l 1,5,-1
 189 561 l 2,6,7
 285 561 285 561 339 613.5 c 128,-1,8
 393 666 393 666 407 780 c 1,9,-1
 421 928 l 1,10,11
 464 1276 464 1276 816 1276 c 2,12,-1
 965 1276 l 1,13,-1
 951 1159 l 1,14,-1
 783 1159 l 2,15,16
 687 1159 687 1159 633.5 1108.5 c 128,-1,17
 580 1058 580 1058 567 950 c 1,18,-1
 554 807 l 1,19,20
 526 580 526 580 338 504 c 1,21,22
 478 455 478 455 478 267 c 0,23,24
 478 222 478 222 473 186 c 2,25,-1
 446 14 l 2,26,27
 442 -9 442 -9 442 -48 c 0,28,29
 442 -147 442 -147 496.5 -185 c 128,-1,30
 551 -223 551 -223 675 -223 c 2,31,-1
 779 -223 l 1,32,-1
 765 -338 l 1,33,-1
 672 -338 l 2,34,35
 477 -338 477 -338 385.5 -279.5 c 128,-1,36
 294 -221 294 -221 294 -70 c 0,37,38
 294 -33 294 -33 300 12 c 1,39,-1
 334 217 l 1,40,41
 338 249 338 249 338 282 c 0,0,1
EndSplineSet
EndChar

StartChar: bar
Encoding: 124 124 95
Width: 1126
GlyphClass: 2
Flags: W
LayerCount: 2
Fore
SplineSet
394 -309 m 1,0,-1
 596 1335 l 1,1,-1
 734 1335 l 1,2,-1
 532 -309 l 1,3,-1
 394 -309 l 1,0,-1
EndSplineSet
EndChar

StartChar: braceright
Encoding: 125 125 96
Width: 1126
GlyphClass: 2
Flags: W
LayerCount: 2
Fore
SplineSet
312 -221 m 2,0,1
 408 -221 408 -221 461.5 -170.5 c 128,-1,2
 515 -120 515 -120 528 -12 c 1,3,-1
 541 131 l 1,4,5
 569 358 569 358 757 434 c 1,6,7
 616 482 616 482 616 671 c 0,8,9
 616 717 616 717 622 752 c 2,10,-1
 649 924 l 2,11,12
 650 933 650 933 653 986 c 1,13,14
 653 1085 653 1085 598.5 1123 c 128,-1,15
 544 1161 544 1161 420 1161 c 2,16,-1
 316 1161 l 1,17,-1
 330 1276 l 1,18,-1
 423 1276 l 2,19,20
 618 1276 618 1276 709 1217.5 c 128,-1,21
 800 1159 800 1159 800 1007 c 0,22,23
 800 962 800 962 795 926 c 2,24,-1
 761 721 l 1,25,26
 756 681 756 681 756 655 c 0,27,28
 756 565 756 565 796.5 528.5 c 128,-1,29
 837 492 837 492 918 492 c 2,30,-1
 959 492 l 1,31,-1
 945 377 l 1,32,-1
 906 377 l 2,33,34
 810 377 810 377 756 324.5 c 128,-1,35
 702 272 702 272 688 158 c 1,36,-1
 674 10 l 1,37,38
 631 -338 631 -338 279 -338 c 2,39,-1
 130 -338 l 1,40,-1
 144 -221 l 1,41,-1
 312 -221 l 2,0,1
EndSplineSet
EndChar

StartChar: asciitilde
Encoding: 126 126 97
Width: 1126
GlyphClass: 2
Flags: W
LayerCount: 2
Fore
SplineSet
547.5 932 m 128,-1,1
 599 909 599 909 631.5 882 c 128,-1,2
 664 855 664 855 705 832 c 128,-1,3
 746 809 746 809 787 809 c 128,-1,4
 828 809 828 809 865.5 832.5 c 128,-1,5
 903 856 903 856 973 920 c 1,6,-1
 1038 825 l 1,7,8
 949 739 949 739 894 704 c 128,-1,9
 839 669 839 669 778 669 c 128,-1,10
 717 669 717 669 662 692 c 128,-1,11
 607 715 607 715 574 742 c 0,12,13
 486 816 486 816 429.5 816 c 128,-1,14
 373 816 373 816 330 794.5 c 128,-1,15
 287 773 287 773 204 711 c 1,16,-1
 126 797 l 1,17,18
 257 905 257 905 310 928 c 0,19,20
 375 955 375 955 435.5 955 c 128,-1,0
 496 955 496 955 547.5 932 c 128,-1,1
EndSplineSet
EndChar

StartChar: Zcaron
Encoding: 142 142 98
Width: 1126
GlyphClass: 2
Flags: W
LayerCount: 2
Fore
SplineSet
597 1358 m 1,0,-1
 380 1524 l 1,1,-1
 458 1601 l 1,2,-1
 668 1472 l 1,3,-1
 902 1601 l 1,4,-1
 960 1524 l 1,5,-1
 709 1358 l 1,6,-1
 597 1358 l 1,0,-1
879 123 m 2,7,8
 899 123 899 123 919.5 130 c 128,-1,9
 940 137 940 137 949 137 c 1,10,-1
 933 0 l 1,11,-1
 47 0 l 1,12,-1
 59 100 l 1,13,-1
 890 1153 l 1,14,-1
 213 1153 l 1,15,-1
 228 1276 l 1,16,-1
 1077 1276 l 1,17,-1
 1065 1176 l 1,18,-1
 240 123 l 1,19,-1
 879 123 l 2,7,8
EndSplineSet
EndChar

StartChar: zcaron
Encoding: 158 158 99
Width: 1126
GlyphClass: 2
Flags: W
LayerCount: 2
Fore
SplineSet
596 1041 m 1,0,-1
 388 1360 l 1,1,-1
 489 1431 l 1,2,-1
 636 1199 l 1,3,-1
 837 1429 l 1,4,-1
 922 1357 l 1,5,-1
 641 1041 l 1,6,-1
 596 1041 l 1,0,-1
860 123 m 2,7,8
 880 123 880 123 900.5 130 c 128,-1,9
 921 137 921 137 930 137 c 1,10,-1
 914 0 l 1,11,-1
 97 0 l 1,12,-1
 109 100 l 1,13,-1
 797 823 l 1,14,-1
 621 813 l 1,15,-1
 218 813 l 1,16,-1
 233 936 l 1,17,-1
 1001 936 l 1,18,-1
 989 836 l 1,19,-1
 297 118 l 1,20,-1
 465 123 l 1,21,-1
 860 123 l 2,7,8
EndSplineSet
EndChar

StartChar: exclamdown
Encoding: 161 161 101
Width: 1126
GlyphClass: 2
Flags: W
LayerCount: 2
Fore
SplineSet
606 1093 m 128,-1,1
 550 1093 550 1093 508 1133 c 128,-1,2
 466 1173 466 1173 466 1229.5 c 128,-1,3
 466 1286 466 1286 503.5 1325.5 c 128,-1,4
 541 1365 541 1365 597 1365 c 128,-1,5
 653 1365 653 1365 695.5 1325 c 128,-1,6
 738 1285 738 1285 738 1228.5 c 128,-1,7
 738 1172 738 1172 700 1132.5 c 128,-1,0
 662 1093 662 1093 606 1093 c 128,-1,1
349 -23 m 1,8,-1
 523 948 l 1,9,-1
 626 948 l 1,10,-1
 558 -23 l 1,11,-1
 349 -23 l 1,8,-1
EndSplineSet
EndChar

StartChar: cent
Encoding: 162 162 102
Width: 1126
GlyphClass: 2
Flags: W
LayerCount: 2
Fore
SplineSet
844 780 m 1,0,-1
 846 800 l 1,1,2
 846 826 846 826 816.5 862 c 128,-1,3
 787 898 787 898 730 918 c 1,4,-1
 546 196 l 1,5,-1
 565 196 l 2,6,7
 723 196 723 196 860 333 c 1,8,-1
 934 233 l 1,9,10
 770 76 770 76 545 76 c 1,11,-1
 516 77 l 1,12,-1
 455 -162 l 1,13,-1
 340 -147 l 1,14,-1
 400 96 l 1,15,16
 277 134 277 134 209.5 235.5 c 128,-1,17
 142 337 142 337 142 488 c 0,18,19
 142 603 142 603 175.5 705 c 128,-1,20
 209 807 209 807 270.5 885 c 128,-1,21
 332 963 332 963 427 1009.5 c 128,-1,22
 522 1056 522 1056 638 1058 c 1,23,-1
 693 1278 l 1,24,-1
 836 1262 l 1,25,26
 833 1242 833 1242 819.5 1230.5 c 128,-1,27
 806 1219 806 1219 803 1206 c 2,28,-1
 762 1046 l 1,29,30
 904 1012 904 1012 981 875 c 1,31,-1
 857 748 l 1,32,33
 844 761 844 761 844 780 c 1,0,-1
296 504 m 0,34,35
 296 406 296 406 331 333.5 c 128,-1,36
 366 261 366 261 433 226 c 1,37,-1
 607 932 l 1,38,39
 471 921 471 921 383.5 804 c 128,-1,40
 296 687 296 687 296 504 c 0,34,35
EndSplineSet
EndChar

StartChar: sterling
Encoding: 163 163 103
Width: 1126
GlyphClass: 2
Flags: W
LayerCount: 2
Fore
SplineSet
852 1070 m 1,0,-1
 854 1084 l 1,1,2
 854 1109 854 1109 810 1134 c 128,-1,3
 766 1159 766 1159 706 1159 c 0,4,5
 595 1159 595 1159 522 1076.5 c 128,-1,6
 449 994 449 994 449 844 c 0,7,8
 449 814 449 814 452 774 c 1,9,-1
 718 774 l 1,10,-1
 703 654 l 1,11,-1
 461 654 l 1,12,13
 470 569 470 569 470 516 c 0,14,15
 470 330 470 330 362 184 c 1,16,17
 394 189 394 189 424.5 189 c 128,-1,18
 455 189 455 189 497 175.5 c 128,-1,19
 539 162 539 162 569.5 146.5 c 128,-1,20
 600 131 600 131 648.5 117.5 c 128,-1,21
 697 104 697 104 751 104 c 0,22,23
 829 104 829 104 903 162 c 1,24,-1
 944 55 l 1,25,26
 835 -23 835 -23 721 -23 c 0,27,28
 669 -23 669 -23 546.5 19 c 128,-1,29
 424 61 424 61 364 61 c 128,-1,30
 304 61 304 61 246 43 c 128,-1,31
 188 25 188 25 106 -16 c 1,32,-1
 67 100 l 1,33,34
 146 136 146 136 195.5 171 c 128,-1,35
 245 206 245 206 273 251 c 128,-1,36
 301 296 301 296 313 340 c 0,37,38
 338 430 338 430 338 512.5 c 128,-1,39
 338 595 338 595 329 654 c 1,40,-1
 152 654 l 1,41,-1
 167 774 l 1,42,-1
 313 774 l 1,43,44
 309 836 309 836 309 856 c 0,45,46
 309 957 309 957 341.5 1038.5 c 128,-1,47
 374 1120 374 1120 430 1171 c 0,48,49
 544 1276 544 1276 708 1276 c 128,-1,50
 872 1276 872 1276 974 1171 c 1,51,-1
 862 1050 l 1,52,53
 852 1061 852 1061 852 1070 c 1,0,-1
EndSplineSet
EndChar

StartChar: currency
Encoding: 164 164 104
Width: 1126
GlyphClass: 2
Flags: W
LayerCount: 2
Fore
SplineSet
257 665 m 0,0,1
 257 790 257 790 333 888 c 1,2,-1
 227 1008 l 1,3,-1
 310 1079 l 1,4,-1
 413 962 l 1,5,6
 499 1019 499 1019 607 1019 c 128,-1,7
 715 1019 715 1019 785 973 c 1,8,-1
 908 1079 l 1,9,-1
 973 1008 l 1,10,-1
 853 903 l 1,11,12
 891 839 891 839 891 756 c 0,13,14
 891 618 891 618 803 517 c 1,15,-1
 899 408 l 1,16,-1
 816 336 l 1,17,-1
 720 446 l 1,18,19
 628 387 628 387 538 387 c 0,20,21
 425 387 425 387 348 453 c 1,22,-1
 218 336 l 1,23,-1
 153 408 l 1,24,-1
 288 529 l 1,25,26
 257 589 257 589 257 665 c 0,0,1
548 499 m 0,27,28
 644 499 644 499 700.5 570.5 c 128,-1,29
 757 642 757 642 757 750 c 0,30,31
 757 820 757 820 718 858 c 128,-1,32
 679 896 679 896 605 896 c 0,33,34
 505 896 505 896 447.5 829 c 128,-1,35
 390 762 390 762 390 665 c 0,36,37
 390 590 390 590 430.5 544.5 c 128,-1,38
 471 499 471 499 548 499 c 0,27,28
EndSplineSet
EndChar

StartChar: yen
Encoding: 165 165 105
Width: 1126
GlyphClass: 2
Flags: W
LayerCount: 2
Fore
SplineSet
167 215 m 1,0,-1
 182 335 l 1,1,-1
 457 335 l 1,2,-1
 468 421 l 1,3,-1
 192 421 l 1,4,-1
 207 541 l 1,5,-1
 467 541 l 1,6,-1
 153 1276 l 1,7,-1
 311 1276 l 1,8,-1
 579 665 l 1,9,-1
 992 1276 l 1,10,-1
 1150 1276 l 1,11,-1
 643 541 l 1,12,-1
 907 541 l 1,13,-1
 892 421 l 1,14,-1
 611 421 l 1,15,-1
 601 335 l 1,16,-1
 882 335 l 1,17,-1
 867 215 l 1,18,-1
 586 215 l 1,19,-1
 560 0 l 1,20,-1
 416 0 l 1,21,-1
 442 215 l 1,22,-1
 167 215 l 1,0,-1
EndSplineSet
EndChar

StartChar: brokenbar
Encoding: 166 166 106
Width: 1126
GlyphClass: 2
Flags: W
LayerCount: 2
Fore
SplineSet
506 604 m 1,0,-1
 596 1335 l 1,1,-1
 734 1335 l 1,2,-1
 644 604 l 1,3,-1
 506 604 l 1,0,-1
394 -309 m 1,4,-1
 481 401 l 1,5,-1
 619 401 l 1,6,-1
 532 -309 l 1,7,-1
 394 -309 l 1,4,-1
EndSplineSet
EndChar

StartChar: section
Encoding: 167 167 107
Width: 1126
GlyphClass: 2
Flags: W
LayerCount: 2
Fore
SplineSet
823 1105 m 1,0,-1
 828 1137 l 1,1,2
 828 1176 828 1176 779.5 1215.5 c 128,-1,3
 731 1255 731 1255 648.5 1255 c 128,-1,4
 566 1255 566 1255 507.5 1204 c 128,-1,5
 449 1153 449 1153 449 1081 c 0,6,7
 449 1035 449 1035 490 993 c 0,8,9
 505 977 505 977 542 956 c 1,10,11
 584 930 584 930 662.5 894 c 128,-1,12
 741 858 741 858 776.5 837.5 c 128,-1,13
 812 817 812 817 846 790 c 1,14,15
 908 738 908 738 908 655 c 0,16,17
 908 506 908 506 776 401 c 1,18,19
 839 343 839 343 839 253 c 128,-1,20
 839 163 839 163 807.5 94 c 128,-1,21
 776 25 776 25 722 -20 c 0,22,23
 611 -111 611 -111 450 -111 c 0,24,25
 223 -111 223 -111 114 63 c 1,26,-1
 238 192 l 1,27,28
 251 187 251 187 251 175 c 128,-1,29
 251 163 251 163 261 141.5 c 128,-1,30
 271 120 271 120 292 92.5 c 128,-1,31
 313 65 313 65 357 45 c 128,-1,32
 401 25 401 25 457 25 c 0,33,34
 554 25 554 25 621 74 c 128,-1,35
 688 123 688 123 688 213 c 0,36,37
 688 263 688 263 652 301 c 1,38,39
 624 329 624 329 546 359 c 0,40,41
 523 368 523 368 468.5 387.5 c 128,-1,42
 414 407 414 407 376.5 424 c 128,-1,43
 339 441 339 441 297 470 c 0,44,45
 213 528 213 528 213 630 c 0,46,47
 213 714 213 714 255.5 767 c 128,-1,48
 298 820 298 820 386 869 c 1,49,50
 291 938 291 938 291 1063 c 128,-1,51
 291 1188 291 1188 398.5 1282 c 128,-1,52
 506 1376 506 1376 663 1376 c 0,53,54
 769 1376 769 1376 847.5 1329.5 c 128,-1,55
 926 1283 926 1283 966 1194 c 1,56,-1
 830 1083 l 1,57,58
 823 1096 823 1096 823 1105 c 1,0,-1
751 617 m 0,59,60
 751 674 751 674 698 710.5 c 128,-1,61
 645 747 645 747 471 824 c 1,62,63
 367 765 367 765 367 663 c 0,64,65
 367 608 367 608 413.5 574 c 128,-1,66
 460 540 460 540 557 506 c 128,-1,67
 654 472 654 472 676 462 c 1,68,69
 751 530 751 530 751 617 c 0,59,60
EndSplineSet
EndChar

StartChar: dieresis
Encoding: 168 168 108
Width: 1126
GlyphClass: 2
Flags: W
LayerCount: 2
Fore
SplineSet
843.5 1175 m 128,-1,1
 808 1141 808 1141 758.5 1141 c 128,-1,2
 709 1141 709 1141 676.5 1172.5 c 128,-1,3
 644 1204 644 1204 644 1254 c 128,-1,4
 644 1304 644 1304 679.5 1340 c 128,-1,5
 715 1376 715 1376 765 1376 c 128,-1,6
 815 1376 815 1376 847 1344.5 c 128,-1,7
 879 1313 879 1313 879 1261 c 128,-1,0
 879 1209 879 1209 843.5 1175 c 128,-1,1
475.5 1175 m 128,-1,9
 440 1141 440 1141 390.5 1141 c 128,-1,10
 341 1141 341 1141 308.5 1172.5 c 128,-1,11
 276 1204 276 1204 276 1254 c 128,-1,12
 276 1304 276 1304 311.5 1340 c 128,-1,13
 347 1376 347 1376 397 1376 c 128,-1,14
 447 1376 447 1376 479 1344.5 c 128,-1,15
 511 1313 511 1313 511 1261 c 128,-1,8
 511 1209 511 1209 475.5 1175 c 128,-1,9
EndSplineSet
EndChar

StartChar: copyright
Encoding: 169 169 109
Width: 1126
GlyphClass: 2
Flags: W
LayerCount: 2
Fore
SplineSet
519 39 m 0,0,1
 379 39 379 39 277.5 99 c 128,-1,2
 176 159 176 159 126 260 c 128,-1,3
 76 361 76 361 76 488.5 c 128,-1,4
 76 616 76 616 121.5 728 c 128,-1,5
 167 840 167 840 244 918 c 128,-1,6
 321 996 321 996 424 1040.5 c 128,-1,7
 527 1085 527 1085 639 1085 c 0,8,9
 833 1085 833 1085 954 963.5 c 128,-1,10
 1075 842 1075 842 1075 637 c 0,11,12
 1075 374 1075 374 920 206.5 c 128,-1,13
 765 39 765 39 519 39 c 0,0,1
534 127 m 0,14,15
 734 127 734 127 860.5 268.5 c 128,-1,16
 987 410 987 410 987 632 c 0,17,18
 987 801 987 801 889.5 900 c 128,-1,19
 792 999 792 999 631 999 c 0,20,21
 538 999 538 999 453.5 962.5 c 128,-1,22
 369 926 369 926 306 861.5 c 128,-1,23
 243 797 243 797 205.5 702 c 128,-1,24
 168 607 168 607 168 497 c 0,25,26
 168 333 168 333 263.5 230 c 128,-1,27
 359 127 359 127 534 127 c 0,14,15
735 659 m 1,28,-1
 737 680 l 1,29,30
 737 723 737 723 700.5 744.5 c 128,-1,31
 664 766 664 766 620.5 766 c 128,-1,32
 577 766 577 766 541 752.5 c 128,-1,33
 505 739 505 739 472.5 712.5 c 128,-1,34
 440 686 440 686 419.5 638 c 128,-1,35
 399 590 399 590 399 528 c 0,36,37
 399 447 399 447 446.5 401.5 c 128,-1,38
 494 356 494 356 569 356 c 0,39,40
 618 356 618 356 662 381 c 128,-1,41
 706 406 706 406 733 449 c 1,42,-1
 816 389 l 1,43,44
 765 324 765 324 693 287 c 128,-1,45
 621 250 621 250 548 250 c 0,46,47
 433 250 433 250 358.5 325.5 c 128,-1,48
 284 401 284 401 284 514 c 128,-1,49
 284 627 284 627 334.5 709 c 128,-1,50
 385 791 385 791 460 829.5 c 128,-1,51
 535 868 535 868 625.5 868 c 128,-1,52
 716 868 716 868 782 816 c 128,-1,53
 848 764 848 764 858 678 c 1,54,-1
 742 634 l 1,55,56
 735 648 735 648 735 659 c 1,28,-1
EndSplineSet
EndChar

StartChar: ordfeminine
Encoding: 170 170 110
Width: 1126
GlyphClass: 2
Flags: W
LayerCount: 2
Fore
SplineSet
456 526 m 0,0,1
 353 526 353 526 292.5 577.5 c 128,-1,2
 232 629 232 629 232 714 c 0,3,4
 232 977 232 977 645 977 c 0,5,6
 670 977 670 977 718 975 c 1,7,8
 722 1017 722 1017 722 1032 c 0,9,10
 722 1102 722 1102 691.5 1132.5 c 128,-1,11
 661 1163 661 1163 595 1163 c 0,12,13
 460 1163 460 1163 387 1075 c 1,14,-1
 328 1159 l 1,15,16
 445 1276 445 1276 616 1276 c 1,17,18
 736 1272 736 1272 796 1218.5 c 128,-1,19
 856 1165 856 1165 856 1053 c 0,20,21
 856 1035 856 1035 852 993 c 1,22,-1
 797 547 l 1,23,-1
 668 547 l 1,24,-1
 679 625 l 1,25,26
 579 526 579 526 456 526 c 0,0,1
485 630 m 0,27,28
 569 630 569 630 634 697.5 c 128,-1,29
 699 765 699 765 711 885 c 1,30,-1
 682 885 l 2,31,32
 510 885 510 885 436.5 849.5 c 128,-1,33
 363 814 363 814 363 722 c 128,-1,34
 363 630 363 630 485 630 c 0,27,28
127 311 m 1,35,-1
 141 422 l 1,36,-1
 856 422 l 1,37,-1
 842 311 l 1,38,-1
 127 311 l 1,35,-1
EndSplineSet
EndChar

StartChar: guillemotleft
Encoding: 171 171 111
Width: 1126
GlyphClass: 2
Flags: W
LayerCount: 2
Fore
SplineSet
561 471 m 1,0,-1
 567 518 l 1,1,-1
 913 819 l 1,2,-1
 982 735 l 1,3,-1
 705 494 l 1,4,-1
 931 207 l 1,5,-1
 839 125 l 1,6,-1
 561 471 l 1,0,-1
469 125 m 1,7,-1
 188 471 l 1,8,-1
 194 518 l 1,9,-1
 542 819 l 1,10,-1
 611 735 l 1,11,-1
 334 494 l 1,12,-1
 560 207 l 1,13,-1
 469 125 l 1,7,-1
EndSplineSet
EndChar

StartChar: logicalnot
Encoding: 172 172 112
Width: 1126
GlyphClass: 2
Flags: W
LayerCount: 2
Fore
SplineSet
156 591 m 1,0,-1
 171 711 l 1,1,-1
 1017 711 l 1,2,-1
 969 322 l 1,3,-1
 829 322 l 1,4,-1
 862 591 l 1,5,-1
 156 591 l 1,0,-1
EndSplineSet
EndChar

StartChar: uni00AD
Encoding: 173 173 113
Width: 1126
GlyphClass: 2
Flags: W
LayerCount: 2
Fore
SplineSet
188 575 m 1,0,-1
 204 713 l 1,1,-1
 942 713 l 1,2,-1
 926 575 l 1,3,-1
 188 575 l 1,0,-1
EndSplineSet
EndChar

StartChar: registered
Encoding: 174 174 114
Width: 1126
GlyphClass: 2
Flags: W
LayerCount: 2
Fore
SplineSet
519 39 m 0,0,1
 379 39 379 39 277.5 99 c 128,-1,2
 176 159 176 159 126 260 c 128,-1,3
 76 361 76 361 76 488.5 c 128,-1,4
 76 616 76 616 121.5 728 c 128,-1,5
 167 840 167 840 244 918 c 128,-1,6
 321 996 321 996 424 1040.5 c 128,-1,7
 527 1085 527 1085 639 1085 c 0,8,9
 833 1085 833 1085 954 963.5 c 128,-1,10
 1075 842 1075 842 1075 637 c 0,11,12
 1075 374 1075 374 920 206.5 c 128,-1,13
 765 39 765 39 519 39 c 0,0,1
534 127 m 0,14,15
 734 127 734 127 860.5 268.5 c 128,-1,16
 987 410 987 410 987 632 c 0,17,18
 987 801 987 801 889.5 900 c 128,-1,19
 792 999 792 999 631 999 c 0,20,21
 538 999 538 999 453.5 962.5 c 128,-1,22
 369 926 369 926 306 861.5 c 128,-1,23
 243 797 243 797 205.5 702 c 128,-1,24
 168 607 168 607 168 497 c 0,25,26
 168 333 168 333 263.5 230 c 128,-1,27
 359 127 359 127 534 127 c 0,14,15
629 870 m 2,28,29
 717 870 717 870 771 832.5 c 128,-1,30
 825 795 825 795 825 728 c 128,-1,31
 825 661 825 661 788.5 608.5 c 128,-1,32
 752 556 752 556 687 539 c 1,33,-1
 787 283 l 1,34,-1
 689 268 l 1,35,-1
 593 524 l 1,36,-1
 458 524 l 1,37,-1
 427 272 l 1,38,-1
 332 272 l 1,39,-1
 406 870 l 1,40,-1
 629 870 l 2,28,29
594 606 m 2,41,42
 657 606 657 606 694.5 632.5 c 128,-1,43
 732 659 732 659 732 709 c 0,44,45
 732 786 732 786 611 786 c 2,46,-1
 491 786 l 1,47,-1
 468 606 l 1,48,-1
 594 606 l 2,41,42
EndSplineSet
EndChar

StartChar: macron
Encoding: 175 175 115
Width: 1126
GlyphClass: 2
Flags: W
LayerCount: 2
Fore
SplineSet
296 1157 m 1,0,-1
 310 1272 l 1,1,-1
 830 1272 l 1,2,-1
 816 1157 l 1,3,-1
 296 1157 l 1,0,-1
EndSplineSet
EndChar

StartChar: degree
Encoding: 176 176 116
Width: 1126
GlyphClass: 2
Flags: W
LayerCount: 2
Fore
SplineSet
517 758 m 0,0,1
 404 758 404 758 337.5 822.5 c 128,-1,2
 271 887 271 887 271 991 c 0,3,4
 271 1125 271 1125 360.5 1217 c 128,-1,5
 450 1309 450 1309 585 1309 c 0,6,7
 698 1309 698 1309 763.5 1243 c 128,-1,8
 829 1177 829 1177 829 1072 c 0,9,10
 829 936 829 936 743 847 c 128,-1,11
 657 758 657 758 517 758 c 0,0,1
531 870 m 0,12,13
 616 870 616 870 661.5 924.5 c 128,-1,14
 707 979 707 979 707 1065 c 0,15,16
 707 1127 707 1127 675 1163.5 c 128,-1,17
 643 1200 643 1200 581 1200 c 0,18,19
 502 1200 502 1200 449.5 1144 c 128,-1,20
 397 1088 397 1088 397 1008 c 0,21,22
 397 946 397 946 432 908 c 128,-1,23
 467 870 467 870 531 870 c 0,12,13
EndSplineSet
EndChar

StartChar: plusminus
Encoding: 177 177 117
Width: 1126
GlyphClass: 2
Flags: W
LayerCount: 2
Fore
SplineSet
455 352 m 1,0,-1
 498 702 l 1,1,-1
 135 702 l 1,2,-1
 150 827 l 1,3,-1
 513 827 l 1,4,-1
 556 1177 l 1,5,-1
 685 1177 l 1,6,-1
 642 827 l 1,7,-1
 992 827 l 1,8,-1
 977 702 l 1,9,-1
 627 702 l 1,10,-1
 584 352 l 1,11,-1
 455 352 l 1,0,-1
55 35 m 1,12,-1
 71 164 l 1,13,-1
 913 164 l 1,14,-1
 897 35 l 1,15,-1
 55 35 l 1,12,-1
EndSplineSet
EndChar

StartChar: twosuperior
Encoding: 178 178 118
Width: 1126
GlyphClass: 2
Flags: W
LayerCount: 2
Fore
SplineSet
737 1090 m 0,0,1
 737 1200 737 1200 597 1200 c 0,2,3
 476 1200 476 1200 406 1114 c 0,4,5
 398 1104 398 1104 397.5 1088.5 c 128,-1,6
 397 1073 397 1073 390 1063 c 1,7,-1
 285 1135 l 1,8,9
 402 1305 402 1305 616 1305 c 0,10,11
 733 1305 733 1305 795 1256.5 c 128,-1,12
 857 1208 857 1208 857 1115 c 0,13,14
 857 1062 857 1062 846 1023.5 c 128,-1,15
 835 985 835 985 797 943.5 c 128,-1,16
 759 902 759 902 735.5 882.5 c 128,-1,17
 712 863 712 863 667 829.5 c 128,-1,18
 622 796 622 796 610.5 788 c 128,-1,19
 599 780 599 780 556 749 c 0,20,21
 463 683 463 683 403 629 c 1,22,-1
 766 629 l 2,23,24
 772 629 772 629 789 638 c 128,-1,25
 806 647 806 647 812 647 c 2,26,-1
 818 647 l 1,27,-1
 802 518 l 1,28,-1
 231 518 l 1,29,-1
 242 608 l 1,30,31
 312 682 312 682 393 748 c 128,-1,32
 474 814 474 814 530.5 853 c 128,-1,33
 587 892 587 892 637 930.5 c 128,-1,34
 687 969 687 969 712 1007 c 128,-1,35
 737 1045 737 1045 737 1090 c 0,0,1
EndSplineSet
EndChar

StartChar: threesuperior
Encoding: 179 179 119
Width: 1126
GlyphClass: 2
Flags: W
LayerCount: 2
Fore
SplineSet
514 629 m 0,0,1
 703 629 703 629 703 768 c 0,2,3
 703 818 703 818 660.5 844.5 c 128,-1,4
 618 871 618 871 539 871 c 0,5,6
 507 871 507 871 479 867 c 1,7,-1
 492 979 l 1,8,9
 511 973 511 973 533 973 c 0,10,11
 632 973 632 973 674 1003.5 c 128,-1,12
 716 1034 716 1034 716 1095 c 0,13,14
 716 1191 716 1191 573 1191 c 0,15,16
 462 1191 462 1191 375 1097 c 1,17,-1
 310 1180 l 1,18,19
 434 1307 434 1307 593 1307 c 0,20,21
 701 1307 701 1307 771 1248.5 c 128,-1,22
 841 1190 841 1190 841 1107 c 0,23,24
 841 967 841 967 703 926 c 1,25,26
 833 887 833 887 833 768.5 c 128,-1,27
 833 650 833 650 739.5 582 c 128,-1,28
 646 514 646 514 510 514 c 0,29,30
 316 514 316 514 218 647 c 1,31,-1
 328 754 l 1,32,33
 332 747 332 747 336 728 c 0,34,35
 347 675 347 675 412 648 c 0,36,37
 457 629 457 629 514 629 c 0,0,1
EndSplineSet
EndChar

StartChar: acute
Encoding: 180 180 120
Width: 1126
GlyphClass: 2
Flags: W
LayerCount: 2
Fore
SplineSet
472 1038 m 1,0,-1
 394 1079 l 1,1,-1
 606 1424 l 1,2,-1
 727 1346 l 1,3,-1
 472 1038 l 1,0,-1
EndSplineSet
EndChar

StartChar: uni00B5
Encoding: 181 181 121
Width: 1126
GlyphClass: 2
Flags: W
LayerCount: 2
Fore
SplineSet
280 300 m 0,0,1
 280 98 280 98 447 98 c 0,2,3
 542 98 542 98 608 168.5 c 128,-1,4
 674 239 674 239 693 393 c 2,5,-1
 760 936 l 1,6,-1
 900 936 l 1,7,-1
 814 238 l 2,8,9
 811 212 811 212 811 192 c 0,10,11
 811 96 811 96 877.5 96 c 128,-1,12
 944 96 944 96 1003 197 c 1,13,-1
 1046 92 l 1,14,15
 956 -20 956 -20 854 -20 c 0,16,17
 786 -20 786 -20 740.5 26 c 128,-1,18
 695 72 695 72 695 137 c 1,19,20
 652 62 652 62 579 21 c 128,-1,21
 506 -20 506 -20 421 -20 c 0,22,23
 267 -20 267 -20 207 110 c 1,24,-1
 149 -331 l 1,25,-1
 17 -331 l 1,26,-1
 150 414 l 1,27,-1
 214 936 l 1,28,-1
 354 936 l 1,29,-1
 286 381 l 2,30,31
 280 336 280 336 280 300 c 0,0,1
EndSplineSet
EndChar

StartChar: paragraph
Encoding: 182 182 122
Width: 1126
GlyphClass: 2
Flags: W
LayerCount: 2
Fore
SplineSet
230 972 m 0,0,1
 230 1155 230 1155 358 1258.5 c 128,-1,2
 486 1362 486 1362 760 1362 c 2,3,-1
 1036 1362 l 1,4,-1
 852 -139 l 1,5,-1
 733 -139 l 1,6,-1
 903 1245 l 1,7,-1
 747 1245 l 1,8,-1
 577 -139 l 1,9,-1
 457 -139 l 1,10,-1
 555 659 l 1,11,12
 406 668 406 668 318 748 c 128,-1,13
 230 828 230 828 230 972 c 0,0,1
EndSplineSet
EndChar

StartChar: periodcentered
Encoding: 183 183 123
Width: 1126
GlyphClass: 2
Flags: W
LayerCount: 2
Fore
SplineSet
642.5 533 m 128,-1,1
 598 492 598 492 539.5 492 c 128,-1,2
 481 492 481 492 441.5 529.5 c 128,-1,3
 402 567 402 567 402 621.5 c 128,-1,4
 402 676 402 676 446 717.5 c 128,-1,5
 490 759 490 759 548.5 759 c 128,-1,6
 607 759 607 759 647 721 c 128,-1,7
 687 683 687 683 687 628.5 c 128,-1,0
 687 574 687 574 642.5 533 c 128,-1,1
EndSplineSet
EndChar

StartChar: cedilla
Encoding: 184 184 124
Width: 1126
GlyphClass: 2
Flags: W
LayerCount: 2
Fore
SplineSet
610 -291 m 0,0,1
 663 -291 663 -291 685.5 -276.5 c 128,-1,2
 708 -262 708 -262 708 -229 c 0,3,4
 708 -178 708 -178 589 -178 c 2,5,-1
 566 -178 l 1,6,-1
 609 0 l 1,7,-1
 699 0 l 1,8,-1
 676 -97 l 1,9,10
 764 -97 764 -97 801 -124 c 128,-1,11
 838 -151 838 -151 838 -206 c 0,12,13
 838 -391 838 -391 612 -391 c 0,14,15
 502 -391 502 -391 406 -330 c 1,16,-1
 454 -237 l 1,17,18
 521 -291 521 -291 610 -291 c 0,0,1
EndSplineSet
EndChar

StartChar: onesuperior
Encoding: 185 185 125
Width: 1126
GlyphClass: 2
Flags: W
LayerCount: 2
Fore
SplineSet
484 518 m 1,0,-1
 560 1133 l 1,1,-1
 355 1081 l 1,2,-1
 330 1145 l 1,3,-1
 621 1296 l 1,4,-1
 711 1296 l 1,5,-1
 615 518 l 1,6,-1
 484 518 l 1,0,-1
EndSplineSet
EndChar

StartChar: ordmasculine
Encoding: 186 186 126
Width: 1126
GlyphClass: 2
Flags: W
LayerCount: 2
Fore
SplineSet
495 524 m 0,0,1
 368 524 368 524 299 600 c 128,-1,2
 230 676 230 676 230 814 c 0,3,4
 230 1024 230 1024 332.5 1149 c 128,-1,5
 435 1274 435 1274 596 1274 c 0,6,7
 722 1274 722 1274 790.5 1197 c 128,-1,8
 859 1120 859 1120 859 979 c 0,9,10
 859 771 859 771 757.5 647.5 c 128,-1,11
 656 524 656 524 495 524 c 0,0,1
512 643 m 0,12,13
 610 643 610 643 672 728 c 128,-1,14
 734 813 734 813 734 958 c 0,15,16
 734 1054 734 1054 693 1106.5 c 128,-1,17
 652 1159 652 1159 577 1159 c 0,18,19
 480 1159 480 1159 417.5 1071 c 128,-1,20
 355 983 355 983 355 837 c 0,21,22
 355 744 355 744 396 693.5 c 128,-1,23
 437 643 437 643 512 643 c 0,12,13
123 311 m 1,24,-1
 137 422 l 1,25,-1
 852 422 l 1,26,-1
 838 311 l 1,27,-1
 123 311 l 1,24,-1
EndSplineSet
EndChar

StartChar: guillemotright
Encoding: 187 187 127
Width: 1126
GlyphClass: 2
Flags: W
LayerCount: 2
Fore
SplineSet
528 207 m 1,0,-1
 824 494 l 1,1,-1
 605 735 l 1,2,-1
 696 819 l 1,3,-1
 970 518 l 1,4,-1
 964 471 l 1,5,-1
 598 125 l 1,6,-1
 528 207 l 1,0,-1
155 207 m 1,7,-1
 453 494 l 1,8,-1
 234 735 l 1,9,-1
 325 819 l 1,10,-1
 599 518 l 1,11,-1
 593 471 l 1,12,-1
 227 125 l 1,13,-1
 155 207 l 1,7,-1
EndSplineSet
EndChar

StartChar: onequarter
Encoding: 188 188 128
Width: 1126
GlyphClass: 2
Flags: W
LayerCount: 2
Fore
SplineSet
71 0 m 1,0,-1
 946 1376 l 1,1,-1
 1073 1376 l 1,2,-1
 192 0 l 1,3,-1
 71 0 l 1,0,-1
226 686 m 1,4,-1
 293 1234 l 1,5,-1
 131 1194 l 1,6,-1
 112 1258 l 1,7,-1
 345 1376 l 1,8,-1
 424 1376 l 1,9,-1
 340 686 l 1,10,-1
 226 686 l 1,4,-1
530 149 m 1,11,-1
 539 219 l 1,12,-1
 894 690 l 1,13,-1
 1000 690 l 1,14,-1
 944 235 l 1,15,-1
 1047 235 l 1,16,-1
 1037 149 l 1,17,-1
 934 149 l 1,18,-1
 916 0 l 1,19,-1
 811 0 l 1,20,-1
 829 149 l 1,21,-1
 530 149 l 1,11,-1
670 235 m 1,22,-1
 839 235 l 1,23,-1
 862 416 l 1,24,-1
 883 530 l 1,25,-1
 807 416 l 1,26,-1
 670 235 l 1,22,-1
EndSplineSet
EndChar

StartChar: onehalf
Encoding: 189 189 129
Width: 1126
GlyphClass: 2
Flags: W
LayerCount: 2
Fore
SplineSet
71 0 m 1,0,-1
 946 1376 l 1,1,-1
 1073 1376 l 1,2,-1
 192 0 l 1,3,-1
 71 0 l 1,0,-1
226 686 m 1,4,-1
 293 1234 l 1,5,-1
 131 1194 l 1,6,-1
 112 1258 l 1,7,-1
 345 1376 l 1,8,-1
 424 1376 l 1,9,-1
 340 686 l 1,10,-1
 226 686 l 1,4,-1
902 532 m 0,11,12
 902 595 902 595 839 595 c 0,13,14
 800 595 800 595 770 583 c 128,-1,15
 740 571 740 571 703 540 c 1,16,-1
 650 609 l 1,17,18
 748 695 748 695 850 695 c 0,19,20
 934 695 934 695 975 656.5 c 128,-1,21
 1016 618 1016 618 1016 556.5 c 128,-1,22
 1016 495 1016 495 983.5 434 c 128,-1,23
 951 373 951 373 910.5 327.5 c 128,-1,24
 870 282 870 282 808.5 214 c 128,-1,25
 747 146 747 146 713 100 c 1,26,-1
 926 100 l 2,27,28
 931 100 931 100 945 107 c 128,-1,29
 959 114 959 114 967 114 c 1,30,-1
 953 0 l 1,31,-1
 570 0 l 1,32,-1
 578 72 l 1,33,34
 664 197 664 197 800 340 c 0,35,36
 842 384 842 384 872 435 c 128,-1,37
 902 486 902 486 902 532 c 0,11,12
EndSplineSet
EndChar

StartChar: threequarters
Encoding: 190 190 130
Width: 1126
GlyphClass: 2
Flags: W
LayerCount: 2
Fore
SplineSet
71 0 m 1,0,-1
 946 1376 l 1,1,-1
 1073 1376 l 1,2,-1
 192 0 l 1,3,-1
 71 0 l 1,0,-1
404 753 m 128,-1,5
 338 687 338 687 217.5 687 c 128,-1,6
 97 687 97 687 18 783 c 1,7,-1
 102 880 l 1,8,9
 116 867 116 867 117 850 c 128,-1,10
 118 833 118 833 127 822 c 0,11,12
 157 785 157 785 225.5 785 c 128,-1,13
 294 785 294 785 325 819.5 c 128,-1,14
 356 854 356 854 356 915 c 0,15,16
 356 1001 356 1001 264 1001 c 2,17,-1
 211 1001 l 1,18,-1
 220 1084 l 1,19,-1
 269 1084 l 2,20,21
 313 1084 313 1084 342 1116.5 c 128,-1,22
 371 1149 371 1149 371 1204 c 0,23,24
 371 1278 371 1278 282 1278 c 0,25,26
 228 1278 228 1278 170 1232 c 1,27,-1
 117 1294 l 1,28,29
 208 1376 208 1376 309 1376 c 0,30,31
 392 1376 392 1376 436.5 1334 c 128,-1,32
 481 1292 481 1292 481 1217 c 0,33,34
 481 1109 481 1109 385 1049 c 1,35,36
 470 1006 470 1006 470 920 c 0,37,4
 470 819 470 819 404 753 c 128,-1,5
530 149 m 1,38,-1
 539 219 l 1,39,-1
 894 690 l 1,40,-1
 1000 690 l 1,41,-1
 944 235 l 1,42,-1
 1047 235 l 1,43,-1
 1037 149 l 1,44,-1
 934 149 l 1,45,-1
 916 0 l 1,46,-1
 811 0 l 1,47,-1
 829 149 l 1,48,-1
 530 149 l 1,38,-1
670 235 m 1,49,-1
 839 235 l 1,50,-1
 862 416 l 1,51,-1
 883 530 l 1,52,-1
 807 416 l 1,53,-1
 670 235 l 1,49,-1
EndSplineSet
EndChar

StartChar: questiondown
Encoding: 191 191 131
Width: 1126
GlyphClass: 2
Flags: W
LayerCount: 2
Fore
SplineSet
609 1083 m 128,-1,1
 553 1083 553 1083 511 1123 c 128,-1,2
 469 1163 469 1163 469 1219.5 c 128,-1,3
 469 1276 469 1276 506.5 1315.5 c 128,-1,4
 544 1355 544 1355 600 1355 c 128,-1,5
 656 1355 656 1355 698.5 1315 c 128,-1,6
 741 1275 741 1275 741 1218.5 c 128,-1,7
 741 1162 741 1162 703 1122.5 c 128,-1,0
 665 1083 665 1083 609 1083 c 128,-1,1
330.5 414.5 m 128,-1,9
 291 339 291 339 291 265.5 c 128,-1,10
 291 192 291 192 331 151 c 128,-1,11
 371 110 371 110 459 110 c 128,-1,12
 547 110 547 110 627 152 c 128,-1,13
 707 194 707 194 788 284 c 1,14,-1
 881 186 l 1,15,16
 803 86 803 86 689.5 29.5 c 128,-1,17
 576 -27 576 -27 453 -27 c 0,18,19
 298 -27 298 -27 213.5 43.5 c 128,-1,20
 129 114 129 114 129 242 c 0,21,22
 129 352 129 352 185 448.5 c 128,-1,23
 241 545 241 545 317.5 616 c 128,-1,24
 394 687 394 687 426.5 728.5 c 128,-1,25
 459 770 459 770 476 819.5 c 128,-1,26
 493 869 493 869 504 956 c 1,27,-1
 647 956 l 1,28,29
 629 810 629 810 589 730.5 c 128,-1,30
 549 651 549 651 444 557 c 0,31,8
 370 490 370 490 330.5 414.5 c 128,-1,9
EndSplineSet
EndChar

StartChar: Agrave
Encoding: 192 192 132
Width: 1126
GlyphClass: 2
Flags: W
LayerCount: 2
Fore
SplineSet
430 1499 m 1,0,-1
 482 1633 l 1,1,-1
 826 1441 l 1,2,-1
 796 1363 l 1,3,-1
 430 1499 l 1,0,-1
-23 0 m 1,4,-1
 610 1298 l 1,5,-1
 682 1298 l 1,6,-1
 995 0 l 1,7,-1
 835 0 l 1,8,-1
 752 373 l 1,9,-1
 300 373 l 1,10,-1
 123 0 l 1,11,-1
 -23 0 l 1,4,-1
358 496 m 1,12,-1
 724 496 l 1,13,-1
 610 1021 l 1,14,-1
 358 496 l 1,12,-1
EndSplineSet
EndChar

StartChar: Aacute
Encoding: 193 193 133
Width: 1126
GlyphClass: 2
Flags: W
LayerCount: 2
Fore
SplineSet
516 1363 m 1,0,-1
 486 1441 l 1,1,-1
 830 1633 l 1,2,-1
 882 1499 l 1,3,-1
 516 1363 l 1,0,-1
-23 0 m 1,4,-1
 610 1298 l 1,5,-1
 682 1298 l 1,6,-1
 995 0 l 1,7,-1
 835 0 l 1,8,-1
 752 373 l 1,9,-1
 300 373 l 1,10,-1
 123 0 l 1,11,-1
 -23 0 l 1,4,-1
358 496 m 1,12,-1
 724 496 l 1,13,-1
 610 1021 l 1,14,-1
 358 496 l 1,12,-1
EndSplineSet
EndChar

StartChar: Acircumflex
Encoding: 194 194 134
Width: 1126
GlyphClass: 2
Flags: W
LayerCount: 2
Fore
SplineSet
419 1363 m 1,0,-1
 361 1435 l 1,1,-1
 612 1601 l 1,2,-1
 724 1601 l 1,3,-1
 941 1435 l 1,4,-1
 863 1363 l 1,5,-1
 653 1492 l 1,6,-1
 419 1363 l 1,0,-1
-23 0 m 1,7,-1
 610 1298 l 1,8,-1
 682 1298 l 1,9,-1
 995 0 l 1,10,-1
 835 0 l 1,11,-1
 752 373 l 1,12,-1
 300 373 l 1,13,-1
 123 0 l 1,14,-1
 -23 0 l 1,7,-1
358 496 m 1,15,-1
 724 496 l 1,16,-1
 610 1021 l 1,17,-1
 358 496 l 1,15,-1
EndSplineSet
EndChar

StartChar: Atilde
Encoding: 195 195 135
Width: 1126
GlyphClass: 2
Flags: W
LayerCount: 2
Fore
SplineSet
462.5 1569.5 m 128,-1,1
 515 1603 515 1603 565.5 1603 c 128,-1,2
 616 1603 616 1603 656 1586 c 128,-1,3
 696 1569 696 1569 720 1548 c 1,4,5
 786 1494 786 1494 836 1494 c 0,6,7
 867 1494 867 1494 888.5 1509 c 128,-1,8
 910 1524 910 1524 953 1575 c 1,9,-1
 1009 1508 l 1,10,11
 954 1424 954 1424 917 1398 c 128,-1,12
 880 1372 880 1372 832.5 1372 c 128,-1,13
 785 1372 785 1372 747.5 1389 c 128,-1,14
 710 1406 710 1406 686 1427 c 128,-1,15
 662 1448 662 1448 629.5 1465 c 128,-1,16
 597 1482 597 1482 563 1482 c 128,-1,17
 529 1482 529 1482 499 1463.5 c 128,-1,18
 469 1445 469 1445 421 1389 c 1,19,-1
 350 1448 l 1,20,0
 410 1536 410 1536 462.5 1569.5 c 128,-1,1
-23 0 m 1,21,-1
 610 1298 l 1,22,-1
 682 1298 l 1,23,-1
 995 0 l 1,24,-1
 835 0 l 1,25,-1
 752 373 l 1,26,-1
 300 373 l 1,27,-1
 123 0 l 1,28,-1
 -23 0 l 1,21,-1
358 496 m 1,29,-1
 724 496 l 1,30,-1
 610 1021 l 1,31,-1
 358 496 l 1,29,-1
EndSplineSet
EndChar

StartChar: Adieresis
Encoding: 196 196 136
Width: 1126
GlyphClass: 2
Flags: W
LayerCount: 2
Fore
SplineSet
920.5 1434 m 128,-1,1
 888 1401 888 1401 841.5 1401 c 128,-1,2
 795 1401 795 1401 765.5 1430 c 128,-1,3
 736 1459 736 1459 736 1506 c 128,-1,4
 736 1553 736 1553 767.5 1586.5 c 128,-1,5
 799 1620 799 1620 845.5 1620 c 128,-1,6
 892 1620 892 1620 922.5 1590.5 c 128,-1,7
 953 1561 953 1561 953 1514 c 128,-1,0
 953 1467 953 1467 920.5 1434 c 128,-1,1
558.5 1434 m 128,-1,9
 526 1401 526 1401 479.5 1401 c 128,-1,10
 433 1401 433 1401 403.5 1430 c 128,-1,11
 374 1459 374 1459 374 1506 c 128,-1,12
 374 1553 374 1553 405.5 1586.5 c 128,-1,13
 437 1620 437 1620 483.5 1620 c 128,-1,14
 530 1620 530 1620 560.5 1590.5 c 128,-1,15
 591 1561 591 1561 591 1514 c 128,-1,8
 591 1467 591 1467 558.5 1434 c 128,-1,9
-23 0 m 1,16,-1
 610 1298 l 1,17,-1
 682 1298 l 1,18,-1
 995 0 l 1,19,-1
 835 0 l 1,20,-1
 752 373 l 1,21,-1
 300 373 l 1,22,-1
 123 0 l 1,23,-1
 -23 0 l 1,16,-1
358 496 m 1,24,-1
 724 496 l 1,25,-1
 610 1021 l 1,26,-1
 358 496 l 1,24,-1
EndSplineSet
EndChar

StartChar: Aring
Encoding: 197 197 137
Width: 1126
GlyphClass: 2
Flags: W
LayerCount: 2
Fore
SplineSet
471 1421 m 0,0,1
 471 1512 471 1512 532 1570 c 128,-1,2
 593 1628 593 1628 674.5 1628 c 128,-1,3
 756 1628 756 1628 803 1585.5 c 128,-1,4
 850 1543 850 1543 850 1469 c 128,-1,5
 850 1395 850 1395 804.5 1341 c 128,-1,6
 759 1287 759 1287 688 1273 c 1,7,-1
 995 0 l 1,8,-1
 835 0 l 1,9,-1
 752 373 l 1,10,-1
 300 373 l 1,11,-1
 123 0 l 1,12,-1
 -23 0 l 1,13,-1
 597 1272 l 1,14,15
 538 1283 538 1283 504.5 1322 c 128,-1,16
 471 1361 471 1361 471 1421 c 0,0,1
597 1377 m 128,-1,18
 618 1356 618 1356 655 1356 c 128,-1,19
 692 1356 692 1356 720 1384.5 c 128,-1,20
 748 1413 748 1413 748 1456.5 c 128,-1,21
 748 1500 748 1500 728 1521 c 128,-1,22
 708 1542 708 1542 671.5 1542 c 128,-1,23
 635 1542 635 1542 605.5 1513 c 128,-1,24
 576 1484 576 1484 576 1441 c 128,-1,17
 576 1398 576 1398 597 1377 c 128,-1,18
358 496 m 1,25,-1
 724 496 l 1,26,-1
 606 1021 l 1,27,-1
 358 496 l 1,25,-1
EndSplineSet
EndChar

StartChar: AE
Encoding: 198 198 138
Width: 1126
GlyphClass: 2
Flags: W
LayerCount: 2
Fore
SplineSet
-9 0 m 1,0,-1
 549 1278 l 1,1,-1
 1130 1278 l 1,2,-1
 1115 1151 l 1,3,-1
 765 1151 l 1,4,-1
 713 731 l 1,5,-1
 1010 731 l 1,6,-1
 994 600 l 1,7,-1
 697 600 l 1,8,-1
 639 127 l 1,9,-1
 985 127 l 1,10,-1
 970 0 l 1,11,-1
 499 0 l 1,12,-1
 541 346 l 1,13,-1
 275 346 l 1,14,-1
 122 0 l 1,15,-1
 -9 0 l 1,0,-1
319 465 m 1,16,-1
 556 465 l 1,17,-1
 640 1151 l 1,18,-1
 618 1151 l 1,19,-1
 319 465 l 1,16,-1
EndSplineSet
EndChar

StartChar: Ccedilla
Encoding: 199 199 139
Width: 1126
GlyphClass: 2
Flags: W
LayerCount: 2
Fore
SplineSet
915 972 m 2,0,-1
 918 1006 l 1,1,2
 918 1058 918 1058 868 1110 c 0,3,4
 844 1135 844 1135 799.5 1151.5 c 128,-1,5
 755 1168 755 1168 699 1168 c 0,6,7
 520 1168 520 1168 398.5 983 c 128,-1,8
 277 798 277 798 277 500 c 0,9,10
 277 311 277 311 354.5 208.5 c 128,-1,11
 432 106 432 106 576 106 c 0,12,13
 756 106 756 106 869 260 c 1,14,-1
 966 188 l 1,15,16
 813 -12 813 -12 577 -20 c 1,17,-1
 559 -97 l 1,18,19
 647 -97 647 -97 684 -124 c 128,-1,20
 721 -151 721 -151 721 -206 c 0,21,22
 721 -391 721 -391 495 -391 c 0,23,24
 385 -391 385 -391 289 -330 c 1,25,-1
 337 -237 l 1,26,27
 404 -291 404 -291 493 -291 c 0,28,29
 546 -291 546 -291 568.5 -276.5 c 128,-1,30
 591 -262 591 -262 591 -229 c 0,31,32
 591 -178 591 -178 472 -178 c 2,33,-1
 449 -178 l 1,34,-1
 488 -16 l 1,35,36
 314 6 314 6 219.5 136.5 c 128,-1,37
 125 267 125 267 125 488 c 0,38,39
 125 671 125 671 170.5 823 c 128,-1,40
 216 975 216 975 295.5 1076.5 c 128,-1,41
 375 1178 375 1178 483.5 1234 c 128,-1,42
 592 1290 592 1290 718 1290 c 0,43,44
 998 1290 998 1290 1084 1026 c 1,45,-1
 919 948 l 1,46,47
 915 961 915 961 915 972 c 2,0,-1
EndSplineSet
EndChar

StartChar: Egrave
Encoding: 200 200 140
Width: 1126
GlyphClass: 2
Flags: W
LayerCount: 2
Fore
SplineSet
449 1499 m 1,0,-1
 501 1633 l 1,1,-1
 845 1441 l 1,2,-1
 815 1363 l 1,3,-1
 449 1499 l 1,0,-1
104 0 m 1,4,-1
 260 1276 l 1,5,-1
 1043 1276 l 1,6,-1
 1028 1153 l 1,7,-1
 389 1153 l 1,8,-1
 337 727 l 1,9,-1
 863 727 l 1,10,-1
 848 604 l 1,11,-1
 322 604 l 1,12,-1
 263 123 l 1,13,-1
 895 123 l 1,14,-1
 880 0 l 1,15,-1
 104 0 l 1,4,-1
EndSplineSet
EndChar

StartChar: Eacute
Encoding: 201 201 141
Width: 1126
GlyphClass: 2
Flags: W
LayerCount: 2
Fore
SplineSet
535 1363 m 1,0,-1
 505 1441 l 1,1,-1
 849 1633 l 1,2,-1
 901 1499 l 1,3,-1
 535 1363 l 1,0,-1
104 0 m 1,4,-1
 260 1276 l 1,5,-1
 1043 1276 l 1,6,-1
 1028 1153 l 1,7,-1
 389 1153 l 1,8,-1
 337 727 l 1,9,-1
 863 727 l 1,10,-1
 848 604 l 1,11,-1
 322 604 l 1,12,-1
 263 123 l 1,13,-1
 895 123 l 1,14,-1
 880 0 l 1,15,-1
 104 0 l 1,4,-1
EndSplineSet
EndChar

StartChar: Ecircumflex
Encoding: 202 202 142
Width: 1126
GlyphClass: 2
Flags: W
LayerCount: 2
Fore
SplineSet
438 1363 m 1,0,-1
 380 1435 l 1,1,-1
 631 1601 l 1,2,-1
 743 1601 l 1,3,-1
 960 1435 l 1,4,-1
 882 1363 l 1,5,-1
 672 1492 l 1,6,-1
 438 1363 l 1,0,-1
104 0 m 1,7,-1
 260 1276 l 1,8,-1
 1043 1276 l 1,9,-1
 1028 1153 l 1,10,-1
 389 1153 l 1,11,-1
 337 727 l 1,12,-1
 863 727 l 1,13,-1
 848 604 l 1,14,-1
 322 604 l 1,15,-1
 263 123 l 1,16,-1
 895 123 l 1,17,-1
 880 0 l 1,18,-1
 104 0 l 1,7,-1
EndSplineSet
EndChar

StartChar: Edieresis
Encoding: 203 203 143
Width: 1126
GlyphClass: 2
Flags: W
LayerCount: 2
Fore
SplineSet
939.5 1434 m 128,-1,1
 907 1401 907 1401 860.5 1401 c 128,-1,2
 814 1401 814 1401 784.5 1430 c 128,-1,3
 755 1459 755 1459 755 1506 c 128,-1,4
 755 1553 755 1553 786.5 1586.5 c 128,-1,5
 818 1620 818 1620 864.5 1620 c 128,-1,6
 911 1620 911 1620 941.5 1590.5 c 128,-1,7
 972 1561 972 1561 972 1514 c 128,-1,0
 972 1467 972 1467 939.5 1434 c 128,-1,1
577.5 1434 m 128,-1,9
 545 1401 545 1401 498.5 1401 c 128,-1,10
 452 1401 452 1401 422.5 1430 c 128,-1,11
 393 1459 393 1459 393 1506 c 128,-1,12
 393 1553 393 1553 424.5 1586.5 c 128,-1,13
 456 1620 456 1620 502.5 1620 c 128,-1,14
 549 1620 549 1620 579.5 1590.5 c 128,-1,15
 610 1561 610 1561 610 1514 c 128,-1,8
 610 1467 610 1467 577.5 1434 c 128,-1,9
104 0 m 1,16,-1
 260 1276 l 1,17,-1
 1043 1276 l 1,18,-1
 1028 1153 l 1,19,-1
 389 1153 l 1,20,-1
 337 727 l 1,21,-1
 863 727 l 1,22,-1
 848 604 l 1,23,-1
 322 604 l 1,24,-1
 263 123 l 1,25,-1
 895 123 l 1,26,-1
 880 0 l 1,27,-1
 104 0 l 1,16,-1
EndSplineSet
EndChar

StartChar: Igrave
Encoding: 204 204 144
Width: 1126
GlyphClass: 2
Flags: W
LayerCount: 2
Fore
SplineSet
423 1499 m 1,0,-1
 475 1633 l 1,1,-1
 819 1441 l 1,2,-1
 789 1363 l 1,3,-1
 423 1499 l 1,0,-1
135 0 m 1,4,-1
 150 125 l 1,5,-1
 422 125 l 1,6,-1
 548 1153 l 1,7,-1
 290 1153 l 1,8,-1
 305 1276 l 1,9,-1
 979 1276 l 1,10,-1
 964 1153 l 1,11,-1
 692 1153 l 1,12,-1
 566 123 l 1,13,-1
 850 123 l 1,14,-1
 835 0 l 1,15,-1
 135 0 l 1,4,-1
EndSplineSet
EndChar

StartChar: Iacute
Encoding: 205 205 145
Width: 1126
GlyphClass: 2
Flags: W
LayerCount: 2
Fore
SplineSet
509 1363 m 1,0,-1
 479 1441 l 1,1,-1
 823 1633 l 1,2,-1
 875 1499 l 1,3,-1
 509 1363 l 1,0,-1
135 0 m 1,4,-1
 150 125 l 1,5,-1
 422 125 l 1,6,-1
 548 1153 l 1,7,-1
 290 1153 l 1,8,-1
 305 1276 l 1,9,-1
 979 1276 l 1,10,-1
 964 1153 l 1,11,-1
 692 1153 l 1,12,-1
 566 123 l 1,13,-1
 850 123 l 1,14,-1
 835 0 l 1,15,-1
 135 0 l 1,4,-1
EndSplineSet
EndChar

StartChar: Icircumflex
Encoding: 206 206 146
Width: 1126
GlyphClass: 2
Flags: W
LayerCount: 2
Fore
SplineSet
412 1363 m 1,0,-1
 354 1435 l 1,1,-1
 605 1601 l 1,2,-1
 717 1601 l 1,3,-1
 934 1435 l 1,4,-1
 856 1363 l 1,5,-1
 646 1492 l 1,6,-1
 412 1363 l 1,0,-1
135 0 m 1,7,-1
 150 125 l 1,8,-1
 422 125 l 1,9,-1
 548 1153 l 1,10,-1
 290 1153 l 1,11,-1
 305 1276 l 1,12,-1
 979 1276 l 1,13,-1
 964 1153 l 1,14,-1
 692 1153 l 1,15,-1
 566 123 l 1,16,-1
 850 123 l 1,17,-1
 835 0 l 1,18,-1
 135 0 l 1,7,-1
EndSplineSet
EndChar

StartChar: Idieresis
Encoding: 207 207 147
Width: 1126
GlyphClass: 2
Flags: W
LayerCount: 2
Fore
SplineSet
913.5 1434 m 128,-1,1
 881 1401 881 1401 834.5 1401 c 128,-1,2
 788 1401 788 1401 758.5 1430 c 128,-1,3
 729 1459 729 1459 729 1506 c 128,-1,4
 729 1553 729 1553 760.5 1586.5 c 128,-1,5
 792 1620 792 1620 838.5 1620 c 128,-1,6
 885 1620 885 1620 915.5 1590.5 c 128,-1,7
 946 1561 946 1561 946 1514 c 128,-1,0
 946 1467 946 1467 913.5 1434 c 128,-1,1
551.5 1434 m 128,-1,9
 519 1401 519 1401 472.5 1401 c 128,-1,10
 426 1401 426 1401 396.5 1430 c 128,-1,11
 367 1459 367 1459 367 1506 c 128,-1,12
 367 1553 367 1553 398.5 1586.5 c 128,-1,13
 430 1620 430 1620 476.5 1620 c 128,-1,14
 523 1620 523 1620 553.5 1590.5 c 128,-1,15
 584 1561 584 1561 584 1514 c 128,-1,8
 584 1467 584 1467 551.5 1434 c 128,-1,9
135 0 m 1,16,-1
 150 125 l 1,17,-1
 422 125 l 1,18,-1
 548 1153 l 1,19,-1
 290 1153 l 1,20,-1
 305 1276 l 1,21,-1
 979 1276 l 1,22,-1
 964 1153 l 1,23,-1
 692 1153 l 1,24,-1
 566 123 l 1,25,-1
 850 123 l 1,26,-1
 835 0 l 1,27,-1
 135 0 l 1,16,-1
EndSplineSet
EndChar

StartChar: Eth
Encoding: 208 208 148
Width: 1126
GlyphClass: 2
Flags: W
LayerCount: 2
Fore
SplineSet
551 1276 m 2,0,1
 708 1276 708 1276 796.5 1233.5 c 128,-1,2
 885 1191 885 1191 941 1102 c 0,3,4
 1019 976 1019 976 1019 776 c 0,5,6
 1019 773 1019 773 1019 769 c 0,7,8
 1019 582 1019 582 964 429 c 128,-1,9
 909 276 909 276 812 168 c 0,10,11
 659 -2 659 -2 370 -2 c 2,12,-1
 96 -2 l 1,13,-1
 171 611 l 1,14,-1
 40 611 l 1,15,-1
 54 730 l 1,16,-1
 185 730 l 1,17,-1
 252 1276 l 1,18,-1
 551 1276 l 2,0,1
379 121 m 2,19,20
 621 121 621 121 746 284 c 128,-1,21
 871 447 871 447 871 762 c 0,22,23
 871 954 871 954 788 1053.5 c 128,-1,24
 705 1153 705 1153 527 1153 c 2,25,-1
 380 1153 l 1,26,-1
 328 730 l 1,27,-1
 640 730 l 1,28,-1
 626 611 l 1,29,-1
 314 611 l 1,30,-1
 254 121 l 1,31,-1
 379 121 l 2,19,20
EndSplineSet
EndChar

StartChar: Ntilde
Encoding: 209 209 149
Width: 1126
GlyphClass: 2
Flags: W
LayerCount: 2
Fore
SplineSet
459.5 1569.5 m 128,-1,1
 512 1603 512 1603 562.5 1603 c 128,-1,2
 613 1603 613 1603 653 1586 c 128,-1,3
 693 1569 693 1569 718 1548 c 0,4,5
 783 1494 783 1494 833 1494 c 0,6,7
 864 1494 864 1494 885.5 1509 c 128,-1,8
 907 1524 907 1524 950 1575 c 1,9,-1
 1006 1508 l 1,10,11
 951 1424 951 1424 914 1398 c 128,-1,12
 877 1372 877 1372 829.5 1372 c 128,-1,13
 782 1372 782 1372 744.5 1389 c 128,-1,14
 707 1406 707 1406 683 1427 c 128,-1,15
 659 1448 659 1448 626.5 1465 c 128,-1,16
 594 1482 594 1482 560 1482 c 128,-1,17
 526 1482 526 1482 496 1463.5 c 128,-1,18
 466 1445 466 1445 418 1389 c 1,19,-1
 347 1448 l 1,20,0
 407 1536 407 1536 459.5 1569.5 c 128,-1,1
61 0 m 1,21,-1
 217 1276 l 1,22,-1
 383 1276 l 1,23,-1
 807 270 l 1,24,-1
 831 547 l 1,25,-1
 920 1276 l 1,26,-1
 1078 1276 l 1,27,28
 1077 1266 1077 1266 1068 1246.5 c 128,-1,29
 1059 1227 1059 1227 1056 1206 c 2,30,-1
 908 0 l 1,31,-1
 778 0 l 1,32,-1
 444 780 l 1,33,-1
 325 1064 l 1,34,-1
 300 776 l 1,35,-1
 205 0 l 1,36,-1
 61 0 l 1,21,-1
EndSplineSet
EndChar

StartChar: Ograve
Encoding: 210 210 150
Width: 1126
GlyphClass: 2
Flags: W
LayerCount: 2
Fore
SplineSet
443 1499 m 1,0,-1
 495 1633 l 1,1,-1
 839 1441 l 1,2,-1
 809 1363 l 1,3,-1
 443 1499 l 1,0,-1
493 -20 m 0,4,5
 294 -20 294 -20 185 115 c 128,-1,6
 76 250 76 250 76 496 c 0,7,8
 76 862 76 862 236.5 1076 c 128,-1,9
 397 1290 397 1290 653 1290 c 0,10,11
 854 1290 854 1290 964 1159 c 128,-1,12
 1074 1028 1074 1028 1074 789 c 0,13,14
 1074 722 1074 722 1065 649 c 0,15,16
 1026 333 1026 333 874 156.5 c 128,-1,17
 722 -20 722 -20 493 -20 c 0,4,5
507 99 m 0,18,19
 687 99 687 99 805.5 281.5 c 128,-1,20
 924 464 924 464 924 774 c 0,21,22
 924 963 924 963 850 1066.5 c 128,-1,23
 776 1170 776 1170 639 1170 c 0,24,25
 458 1170 458 1170 340 986.5 c 128,-1,26
 222 803 222 803 222 496 c 0,27,28
 222 303 222 303 295.5 201 c 128,-1,29
 369 99 369 99 507 99 c 0,18,19
EndSplineSet
EndChar

StartChar: Oacute
Encoding: 211 211 151
Width: 1126
GlyphClass: 2
Flags: W
LayerCount: 2
Fore
SplineSet
529 1363 m 1,0,-1
 499 1441 l 1,1,-1
 843 1633 l 1,2,-1
 895 1499 l 1,3,-1
 529 1363 l 1,0,-1
493 -20 m 0,4,5
 294 -20 294 -20 185 115 c 128,-1,6
 76 250 76 250 76 496 c 0,7,8
 76 862 76 862 236.5 1076 c 128,-1,9
 397 1290 397 1290 653 1290 c 0,10,11
 854 1290 854 1290 964 1159 c 128,-1,12
 1074 1028 1074 1028 1074 789 c 0,13,14
 1074 722 1074 722 1065 649 c 0,15,16
 1026 333 1026 333 874 156.5 c 128,-1,17
 722 -20 722 -20 493 -20 c 0,4,5
507 99 m 0,18,19
 687 99 687 99 805.5 281.5 c 128,-1,20
 924 464 924 464 924 774 c 0,21,22
 924 963 924 963 850 1066.5 c 128,-1,23
 776 1170 776 1170 639 1170 c 0,24,25
 458 1170 458 1170 340 986.5 c 128,-1,26
 222 803 222 803 222 496 c 0,27,28
 222 303 222 303 295.5 201 c 128,-1,29
 369 99 369 99 507 99 c 0,18,19
EndSplineSet
EndChar

StartChar: Ocircumflex
Encoding: 212 212 152
Width: 1126
GlyphClass: 2
Flags: W
LayerCount: 2
Fore
SplineSet
432 1363 m 1,0,-1
 374 1435 l 1,1,-1
 625 1601 l 1,2,-1
 737 1601 l 1,3,-1
 954 1435 l 1,4,-1
 876 1363 l 1,5,-1
 666 1492 l 1,6,-1
 432 1363 l 1,0,-1
493 -20 m 0,7,8
 294 -20 294 -20 185 115 c 128,-1,9
 76 250 76 250 76 496 c 0,10,11
 76 862 76 862 236.5 1076 c 128,-1,12
 397 1290 397 1290 653 1290 c 0,13,14
 854 1290 854 1290 964 1159 c 128,-1,15
 1074 1028 1074 1028 1074 789 c 0,16,17
 1074 722 1074 722 1065 649 c 0,18,19
 1026 333 1026 333 874 156.5 c 128,-1,20
 722 -20 722 -20 493 -20 c 0,7,8
507 99 m 0,21,22
 687 99 687 99 805.5 281.5 c 128,-1,23
 924 464 924 464 924 774 c 0,24,25
 924 963 924 963 850 1066.5 c 128,-1,26
 776 1170 776 1170 639 1170 c 0,27,28
 458 1170 458 1170 340 986.5 c 128,-1,29
 222 803 222 803 222 496 c 0,30,31
 222 303 222 303 295.5 201 c 128,-1,32
 369 99 369 99 507 99 c 0,21,22
EndSplineSet
EndChar

StartChar: Otilde
Encoding: 213 213 153
Width: 1126
GlyphClass: 2
Flags: W
LayerCount: 2
Fore
SplineSet
475.5 1569.5 m 128,-1,1
 528 1603 528 1603 578.5 1603 c 128,-1,2
 629 1603 629 1603 669 1586 c 128,-1,3
 709 1569 709 1569 734 1548 c 0,4,5
 799 1494 799 1494 849 1494 c 0,6,7
 880 1494 880 1494 901.5 1509 c 128,-1,8
 923 1524 923 1524 966 1575 c 1,9,-1
 1022 1508 l 1,10,11
 967 1424 967 1424 930 1398 c 128,-1,12
 893 1372 893 1372 845.5 1372 c 128,-1,13
 798 1372 798 1372 760.5 1389 c 128,-1,14
 723 1406 723 1406 699 1427 c 128,-1,15
 675 1448 675 1448 642.5 1465 c 128,-1,16
 610 1482 610 1482 576 1482 c 128,-1,17
 542 1482 542 1482 512 1463.5 c 128,-1,18
 482 1445 482 1445 434 1389 c 1,19,-1
 363 1448 l 1,20,0
 423 1536 423 1536 475.5 1569.5 c 128,-1,1
493 -20 m 0,21,22
 294 -20 294 -20 185 115 c 128,-1,23
 76 250 76 250 76 496 c 0,24,25
 76 862 76 862 236.5 1076 c 128,-1,26
 397 1290 397 1290 653 1290 c 0,27,28
 854 1290 854 1290 964 1159 c 128,-1,29
 1074 1028 1074 1028 1074 789 c 0,30,31
 1074 722 1074 722 1065 649 c 0,32,33
 1026 333 1026 333 874 156.5 c 128,-1,34
 722 -20 722 -20 493 -20 c 0,21,22
507 99 m 0,35,36
 687 99 687 99 805.5 281.5 c 128,-1,37
 924 464 924 464 924 774 c 0,38,39
 924 963 924 963 850 1066.5 c 128,-1,40
 776 1170 776 1170 639 1170 c 0,41,42
 458 1170 458 1170 340 986.5 c 128,-1,43
 222 803 222 803 222 496 c 0,44,45
 222 303 222 303 295.5 201 c 128,-1,46
 369 99 369 99 507 99 c 0,35,36
EndSplineSet
EndChar

StartChar: Odieresis
Encoding: 214 214 154
Width: 1126
GlyphClass: 2
Flags: W
LayerCount: 2
Fore
SplineSet
933.5 1434 m 128,-1,1
 901 1401 901 1401 854.5 1401 c 128,-1,2
 808 1401 808 1401 778.5 1430 c 128,-1,3
 749 1459 749 1459 749 1506 c 128,-1,4
 749 1553 749 1553 780.5 1586.5 c 128,-1,5
 812 1620 812 1620 858.5 1620 c 128,-1,6
 905 1620 905 1620 935.5 1590.5 c 128,-1,7
 966 1561 966 1561 966 1514 c 128,-1,0
 966 1467 966 1467 933.5 1434 c 128,-1,1
571.5 1434 m 128,-1,9
 539 1401 539 1401 492.5 1401 c 128,-1,10
 446 1401 446 1401 416.5 1430 c 128,-1,11
 387 1459 387 1459 387 1506 c 128,-1,12
 387 1553 387 1553 418.5 1586.5 c 128,-1,13
 450 1620 450 1620 496.5 1620 c 128,-1,14
 543 1620 543 1620 573.5 1590.5 c 128,-1,15
 604 1561 604 1561 604 1514 c 128,-1,8
 604 1467 604 1467 571.5 1434 c 128,-1,9
493 -20 m 0,16,17
 294 -20 294 -20 185 115 c 128,-1,18
 76 250 76 250 76 496 c 0,19,20
 76 862 76 862 236.5 1076 c 128,-1,21
 397 1290 397 1290 653 1290 c 0,22,23
 854 1290 854 1290 964 1159 c 128,-1,24
 1074 1028 1074 1028 1074 789 c 0,25,26
 1074 722 1074 722 1065 649 c 0,27,28
 1026 333 1026 333 874 156.5 c 128,-1,29
 722 -20 722 -20 493 -20 c 0,16,17
507 99 m 0,30,31
 687 99 687 99 805.5 281.5 c 128,-1,32
 924 464 924 464 924 774 c 0,33,34
 924 963 924 963 850 1066.5 c 128,-1,35
 776 1170 776 1170 639 1170 c 0,36,37
 458 1170 458 1170 340 986.5 c 128,-1,38
 222 803 222 803 222 496 c 0,39,40
 222 303 222 303 295.5 201 c 128,-1,41
 369 99 369 99 507 99 c 0,30,31
EndSplineSet
EndChar

StartChar: multiply
Encoding: 215 215 155
Width: 1126
GlyphClass: 2
Flags: W
LayerCount: 2
Fore
SplineSet
271 305 m 1,0,-1
 192 395 l 1,1,-1
 483 664 l 1,2,-1
 258 936 l 1,3,-1
 366 1030 l 1,4,-1
 587 762 l 1,5,-1
 878 1030 l 1,6,-1
 966 940 l 1,7,-1
 665 666 l 1,8,-1
 892 391 l 1,9,-1
 786 297 l 1,10,-1
 559 569 l 1,11,-1
 271 305 l 1,0,-1
EndSplineSet
EndChar

StartChar: Oslash
Encoding: 216 216 156
Width: 1126
GlyphClass: 2
Flags: W
LayerCount: 2
Fore
SplineSet
76 495 m 0,0,1
 76 678 76 678 119 828.5 c 128,-1,2
 162 979 162 979 238.5 1079.5 c 128,-1,3
 315 1180 315 1180 421.5 1235 c 128,-1,4
 528 1290 528 1290 657 1290 c 128,-1,5
 786 1290 786 1290 880 1231 c 1,6,-1
 971 1375 l 1,7,-1
 1060 1315 l 1,8,-1
 962 1161 l 1,9,10
 1074 1029 1074 1029 1074 789 c 0,11,12
 1074 722 1074 722 1065 649 c 0,13,14
 1026 333 1026 333 874 156.5 c 128,-1,15
 722 -20 722 -20 493 -20 c 0,16,17
 351 -20 351 -20 254 50 c 1,18,-1
 144 -122 l 1,19,-1
 58 -66 l 1,20,-1
 178 124 l 1,21,22
 76 256 76 256 76 495 c 0,0,1
639 1170 m 0,23,24
 458 1170 458 1170 339.5 986 c 128,-1,25
 221 802 221 802 221 494 c 0,26,27
 221 356 221 356 263 258 c 1,28,-1
 806 1114 l 1,29,30
 739 1170 739 1170 639 1170 c 0,23,24
502 99 m 0,31,32
 685 99 685 99 804.5 280 c 128,-1,33
 924 461 924 461 924 775 c 0,34,35
 924 925 924 925 875 1025 c 1,36,-1
 327 165 l 1,37,38
 395 99 395 99 502 99 c 0,31,32
EndSplineSet
EndChar

StartChar: Ugrave
Encoding: 217 217 157
Width: 1126
GlyphClass: 2
Flags: W
LayerCount: 2
Fore
SplineSet
438 1499 m 1,0,-1
 490 1633 l 1,1,-1
 834 1441 l 1,2,-1
 804 1363 l 1,3,-1
 438 1499 l 1,0,-1
242 358 m 0,4,5
 242 230 242 230 306 171.5 c 128,-1,6
 370 113 370 113 505.5 113 c 128,-1,7
 641 113 641 113 727 189.5 c 128,-1,8
 813 266 813 266 835 440 c 2,9,-1
 938 1276 l 1,10,-1
 1081 1276 l 1,11,-1
 979 449 l 2,12,13
 950 215 950 215 820 96 c 128,-1,14
 690 -23 690 -23 479 -23 c 0,15,16
 300 -23 300 -23 199 67 c 128,-1,17
 98 157 98 157 98 345 c 0,18,19
 98 391 98 391 104 442 c 2,20,-1
 206 1276 l 1,21,-1
 364 1276 l 1,22,23
 363 1266 363 1266 354 1246.5 c 128,-1,24
 345 1227 345 1227 342 1206 c 2,25,-1
 247 434 l 2,26,27
 242 389 242 389 242 358 c 0,4,5
EndSplineSet
EndChar

StartChar: Uacute
Encoding: 218 218 158
Width: 1126
GlyphClass: 2
Flags: W
LayerCount: 2
Fore
SplineSet
524 1363 m 1,0,-1
 494 1441 l 1,1,-1
 838 1633 l 1,2,-1
 890 1499 l 1,3,-1
 524 1363 l 1,0,-1
242 358 m 0,4,5
 242 230 242 230 306 171.5 c 128,-1,6
 370 113 370 113 505.5 113 c 128,-1,7
 641 113 641 113 727 189.5 c 128,-1,8
 813 266 813 266 835 440 c 2,9,-1
 938 1276 l 1,10,-1
 1081 1276 l 1,11,-1
 979 449 l 2,12,13
 950 215 950 215 820 96 c 128,-1,14
 690 -23 690 -23 479 -23 c 0,15,16
 300 -23 300 -23 199 67 c 128,-1,17
 98 157 98 157 98 345 c 0,18,19
 98 391 98 391 104 442 c 2,20,-1
 206 1276 l 1,21,-1
 364 1276 l 1,22,23
 363 1266 363 1266 354 1246.5 c 128,-1,24
 345 1227 345 1227 342 1206 c 2,25,-1
 247 434 l 2,26,27
 242 389 242 389 242 358 c 0,4,5
EndSplineSet
EndChar

StartChar: Ucircumflex
Encoding: 219 219 159
Width: 1126
GlyphClass: 2
Flags: W
LayerCount: 2
Fore
SplineSet
427 1363 m 1,0,-1
 369 1435 l 1,1,-1
 620 1601 l 1,2,-1
 732 1601 l 1,3,-1
 949 1435 l 1,4,-1
 871 1363 l 1,5,-1
 661 1492 l 1,6,-1
 427 1363 l 1,0,-1
242 358 m 0,7,8
 242 230 242 230 306 171.5 c 128,-1,9
 370 113 370 113 505.5 113 c 128,-1,10
 641 113 641 113 727 189.5 c 128,-1,11
 813 266 813 266 835 440 c 2,12,-1
 938 1276 l 1,13,-1
 1081 1276 l 1,14,-1
 979 449 l 2,15,16
 950 215 950 215 820 96 c 128,-1,17
 690 -23 690 -23 479 -23 c 0,18,19
 300 -23 300 -23 199 67 c 128,-1,20
 98 157 98 157 98 345 c 0,21,22
 98 391 98 391 104 442 c 2,23,-1
 206 1276 l 1,24,-1
 364 1276 l 1,25,26
 363 1266 363 1266 354 1246.5 c 128,-1,27
 345 1227 345 1227 342 1206 c 2,28,-1
 247 434 l 2,29,30
 242 389 242 389 242 358 c 0,7,8
EndSplineSet
EndChar

StartChar: Udieresis
Encoding: 220 220 160
Width: 1126
GlyphClass: 2
Flags: W
LayerCount: 2
Fore
SplineSet
928.5 1434 m 128,-1,1
 896 1401 896 1401 849.5 1401 c 128,-1,2
 803 1401 803 1401 773.5 1430 c 128,-1,3
 744 1459 744 1459 744 1506 c 128,-1,4
 744 1553 744 1553 775.5 1586.5 c 128,-1,5
 807 1620 807 1620 853.5 1620 c 128,-1,6
 900 1620 900 1620 930.5 1590.5 c 128,-1,7
 961 1561 961 1561 961 1514 c 128,-1,0
 961 1467 961 1467 928.5 1434 c 128,-1,1
566.5 1434 m 128,-1,9
 534 1401 534 1401 487.5 1401 c 128,-1,10
 441 1401 441 1401 411.5 1430 c 128,-1,11
 382 1459 382 1459 382 1506 c 128,-1,12
 382 1553 382 1553 413.5 1586.5 c 128,-1,13
 445 1620 445 1620 491.5 1620 c 128,-1,14
 538 1620 538 1620 568.5 1590.5 c 128,-1,15
 599 1561 599 1561 599 1514 c 128,-1,8
 599 1467 599 1467 566.5 1434 c 128,-1,9
242 358 m 0,16,17
 242 230 242 230 306 171.5 c 128,-1,18
 370 113 370 113 505.5 113 c 128,-1,19
 641 113 641 113 727 189.5 c 128,-1,20
 813 266 813 266 835 440 c 2,21,-1
 938 1276 l 1,22,-1
 1081 1276 l 1,23,-1
 979 449 l 2,24,25
 950 215 950 215 820 96 c 128,-1,26
 690 -23 690 -23 479 -23 c 0,27,28
 300 -23 300 -23 199 67 c 128,-1,29
 98 157 98 157 98 345 c 0,30,31
 98 391 98 391 104 442 c 2,32,-1
 206 1276 l 1,33,-1
 364 1276 l 1,34,35
 363 1266 363 1266 354 1246.5 c 128,-1,36
 345 1227 345 1227 342 1206 c 2,37,-1
 247 434 l 2,38,39
 242 389 242 389 242 358 c 0,16,17
EndSplineSet
EndChar

StartChar: Yacute
Encoding: 221 221 161
Width: 1126
GlyphClass: 2
Flags: W
LayerCount: 2
Fore
SplineSet
526 1363 m 1,0,-1
 496 1441 l 1,1,-1
 840 1633 l 1,2,-1
 892 1499 l 1,3,-1
 526 1363 l 1,0,-1
416 0 m 1,4,-1
 479 512 l 1,5,-1
 153 1276 l 1,6,-1
 311 1276 l 1,7,-1
 579 665 l 1,8,-1
 992 1276 l 1,9,-1
 1150 1276 l 1,10,-1
 622 511 l 1,11,-1
 560 0 l 1,12,-1
 416 0 l 1,4,-1
EndSplineSet
EndChar

StartChar: Thorn
Encoding: 222 222 162
Width: 1126
GlyphClass: 2
Flags: W
LayerCount: 2
Fore
SplineSet
410 1276 m 1,0,1
 414 1272 414 1272 414 1269.5 c 128,-1,2
 414 1267 414 1267 402 1249.5 c 128,-1,3
 390 1232 390 1232 386 1219 c 1,4,-1
 364 1036 l 1,5,-1
 630 1036 l 2,6,7
 813 1036 813 1036 902.5 954.5 c 128,-1,8
 992 873 992 873 992 727 c 0,9,10
 992 537 992 537 881 430.5 c 128,-1,11
 770 324 770 324 553 324 c 2,12,-1
 276 324 l 1,13,-1
 237 0 l 1,14,-1
 94 0 l 1,15,-1
 250 1276 l 1,16,-1
 410 1276 l 1,0,1
569 449 m 2,17,18
 706 449 706 449 774.5 523 c 128,-1,19
 843 597 843 597 843 714 c 0,20,21
 843 901 843 901 609 901 c 2,22,-1
 347 901 l 1,23,-1
 292 449 l 1,24,-1
 569 449 l 2,17,18
EndSplineSet
EndChar

StartChar: germandbls
Encoding: 223 223 163
Width: 1126
GlyphClass: 2
Flags: W
LayerCount: 2
Fore
SplineSet
325 1261 m 128,-1,1
 431 1370 431 1370 597 1370 c 128,-1,2
 763 1370 763 1370 858.5 1277.5 c 128,-1,3
 954 1185 954 1185 954 1051 c 0,4,5
 954 949 954 949 899 863 c 128,-1,6
 844 777 844 777 756 735 c 1,7,8
 856 702 856 702 911.5 619.5 c 128,-1,9
 967 537 967 537 967 425 c 0,10,11
 967 238 967 238 841.5 109 c 128,-1,12
 716 -20 716 -20 540 -20 c 0,13,14
 422 -20 422 -20 335 43 c 1,15,-1
 422 158 l 1,16,17
 475 109 475 109 563 109 c 0,18,19
 670 109 670 109 751.5 193 c 128,-1,20
 833 277 833 277 833 420 c 0,21,22
 833 531 833 531 760 596.5 c 128,-1,23
 687 662 687 662 549 662 c 2,24,-1
 487 662 l 1,25,-1
 502 778 l 1,26,-1
 576 778 l 2,27,28
 670 778 670 778 743 856 c 128,-1,29
 816 934 816 934 816 1046 c 0,30,31
 816 1140 816 1140 756 1195.5 c 128,-1,32
 696 1251 696 1251 604 1251 c 0,33,34
 492 1251 492 1251 423 1175.5 c 128,-1,35
 354 1100 354 1100 333 930 c 2,36,-1
 220 0 l 1,37,-1
 81 0 l 1,38,-1
 192 926 l 2,39,0
 219 1152 219 1152 325 1261 c 128,-1,1
EndSplineSet
EndChar

StartChar: agrave
Encoding: 224 224 164
Width: 1126
GlyphClass: 2
Flags: W
LayerCount: 2
Fore
SplineSet
626 1048 m 1,0,-1
 451 1371 l 1,1,-1
 591 1449 l 1,2,-1
 714 1089 l 1,3,-1
 626 1048 l 1,0,-1
427 -25 m 0,4,5
 140 -25 140 -25 140 322 c 0,6,7
 140 615 140 615 283 785.5 c 128,-1,8
 426 956 426 956 663 956 c 0,9,10
 773 956 773 956 871 926 c 1,11,-1
 1025 941 l 1,12,13
 1023 932 1023 932 1014.5 912 c 128,-1,14
 1006 892 1006 892 1003 871 c 2,15,-1
 912 153 l 2,16,17
 908 117 908 117 908 97.5 c 128,-1,18
 908 78 908 78 916 0 c 1,19,-1
 778 0 l 1,20,21
 765 62 765 62 765 92.5 c 128,-1,22
 765 123 765 123 768 147 c 1,23,24
 636 -25 636 -25 427 -25 c 0,4,5
641 836 m 0,25,26
 479 836 479 836 383 693.5 c 128,-1,27
 287 551 287 551 287 306 c 0,28,29
 287 194 287 194 326.5 150 c 128,-1,30
 366 106 366 106 464 105.5 c 128,-1,31
 562 105 562 105 655 191.5 c 128,-1,32
 748 278 748 278 805 425 c 1,33,-1
 854 800 l 1,34,35
 748 836 748 836 641 836 c 0,25,26
EndSplineSet
EndChar

StartChar: aacute
Encoding: 225 225 165
Width: 1126
GlyphClass: 2
Flags: W
LayerCount: 2
Fore
SplineSet
562 1079 m 1,0,-1
 774 1424 l 1,1,-1
 895 1346 l 1,2,-1
 640 1038 l 1,3,-1
 562 1079 l 1,0,-1
427 -25 m 0,4,5
 140 -25 140 -25 140 322 c 0,6,7
 140 615 140 615 283 785.5 c 128,-1,8
 426 956 426 956 663 956 c 0,9,10
 773 956 773 956 871 926 c 1,11,-1
 1025 941 l 1,12,13
 1023 932 1023 932 1014.5 912 c 128,-1,14
 1006 892 1006 892 1003 871 c 2,15,-1
 912 153 l 2,16,17
 908 117 908 117 908 97.5 c 128,-1,18
 908 78 908 78 916 0 c 1,19,-1
 778 0 l 1,20,21
 765 62 765 62 765 92.5 c 128,-1,22
 765 123 765 123 768 147 c 1,23,24
 636 -25 636 -25 427 -25 c 0,4,5
641 836 m 0,25,26
 479 836 479 836 383 693.5 c 128,-1,27
 287 551 287 551 287 306 c 0,28,29
 287 194 287 194 326.5 150 c 128,-1,30
 366 106 366 106 464 105.5 c 128,-1,31
 562 105 562 105 655 191.5 c 128,-1,32
 748 278 748 278 805 425 c 1,33,-1
 854 800 l 1,34,35
 748 836 748 836 641 836 c 0,25,26
EndSplineSet
EndChar

StartChar: acircumflex
Encoding: 226 226 166
Width: 1126
GlyphClass: 2
Flags: W
LayerCount: 2
Fore
SplineSet
479 1071 m 1,0,-1
 396 1142 l 1,1,-1
 675 1451 l 1,2,-1
 720 1451 l 1,3,-1
 920 1135 l 1,4,-1
 817 1063 l 1,5,-1
 676 1282 l 1,6,-1
 479 1071 l 1,0,-1
427 -25 m 0,7,8
 140 -25 140 -25 140 322 c 0,9,10
 140 615 140 615 283 785.5 c 128,-1,11
 426 956 426 956 663 956 c 0,12,13
 773 956 773 956 871 926 c 1,14,-1
 1025 941 l 1,15,16
 1023 932 1023 932 1014.5 912 c 128,-1,17
 1006 892 1006 892 1003 871 c 2,18,-1
 912 153 l 2,19,20
 908 117 908 117 908 97.5 c 128,-1,21
 908 78 908 78 916 0 c 1,22,-1
 778 0 l 1,23,24
 765 62 765 62 765 92.5 c 128,-1,25
 765 123 765 123 768 147 c 1,26,27
 636 -25 636 -25 427 -25 c 0,7,8
641 836 m 0,28,29
 479 836 479 836 383 693.5 c 128,-1,30
 287 551 287 551 287 306 c 0,31,32
 287 194 287 194 326.5 150 c 128,-1,33
 366 106 366 106 464 105.5 c 128,-1,34
 562 105 562 105 655 191.5 c 128,-1,35
 748 278 748 278 805 425 c 1,36,-1
 854 800 l 1,37,38
 748 836 748 836 641 836 c 0,28,29
EndSplineSet
EndChar

StartChar: atilde
Encoding: 227 227 167
Width: 1126
GlyphClass: 2
Flags: W
LayerCount: 2
Fore
SplineSet
602 1374 m 0,0,1
 644 1374 644 1374 685 1354 c 128,-1,2
 726 1334 726 1334 752 1310 c 0,3,4
 822 1245 822 1245 861 1245 c 128,-1,5
 900 1245 900 1245 923.5 1261.5 c 128,-1,6
 947 1278 947 1278 987 1328 c 1,7,-1
 1057 1243 l 1,8,9
 986 1163 986 1163 947 1137.5 c 128,-1,10
 908 1112 908 1112 864.5 1112 c 128,-1,11
 821 1112 821 1112 781.5 1133.5 c 128,-1,12
 742 1155 742 1155 712 1182 c 0,13,14
 632 1251 632 1251 589 1251 c 128,-1,15
 546 1251 546 1251 511 1228.5 c 128,-1,16
 476 1206 476 1206 430 1153 c 1,17,-1
 365 1218 l 1,18,19
 484 1374 484 1374 602 1374 c 0,0,1
427 -25 m 0,20,21
 140 -25 140 -25 140 322 c 0,22,23
 140 615 140 615 283 785.5 c 128,-1,24
 426 956 426 956 663 956 c 0,25,26
 773 956 773 956 871 926 c 1,27,-1
 1025 941 l 1,28,29
 1023 932 1023 932 1014.5 912 c 128,-1,30
 1006 892 1006 892 1003 871 c 2,31,-1
 912 153 l 2,32,33
 908 117 908 117 908 97.5 c 128,-1,34
 908 78 908 78 916 0 c 1,35,-1
 778 0 l 1,36,37
 765 62 765 62 765 92.5 c 128,-1,38
 765 123 765 123 768 147 c 1,39,40
 636 -25 636 -25 427 -25 c 0,20,21
641 836 m 0,41,42
 479 836 479 836 383 693.5 c 128,-1,43
 287 551 287 551 287 306 c 0,44,45
 287 194 287 194 326.5 150 c 128,-1,46
 366 106 366 106 464 105.5 c 128,-1,47
 562 105 562 105 655 191.5 c 128,-1,48
 748 278 748 278 805 425 c 1,49,-1
 854 800 l 1,50,51
 748 836 748 836 641 836 c 0,41,42
EndSplineSet
EndChar

StartChar: adieresis
Encoding: 228 228 168
Width: 1126
GlyphClass: 2
Flags: W
LayerCount: 2
Fore
SplineSet
977.5 1175 m 128,-1,1
 942 1141 942 1141 892.5 1141 c 128,-1,2
 843 1141 843 1141 810.5 1172.5 c 128,-1,3
 778 1204 778 1204 778 1254 c 128,-1,4
 778 1304 778 1304 813.5 1340 c 128,-1,5
 849 1376 849 1376 899 1376 c 128,-1,6
 949 1376 949 1376 981 1344.5 c 128,-1,7
 1013 1313 1013 1313 1013 1261 c 128,-1,0
 1013 1209 1013 1209 977.5 1175 c 128,-1,1
609.5 1175 m 128,-1,9
 574 1141 574 1141 524.5 1141 c 128,-1,10
 475 1141 475 1141 442.5 1172.5 c 128,-1,11
 410 1204 410 1204 410 1254 c 128,-1,12
 410 1304 410 1304 445.5 1340 c 128,-1,13
 481 1376 481 1376 531 1376 c 128,-1,14
 581 1376 581 1376 613 1344.5 c 128,-1,15
 645 1313 645 1313 645 1261 c 128,-1,8
 645 1209 645 1209 609.5 1175 c 128,-1,9
427 -25 m 0,16,17
 140 -25 140 -25 140 322 c 0,18,19
 140 615 140 615 283 785.5 c 128,-1,20
 426 956 426 956 663 956 c 0,21,22
 773 956 773 956 871 926 c 1,23,-1
 1025 941 l 1,24,25
 1023 932 1023 932 1014.5 912 c 128,-1,26
 1006 892 1006 892 1003 871 c 2,27,-1
 912 153 l 2,28,29
 908 117 908 117 908 97.5 c 128,-1,30
 908 78 908 78 916 0 c 1,31,-1
 778 0 l 1,32,33
 765 62 765 62 765 92.5 c 128,-1,34
 765 123 765 123 768 147 c 1,35,36
 636 -25 636 -25 427 -25 c 0,16,17
641 836 m 0,37,38
 479 836 479 836 383 693.5 c 128,-1,39
 287 551 287 551 287 306 c 0,40,41
 287 194 287 194 326.5 150 c 128,-1,42
 366 106 366 106 464 105.5 c 128,-1,43
 562 105 562 105 655 191.5 c 128,-1,44
 748 278 748 278 805 425 c 1,45,-1
 854 800 l 1,46,47
 748 836 748 836 641 836 c 0,37,38
EndSplineSet
EndChar

StartChar: aring
Encoding: 229 229 169
Width: 1126
GlyphClass: 2
Flags: W
LayerCount: 2
Fore
SplineSet
832.5 1118.5 m 128,-1,1
 769 1059 769 1059 690.5 1059 c 128,-1,2
 612 1059 612 1059 563.5 1105 c 128,-1,3
 515 1151 515 1151 515 1228.5 c 128,-1,4
 515 1306 515 1306 571.5 1365.5 c 128,-1,5
 628 1425 628 1425 717.5 1425 c 128,-1,6
 807 1425 807 1425 851.5 1383 c 128,-1,7
 896 1341 896 1341 896 1272 c 0,8,0
 896 1178 896 1178 832.5 1118.5 c 128,-1,1
638 1168.5 m 128,-1,10
 657 1147 657 1147 698.5 1147 c 128,-1,11
 740 1147 740 1147 766 1181 c 128,-1,12
 792 1215 792 1215 792 1266 c 0,13,14
 792 1335 792 1335 721 1335 c 0,15,16
 673 1335 673 1335 646 1303.5 c 128,-1,17
 619 1272 619 1272 619 1231 c 128,-1,9
 619 1190 619 1190 638 1168.5 c 128,-1,10
427 -25 m 0,18,19
 140 -25 140 -25 140 322 c 0,20,21
 140 615 140 615 283 785.5 c 128,-1,22
 426 956 426 956 663 956 c 0,23,24
 773 956 773 956 871 926 c 1,25,-1
 1025 941 l 1,26,27
 1023 932 1023 932 1014.5 912 c 128,-1,28
 1006 892 1006 892 1003 871 c 2,29,-1
 912 153 l 2,30,31
 908 117 908 117 908 97.5 c 128,-1,32
 908 78 908 78 916 0 c 1,33,-1
 778 0 l 1,34,35
 765 62 765 62 765 92.5 c 128,-1,36
 765 123 765 123 768 147 c 1,37,38
 636 -25 636 -25 427 -25 c 0,18,19
641 836 m 0,39,40
 479 836 479 836 383 693.5 c 128,-1,41
 287 551 287 551 287 306 c 0,42,43
 287 194 287 194 326.5 150 c 128,-1,44
 366 106 366 106 464 105.5 c 128,-1,45
 562 105 562 105 655 191.5 c 128,-1,46
 748 278 748 278 805 425 c 1,47,-1
 854 800 l 1,48,49
 748 836 748 836 641 836 c 0,39,40
EndSplineSet
EndChar

StartChar: ae
Encoding: 230 230 170
Width: 1126
GlyphClass: 2
Flags: W
LayerCount: 2
Fore
SplineSet
524 658 m 0,0,1
 524 842 524 842 390 842 c 0,2,3
 297 842 297 842 222 754 c 1,4,-1
 161 844 l 1,5,6
 263 956 263 956 410 956 c 0,7,8
 486 956 486 956 542 923.5 c 128,-1,9
 598 891 598 891 625 829 c 1,10,11
 717 956 717 956 864 956 c 0,12,13
 974 956 974 956 1030.5 880.5 c 128,-1,14
 1087 805 1087 805 1087 687.5 c 128,-1,15
 1087 570 1087 570 1035 519.5 c 128,-1,16
 983 469 983 469 889 466 c 2,17,-1
 629 457 l 1,18,19
 619 374 619 374 619 325 c 0,20,21
 619 206 619 206 661 151 c 128,-1,22
 703 96 703 96 797.5 96 c 128,-1,23
 892 96 892 96 956 172 c 1,24,-1
 1017 86 l 1,25,26
 914 -23 914 -23 774 -23 c 0,27,28
 691 -23 691 -23 628 14.5 c 128,-1,29
 565 52 565 52 531 119 c 1,30,31
 487 52 487 52 422 14.5 c 128,-1,32
 357 -23 357 -23 282 -23 c 0,33,34
 175 -23 175 -23 110 50 c 128,-1,35
 45 123 45 123 45 228 c 0,36,37
 45 239 45 239 47 261 c 0,38,39
 62 400 62 400 183 482 c 128,-1,40
 304 564 304 564 471 569 c 1,41,-1
 518 571 l 1,42,43
 524 619 524 619 524 658 c 0,0,1
965 681 m 0,44,45
 965 762 965 762 930 802 c 128,-1,46
 895 842 895 842 837 842 c 0,47,48
 759 842 759 842 708 768 c 128,-1,49
 657 694 657 694 643 571 c 1,50,-1
 863 579 l 2,51,52
 916 581 916 581 940.5 609 c 128,-1,53
 965 637 965 637 965 681 c 0,44,45
177 239 m 0,54,55
 177 177 177 177 215 139.5 c 128,-1,56
 253 102 253 102 315 102 c 0,57,58
 463 102 463 102 489 318 c 1,59,-1
 503 449 l 1,60,-1
 457 446 l 1,61,62
 200 434 200 434 179 264 c 0,63,64
 177 246 177 246 177 239 c 0,54,55
EndSplineSet
EndChar

StartChar: ccedilla
Encoding: 231 231 171
Width: 1126
GlyphClass: 2
Flags: W
LayerCount: 2
Fore
SplineSet
834 680 m 1,0,-1
 836 700 l 1,1,2
 836 734 836 734 790 778 c 0,3,4
 767 801 767 801 723.5 817 c 128,-1,5
 680 833 680 833 625 833 c 0,6,7
 478 833 478 833 382 715.5 c 128,-1,8
 286 598 286 598 286 405 c 0,9,10
 286 265 286 265 355.5 180.5 c 128,-1,11
 425 96 425 96 555 96 c 0,12,13
 713 96 713 96 850 233 c 1,14,-1
 924 133 l 1,15,16
 780 -6 780 -6 583 -22 c 1,17,-1
 565 -97 l 1,18,19
 653 -97 653 -97 690 -124 c 128,-1,20
 727 -151 727 -151 727 -206 c 0,21,22
 727 -391 727 -391 501 -391 c 0,23,24
 391 -391 391 -391 295 -330 c 1,25,-1
 343 -237 l 1,26,27
 410 -291 410 -291 499 -291 c 0,28,29
 552 -291 552 -291 574.5 -276.5 c 128,-1,30
 597 -262 597 -262 597 -229 c 0,31,32
 597 -178 597 -178 478 -178 c 2,33,-1
 455 -178 l 1,34,-1
 493 -22 l 1,35,36
 323 -10 323 -10 228 99 c 128,-1,37
 133 208 133 208 133 388 c 0,38,39
 133 505 133 505 167 607.5 c 128,-1,40
 201 710 201 710 264 788.5 c 128,-1,41
 327 867 327 867 424 912.5 c 128,-1,42
 521 958 521 958 639 958 c 0,43,44
 868 958 868 958 971 775 c 1,45,-1
 847 648 l 1,46,47
 834 661 834 661 834 680 c 1,0,-1
EndSplineSet
EndChar

StartChar: egrave
Encoding: 232 232 172
Width: 1126
GlyphClass: 2
Flags: W
LayerCount: 2
Fore
SplineSet
559 1048 m 1,0,-1
 384 1371 l 1,1,-1
 524 1449 l 1,2,-1
 647 1089 l 1,3,-1
 559 1048 l 1,0,-1
477 -25 m 0,4,5
 345 -25 345 -25 244 48 c 1,6,7
 192 87 192 87 161 159 c 128,-1,8
 130 231 130 231 130 326 c 128,-1,9
 130 421 130 421 157.5 532 c 128,-1,10
 185 643 185 643 235.5 728 c 128,-1,11
 286 813 286 813 350 862 c 1,12,13
 476 956 476 956 629.5 956 c 128,-1,14
 783 956 783 956 855 879.5 c 128,-1,15
 927 803 927 803 927 677 c 0,16,17
 927 600 927 600 887 560.5 c 128,-1,18
 847 521 847 521 749 508 c 2,19,-1
 291 446 l 1,20,21
 279 391 279 391 279 343 c 0,22,23
 279 227 279 227 340 162 c 128,-1,24
 401 97 401 97 497.5 97 c 128,-1,25
 594 97 594 97 656.5 128.5 c 128,-1,26
 719 160 719 160 782 227 c 1,27,-1
 854 147 l 1,28,29
 704 -25 704 -25 477 -25 c 0,4,5
787 696 m 0,30,31
 787 760 787 760 747.5 797.5 c 128,-1,32
 708 835 708 835 624 835 c 0,33,34
 509 835 509 835 428.5 761.5 c 128,-1,35
 348 688 348 688 310 561 c 1,36,-1
 690 614 l 2,37,38
 743 621 743 621 765 640 c 128,-1,39
 787 659 787 659 787 696 c 0,30,31
EndSplineSet
EndChar

StartChar: eacute
Encoding: 233 233 173
Width: 1126
GlyphClass: 2
Flags: W
LayerCount: 2
Fore
SplineSet
528 1079 m 1,0,-1
 740 1424 l 1,1,-1
 861 1346 l 1,2,-1
 606 1038 l 1,3,-1
 528 1079 l 1,0,-1
477 -25 m 0,4,5
 345 -25 345 -25 244 48 c 1,6,7
 192 87 192 87 161 159 c 128,-1,8
 130 231 130 231 130 326 c 128,-1,9
 130 421 130 421 157.5 532 c 128,-1,10
 185 643 185 643 235.5 728 c 128,-1,11
 286 813 286 813 350 862 c 1,12,13
 476 956 476 956 629.5 956 c 128,-1,14
 783 956 783 956 855 879.5 c 128,-1,15
 927 803 927 803 927 677 c 0,16,17
 927 600 927 600 887 560.5 c 128,-1,18
 847 521 847 521 749 508 c 2,19,-1
 291 446 l 1,20,21
 279 391 279 391 279 343 c 0,22,23
 279 227 279 227 340 162 c 128,-1,24
 401 97 401 97 497.5 97 c 128,-1,25
 594 97 594 97 656.5 128.5 c 128,-1,26
 719 160 719 160 782 227 c 1,27,-1
 854 147 l 1,28,29
 704 -25 704 -25 477 -25 c 0,4,5
787 696 m 0,30,31
 787 760 787 760 747.5 797.5 c 128,-1,32
 708 835 708 835 624 835 c 0,33,34
 509 835 509 835 428.5 761.5 c 128,-1,35
 348 688 348 688 310 561 c 1,36,-1
 690 614 l 2,37,38
 743 621 743 621 765 640 c 128,-1,39
 787 659 787 659 787 696 c 0,30,31
EndSplineSet
EndChar

StartChar: ecircumflex
Encoding: 234 234 174
Width: 1126
GlyphClass: 2
Flags: W
LayerCount: 2
Fore
SplineSet
445 1071 m 1,0,-1
 362 1142 l 1,1,-1
 641 1451 l 1,2,-1
 686 1451 l 1,3,-1
 886 1135 l 1,4,-1
 783 1063 l 1,5,-1
 642 1282 l 1,6,-1
 445 1071 l 1,0,-1
477 -25 m 0,7,8
 345 -25 345 -25 244 48 c 1,9,10
 192 87 192 87 161 159 c 128,-1,11
 130 231 130 231 130 326 c 128,-1,12
 130 421 130 421 157.5 532 c 128,-1,13
 185 643 185 643 235.5 728 c 128,-1,14
 286 813 286 813 350 862 c 1,15,16
 476 956 476 956 629.5 956 c 128,-1,17
 783 956 783 956 855 879.5 c 128,-1,18
 927 803 927 803 927 677 c 0,19,20
 927 600 927 600 887 560.5 c 128,-1,21
 847 521 847 521 749 508 c 2,22,-1
 291 446 l 1,23,24
 279 391 279 391 279 343 c 0,25,26
 279 227 279 227 340 162 c 128,-1,27
 401 97 401 97 497.5 97 c 128,-1,28
 594 97 594 97 656.5 128.5 c 128,-1,29
 719 160 719 160 782 227 c 1,30,-1
 854 147 l 1,31,32
 704 -25 704 -25 477 -25 c 0,7,8
787 696 m 0,33,34
 787 760 787 760 747.5 797.5 c 128,-1,35
 708 835 708 835 624 835 c 0,36,37
 509 835 509 835 428.5 761.5 c 128,-1,38
 348 688 348 688 310 561 c 1,39,-1
 690 614 l 2,40,41
 743 621 743 621 765 640 c 128,-1,42
 787 659 787 659 787 696 c 0,33,34
EndSplineSet
EndChar

StartChar: edieresis
Encoding: 235 235 175
Width: 1126
GlyphClass: 2
Flags: W
LayerCount: 2
Fore
SplineSet
943.5 1175 m 128,-1,1
 908 1141 908 1141 858.5 1141 c 128,-1,2
 809 1141 809 1141 776.5 1172.5 c 128,-1,3
 744 1204 744 1204 744 1254 c 128,-1,4
 744 1304 744 1304 779.5 1340 c 128,-1,5
 815 1376 815 1376 865 1376 c 128,-1,6
 915 1376 915 1376 947 1344.5 c 128,-1,7
 979 1313 979 1313 979 1261 c 128,-1,0
 979 1209 979 1209 943.5 1175 c 128,-1,1
575.5 1175 m 128,-1,9
 540 1141 540 1141 490.5 1141 c 128,-1,10
 441 1141 441 1141 408.5 1172.5 c 128,-1,11
 376 1204 376 1204 376 1254 c 128,-1,12
 376 1304 376 1304 411.5 1340 c 128,-1,13
 447 1376 447 1376 497 1376 c 128,-1,14
 547 1376 547 1376 579 1344.5 c 128,-1,15
 611 1313 611 1313 611 1261 c 128,-1,8
 611 1209 611 1209 575.5 1175 c 128,-1,9
477 -25 m 0,16,17
 345 -25 345 -25 244 48 c 1,18,19
 192 87 192 87 161 159 c 128,-1,20
 130 231 130 231 130 326 c 128,-1,21
 130 421 130 421 157.5 532 c 128,-1,22
 185 643 185 643 235.5 728 c 128,-1,23
 286 813 286 813 350 862 c 1,24,25
 476 956 476 956 629.5 956 c 128,-1,26
 783 956 783 956 855 879.5 c 128,-1,27
 927 803 927 803 927 677 c 0,28,29
 927 600 927 600 887 560.5 c 128,-1,30
 847 521 847 521 749 508 c 2,31,-1
 291 446 l 1,32,33
 279 391 279 391 279 343 c 0,34,35
 279 227 279 227 340 162 c 128,-1,36
 401 97 401 97 497.5 97 c 128,-1,37
 594 97 594 97 656.5 128.5 c 128,-1,38
 719 160 719 160 782 227 c 1,39,-1
 854 147 l 1,40,41
 704 -25 704 -25 477 -25 c 0,16,17
787 696 m 0,42,43
 787 760 787 760 747.5 797.5 c 128,-1,44
 708 835 708 835 624 835 c 0,45,46
 509 835 509 835 428.5 761.5 c 128,-1,47
 348 688 348 688 310 561 c 1,48,-1
 690 614 l 2,49,50
 743 621 743 621 765 640 c 128,-1,51
 787 659 787 659 787 696 c 0,42,43
EndSplineSet
EndChar

StartChar: igrave
Encoding: 236 236 176
Width: 1126
GlyphClass: 2
Flags: W
LayerCount: 2
Fore
SplineSet
589 1048 m 1,0,-1
 414 1371 l 1,1,-1
 554 1449 l 1,2,-1
 677 1089 l 1,3,-1
 589 1048 l 1,0,-1
117 0 m 1,4,-1
 131 120 l 1,5,-1
 449 120 l 1,6,-1
 535 816 l 1,7,-1
 221 816 l 1,8,-1
 235 936 l 1,9,-1
 692 936 l 1,10,-1
 592 120 l 1,11,-1
 911 120 l 1,12,-1
 884 0 l 1,13,-1
 117 0 l 1,4,-1
EndSplineSet
EndChar

StartChar: iacute
Encoding: 237 237 177
Width: 1126
GlyphClass: 2
Flags: W
LayerCount: 2
Fore
SplineSet
525 1079 m 1,0,-1
 737 1424 l 1,1,-1
 858 1346 l 1,2,-1
 603 1038 l 1,3,-1
 525 1079 l 1,0,-1
117 0 m 1,4,-1
 131 120 l 1,5,-1
 449 120 l 1,6,-1
 535 816 l 1,7,-1
 221 816 l 1,8,-1
 235 936 l 1,9,-1
 692 936 l 1,10,-1
 592 120 l 1,11,-1
 911 120 l 1,12,-1
 897 0 l 1,13,-1
 117 0 l 1,4,-1
EndSplineSet
EndChar

StartChar: icircumflex
Encoding: 238 238 178
Width: 1126
GlyphClass: 2
Flags: W
LayerCount: 2
Fore
SplineSet
442 1071 m 1,0,-1
 359 1142 l 1,1,-1
 638 1451 l 1,2,-1
 683 1451 l 1,3,-1
 883 1135 l 1,4,-1
 780 1063 l 1,5,-1
 639 1282 l 1,6,-1
 442 1071 l 1,0,-1
117 0 m 1,7,-1
 131 120 l 1,8,-1
 449 120 l 1,9,-1
 535 816 l 1,10,-1
 221 816 l 1,11,-1
 235 936 l 1,12,-1
 692 936 l 1,13,-1
 592 120 l 1,14,-1
 911 120 l 1,15,-1
 897 0 l 1,16,-1
 117 0 l 1,7,-1
EndSplineSet
EndChar

StartChar: idieresis
Encoding: 239 239 179
Width: 1126
GlyphClass: 2
Flags: W
LayerCount: 2
Fore
SplineSet
940.5 1175 m 128,-1,1
 905 1141 905 1141 855.5 1141 c 128,-1,2
 806 1141 806 1141 773.5 1172.5 c 128,-1,3
 741 1204 741 1204 741 1254 c 128,-1,4
 741 1304 741 1304 776.5 1340 c 128,-1,5
 812 1376 812 1376 862 1376 c 128,-1,6
 912 1376 912 1376 944 1344.5 c 128,-1,7
 976 1313 976 1313 976 1261 c 128,-1,0
 976 1209 976 1209 940.5 1175 c 128,-1,1
572.5 1175 m 128,-1,9
 537 1141 537 1141 487.5 1141 c 128,-1,10
 438 1141 438 1141 405.5 1172.5 c 128,-1,11
 373 1204 373 1204 373 1254 c 128,-1,12
 373 1304 373 1304 408.5 1340 c 128,-1,13
 444 1376 444 1376 494 1376 c 128,-1,14
 544 1376 544 1376 576 1344.5 c 128,-1,15
 608 1313 608 1313 608 1261 c 128,-1,8
 608 1209 608 1209 572.5 1175 c 128,-1,9
117 0 m 1,16,-1
 131 120 l 1,17,-1
 449 120 l 1,18,-1
 535 816 l 1,19,-1
 221 816 l 1,20,-1
 235 936 l 1,21,-1
 692 936 l 1,22,-1
 592 120 l 1,23,-1
 911 120 l 1,24,-1
 897 0 l 1,25,-1
 117 0 l 1,16,-1
EndSplineSet
EndChar

StartChar: eth
Encoding: 240 240 180
Width: 1126
GlyphClass: 2
Flags: W
LayerCount: 2
Fore
SplineSet
612 956 m 0,0,1
 689 956 689 956 758.5 927 c 128,-1,2
 828 898 828 898 874 842 c 1,3,4
 816 1009 816 1009 722 1131 c 1,5,-1
 445 1057 l 1,6,-1
 421 1155 l 1,7,-1
 647 1214 l 1,8,9
 559 1298 559 1298 454 1349 c 1,10,-1
 618 1376 l 1,11,12
 710 1321 710 1321 781 1249 c 1,13,-1
 1009 1309 l 1,14,-1
 1033 1219 l 1,15,-1
 851 1167 l 1,16,17
 1020 943 1020 943 1020 636.5 c 128,-1,18
 1020 330 1020 330 884 152.5 c 128,-1,19
 748 -25 748 -25 523 -25 c 0,20,21
 337 -25 337 -25 232.5 81.5 c 128,-1,22
 128 188 128 188 128 379 c 0,23,24
 128 422 128 422 134 468 c 0,25,26
 160 680 160 680 294 818 c 128,-1,27
 428 956 428 956 612 956 c 0,0,1
524 102 m 0,28,29
 658 102 658 102 758 211 c 0,30,31
 806 264 806 264 834.5 349.5 c 128,-1,32
 863 435 863 435 863 541 c 0,33,34
 863 688 863 688 792.5 760.5 c 128,-1,35
 722 833 722 833 612 833 c 0,36,37
 474 833 474 833 375 724 c 0,38,39
 327 671 327 671 299 586.5 c 128,-1,40
 271 502 271 502 271 398 c 0,41,42
 271 258 271 258 340.5 180 c 128,-1,43
 410 102 410 102 524 102 c 0,28,29
EndSplineSet
EndChar

StartChar: ntilde
Encoding: 241 241 181
Width: 1126
GlyphClass: 2
Flags: W
LayerCount: 2
Fore
SplineSet
614 1374 m 0,0,1
 656 1374 656 1374 697 1354 c 128,-1,2
 738 1334 738 1334 764 1310 c 0,3,4
 834 1245 834 1245 873 1245 c 128,-1,5
 912 1245 912 1245 935.5 1261.5 c 128,-1,6
 959 1278 959 1278 999 1328 c 1,7,-1
 1069 1243 l 1,8,9
 998 1163 998 1163 959 1137.5 c 128,-1,10
 920 1112 920 1112 876.5 1112 c 128,-1,11
 833 1112 833 1112 793.5 1133.5 c 128,-1,12
 754 1155 754 1155 724 1182 c 0,13,14
 644 1251 644 1251 601 1251 c 128,-1,15
 558 1251 558 1251 523 1228.5 c 128,-1,16
 488 1206 488 1206 442 1153 c 1,17,-1
 377 1218 l 1,18,19
 495 1374 495 1374 614 1374 c 0,0,1
765 958 m 0,20,21
 984 958 984 958 984 711 c 0,22,23
 984 677 984 677 979 629 c 2,24,-1
 920 153 l 2,25,26
 915 108 915 108 915 77 c 128,-1,27
 915 46 915 46 924 0 c 1,28,-1
 786 0 l 1,29,30
 773 48 773 48 773 86 c 128,-1,31
 773 124 773 124 777 153 c 2,32,-1
 831 563 l 2,33,34
 838 618 838 618 838 665 c 0,35,36
 838 754 838 754 809 789.5 c 128,-1,37
 780 825 780 825 711.5 825 c 128,-1,38
 643 825 643 825 560 787 c 128,-1,39
 477 749 477 749 412 676 c 128,-1,40
 347 603 347 603 337 518 c 2,41,-1
 273 0 l 1,42,-1
 133 0 l 1,43,-1
 248 936 l 1,44,-1
 402 936 l 1,45,46
 400 919 400 919 391 901 c 128,-1,47
 382 883 382 883 380 866 c 2,48,-1
 368 770 l 1,49,50
 439 852 439 852 549 905 c 128,-1,51
 659 958 659 958 765 958 c 0,20,21
EndSplineSet
EndChar

StartChar: ograve
Encoding: 242 242 182
Width: 1126
GlyphClass: 2
Flags: W
LayerCount: 2
Fore
SplineSet
559 1048 m 1,0,-1
 384 1371 l 1,1,-1
 524 1449 l 1,2,-1
 647 1089 l 1,3,-1
 559 1048 l 1,0,-1
623 956 m 0,4,5
 799 956 799 956 903 849.5 c 128,-1,6
 1007 743 1007 743 1007 561 c 128,-1,7
 1007 379 1007 379 938 245.5 c 128,-1,8
 869 112 869 112 755.5 43.5 c 128,-1,9
 642 -25 642 -25 503 -25 c 0,10,11
 328 -25 328 -25 226 81 c 128,-1,12
 124 187 124 187 124 376 c 0,13,14
 124 419 124 419 130 467 c 0,15,16
 158 695 158 695 292.5 825.5 c 128,-1,17
 427 956 427 956 623 956 c 0,4,5
518 95 m 0,18,19
 673 95 673 95 768 216 c 128,-1,20
 863 337 863 337 863 543 c 0,21,22
 863 683 863 683 797.5 759.5 c 128,-1,23
 732 836 732 836 608 836 c 0,24,25
 454 836 454 836 361 713 c 128,-1,26
 268 590 268 590 268 379 c 0,27,28
 268 243 268 243 332 169 c 128,-1,29
 396 95 396 95 518 95 c 0,18,19
EndSplineSet
EndChar

StartChar: oacute
Encoding: 243 243 183
Width: 1126
GlyphClass: 2
Flags: W
LayerCount: 2
Fore
SplineSet
527 1079 m 1,0,-1
 739 1424 l 1,1,-1
 860 1346 l 1,2,-1
 605 1038 l 1,3,-1
 527 1079 l 1,0,-1
623 956 m 0,4,5
 799 956 799 956 903 849.5 c 128,-1,6
 1007 743 1007 743 1007 561 c 128,-1,7
 1007 379 1007 379 938 245.5 c 128,-1,8
 869 112 869 112 755.5 43.5 c 128,-1,9
 642 -25 642 -25 503 -25 c 0,10,11
 328 -25 328 -25 226 81 c 128,-1,12
 124 187 124 187 124 376 c 0,13,14
 124 419 124 419 130 467 c 0,15,16
 158 695 158 695 292.5 825.5 c 128,-1,17
 427 956 427 956 623 956 c 0,4,5
518 95 m 0,18,19
 673 95 673 95 768 216 c 128,-1,20
 863 337 863 337 863 543 c 0,21,22
 863 683 863 683 797.5 759.5 c 128,-1,23
 732 836 732 836 608 836 c 0,24,25
 454 836 454 836 361 713 c 128,-1,26
 268 590 268 590 268 379 c 0,27,28
 268 243 268 243 332 169 c 128,-1,29
 396 95 396 95 518 95 c 0,18,19
EndSplineSet
EndChar

StartChar: ocircumflex
Encoding: 244 244 184
Width: 1126
GlyphClass: 2
Flags: W
LayerCount: 2
Fore
SplineSet
444 1071 m 1,0,-1
 361 1142 l 1,1,-1
 640 1451 l 1,2,-1
 685 1451 l 1,3,-1
 885 1135 l 1,4,-1
 782 1063 l 1,5,-1
 641 1282 l 1,6,-1
 444 1071 l 1,0,-1
623 956 m 0,7,8
 799 956 799 956 903 849.5 c 128,-1,9
 1007 743 1007 743 1007 561 c 128,-1,10
 1007 379 1007 379 938 245.5 c 128,-1,11
 869 112 869 112 755.5 43.5 c 128,-1,12
 642 -25 642 -25 503 -25 c 0,13,14
 328 -25 328 -25 226 81 c 128,-1,15
 124 187 124 187 124 376 c 0,16,17
 124 419 124 419 130 467 c 0,18,19
 158 695 158 695 292.5 825.5 c 128,-1,20
 427 956 427 956 623 956 c 0,7,8
518 95 m 0,21,22
 673 95 673 95 768 216 c 128,-1,23
 863 337 863 337 863 543 c 0,24,25
 863 683 863 683 797.5 759.5 c 128,-1,26
 732 836 732 836 608 836 c 0,27,28
 454 836 454 836 361 713 c 128,-1,29
 268 590 268 590 268 379 c 0,30,31
 268 243 268 243 332 169 c 128,-1,32
 396 95 396 95 518 95 c 0,21,22
EndSplineSet
EndChar

StartChar: otilde
Encoding: 245 245 185
Width: 1126
GlyphClass: 2
Flags: W
LayerCount: 2
Fore
SplineSet
567 1374 m 0,0,1
 609 1374 609 1374 650 1354 c 128,-1,2
 691 1334 691 1334 718 1310 c 1,3,4
 787 1245 787 1245 826 1245 c 128,-1,5
 865 1245 865 1245 888.5 1261.5 c 128,-1,6
 912 1278 912 1278 952 1328 c 1,7,-1
 1022 1243 l 1,8,9
 951 1163 951 1163 912 1137.5 c 128,-1,10
 873 1112 873 1112 829.5 1112 c 128,-1,11
 786 1112 786 1112 746.5 1133.5 c 128,-1,12
 707 1155 707 1155 676 1182 c 0,13,14
 597 1251 597 1251 554 1251 c 128,-1,15
 511 1251 511 1251 476 1228.5 c 128,-1,16
 441 1206 441 1206 395 1153 c 1,17,-1
 330 1218 l 1,18,19
 448 1374 448 1374 567 1374 c 0,0,1
623 956 m 0,20,21
 799 956 799 956 903 849.5 c 128,-1,22
 1007 743 1007 743 1007 561 c 128,-1,23
 1007 379 1007 379 938 245.5 c 128,-1,24
 869 112 869 112 755.5 43.5 c 128,-1,25
 642 -25 642 -25 503 -25 c 0,26,27
 328 -25 328 -25 226 81 c 128,-1,28
 124 187 124 187 124 376 c 0,29,30
 124 419 124 419 130 467 c 0,31,32
 158 695 158 695 292.5 825.5 c 128,-1,33
 427 956 427 956 623 956 c 0,20,21
518 95 m 0,34,35
 673 95 673 95 768 216 c 128,-1,36
 863 337 863 337 863 543 c 0,37,38
 863 683 863 683 797.5 759.5 c 128,-1,39
 732 836 732 836 608 836 c 0,40,41
 454 836 454 836 361 713 c 128,-1,42
 268 590 268 590 268 379 c 0,43,44
 268 243 268 243 332 169 c 128,-1,45
 396 95 396 95 518 95 c 0,34,35
EndSplineSet
EndChar

StartChar: odieresis
Encoding: 246 246 186
Width: 1126
GlyphClass: 2
Flags: W
LayerCount: 2
Fore
SplineSet
942.5 1175 m 128,-1,1
 907 1141 907 1141 857.5 1141 c 128,-1,2
 808 1141 808 1141 775.5 1172.5 c 128,-1,3
 743 1204 743 1204 743 1254 c 128,-1,4
 743 1304 743 1304 778.5 1340 c 128,-1,5
 814 1376 814 1376 864 1376 c 128,-1,6
 914 1376 914 1376 946 1344.5 c 128,-1,7
 978 1313 978 1313 978 1261 c 128,-1,0
 978 1209 978 1209 942.5 1175 c 128,-1,1
574.5 1175 m 128,-1,9
 539 1141 539 1141 489.5 1141 c 128,-1,10
 440 1141 440 1141 407.5 1172.5 c 128,-1,11
 375 1204 375 1204 375 1254 c 128,-1,12
 375 1304 375 1304 410.5 1340 c 128,-1,13
 446 1376 446 1376 496 1376 c 128,-1,14
 546 1376 546 1376 578 1344.5 c 128,-1,15
 610 1313 610 1313 610 1261 c 128,-1,8
 610 1209 610 1209 574.5 1175 c 128,-1,9
623 956 m 0,16,17
 799 956 799 956 903 849.5 c 128,-1,18
 1007 743 1007 743 1007 561 c 128,-1,19
 1007 379 1007 379 938 245.5 c 128,-1,20
 869 112 869 112 755.5 43.5 c 128,-1,21
 642 -25 642 -25 503 -25 c 0,22,23
 328 -25 328 -25 226 81 c 128,-1,24
 124 187 124 187 124 376 c 0,25,26
 124 419 124 419 130 467 c 0,27,28
 158 695 158 695 292.5 825.5 c 128,-1,29
 427 956 427 956 623 956 c 0,16,17
518 95 m 0,30,31
 673 95 673 95 768 216 c 128,-1,32
 863 337 863 337 863 543 c 0,33,34
 863 683 863 683 797.5 759.5 c 128,-1,35
 732 836 732 836 608 836 c 0,36,37
 454 836 454 836 361 713 c 128,-1,38
 268 590 268 590 268 379 c 0,39,40
 268 243 268 243 332 169 c 128,-1,41
 396 95 396 95 518 95 c 0,30,31
EndSplineSet
EndChar

StartChar: divide
Encoding: 247 247 187
Width: 1126
GlyphClass: 2
Flags: W
LayerCount: 2
Fore
SplineSet
618 834 m 128,-1,1
 562 834 562 834 520 874 c 128,-1,2
 478 914 478 914 478 970.5 c 128,-1,3
 478 1027 478 1027 515.5 1066.5 c 128,-1,4
 553 1106 553 1106 609 1106 c 128,-1,5
 665 1106 665 1106 707.5 1066 c 128,-1,6
 750 1026 750 1026 750 969.5 c 128,-1,7
 750 913 750 913 712 873.5 c 128,-1,0
 674 834 674 834 618 834 c 128,-1,1
137 596 m 1,8,-1
 152 721 l 1,9,-1
 994 721 l 1,10,-1
 979 596 l 1,11,-1
 137 596 l 1,8,-1
429.5 436.5 m 128,-1,13
 467 476 467 476 523 476 c 128,-1,14
 579 476 579 476 621.5 436 c 128,-1,15
 664 396 664 396 664 339.5 c 128,-1,16
 664 283 664 283 626 243.5 c 128,-1,17
 588 204 588 204 532 204 c 128,-1,18
 476 204 476 204 434.5 244 c 128,-1,19
 393 284 393 284 392.5 340.5 c 128,-1,12
 392 397 392 397 429.5 436.5 c 128,-1,13
EndSplineSet
EndChar

StartChar: oslash
Encoding: 248 248 188
Width: 1126
GlyphClass: 2
Flags: W
LayerCount: 2
Fore
SplineSet
124 376 m 0,0,1
 124 552 124 552 191.5 685.5 c 128,-1,2
 259 819 259 819 371.5 887.5 c 128,-1,3
 484 956 484 956 623 956 c 0,4,5
 731 956 731 956 813 915 c 1,6,-1
 904 1054 l 1,7,-1
 1000 1000 l 1,8,-1
 902 851 l 1,9,10
 1007 743 1007 743 1007 561 c 128,-1,11
 1007 379 1007 379 938 245.5 c 128,-1,12
 869 112 869 112 755.5 43.5 c 128,-1,13
 642 -25 642 -25 503 -25 c 0,14,15
 416 -25 416 -25 343 3 c 1,16,-1
 246 -144 l 1,17,-1
 151 -95 l 1,18,-1
 251 58 l 1,19,20
 124 165 124 165 124 376 c 0,0,1
608 836 m 0,21,22
 454 836 454 836 361 713 c 128,-1,23
 268 590 268 590 268 380 c 0,24,25
 268 249 268 249 328 175 c 1,26,-1
 741 805 l 1,27,28
 684 836 684 836 608 836 c 0,21,22
518 95 m 0,29,30
 673 95 673 95 768 216 c 128,-1,31
 863 337 863 337 863 542 c 0,32,33
 863 655 863 655 820 727 c 1,34,-1
 415 112 l 1,35,36
 461 95 461 95 518 95 c 0,29,30
EndSplineSet
EndChar

StartChar: ugrave
Encoding: 249 249 189
Width: 1126
GlyphClass: 2
Flags: W
LayerCount: 2
Fore
SplineSet
639 1048 m 1,0,-1
 464 1371 l 1,1,-1
 604 1449 l 1,2,-1
 727 1089 l 1,3,-1
 639 1048 l 1,0,-1
299 299 m 0,4,5
 299 205 299 205 341 155.5 c 128,-1,6
 383 106 383 106 461 106 c 0,7,8
 576 106 576 106 678.5 200 c 128,-1,9
 781 294 781 294 796 414 c 2,10,-1
 860 936 l 1,11,-1
 1000 936 l 1,12,-1
 904 155 l 2,13,14
 900 123 900 123 900 84.5 c 128,-1,15
 900 46 900 46 911 0 c 1,16,-1
 771 0 l 1,17,18
 761 39 761 39 761 88 c 128,-1,19
 761 137 761 137 765 166 c 1,20,21
 696 76 696 76 602 26.5 c 128,-1,22
 508 -23 508 -23 403 -23 c 0,23,24
 155 -23 155 -23 155 253 c 0,25,26
 155 294 155 294 161 342 c 2,27,-1
 234 936 l 1,28,-1
 374 936 l 1,29,-1
 303 358 l 2,30,31
 299 330 299 330 299 299 c 0,4,5
EndSplineSet
EndChar

StartChar: uacute
Encoding: 250 250 190
Width: 1126
GlyphClass: 2
Flags: W
LayerCount: 2
Fore
SplineSet
542 1079 m 1,0,-1
 754 1424 l 1,1,-1
 875 1346 l 1,2,-1
 620 1038 l 1,3,-1
 542 1079 l 1,0,-1
299 299 m 0,4,5
 299 205 299 205 341 155.5 c 128,-1,6
 383 106 383 106 461 106 c 0,7,8
 576 106 576 106 678.5 200 c 128,-1,9
 781 294 781 294 796 414 c 2,10,-1
 860 936 l 1,11,-1
 1000 936 l 1,12,-1
 904 155 l 2,13,14
 900 123 900 123 900 84.5 c 128,-1,15
 900 46 900 46 911 0 c 1,16,-1
 771 0 l 1,17,18
 761 39 761 39 761 88 c 128,-1,19
 761 137 761 137 765 166 c 1,20,21
 696 76 696 76 602 26.5 c 128,-1,22
 508 -23 508 -23 403 -23 c 0,23,24
 155 -23 155 -23 155 253 c 0,25,26
 155 294 155 294 161 342 c 2,27,-1
 234 936 l 1,28,-1
 374 936 l 1,29,-1
 303 358 l 2,30,31
 299 330 299 330 299 299 c 0,4,5
EndSplineSet
EndChar

StartChar: ucircumflex
Encoding: 251 251 191
Width: 1126
GlyphClass: 2
Flags: W
LayerCount: 2
Fore
SplineSet
459 1071 m 1,0,-1
 376 1142 l 1,1,-1
 655 1451 l 1,2,-1
 700 1451 l 1,3,-1
 900 1135 l 1,4,-1
 797 1063 l 1,5,-1
 656 1282 l 1,6,-1
 459 1071 l 1,0,-1
299 299 m 0,7,8
 299 205 299 205 341 155.5 c 128,-1,9
 383 106 383 106 461 106 c 0,10,11
 576 106 576 106 678.5 200 c 128,-1,12
 781 294 781 294 796 414 c 2,13,-1
 860 936 l 1,14,-1
 1000 936 l 1,15,-1
 904 155 l 2,16,17
 900 123 900 123 900 84.5 c 128,-1,18
 900 46 900 46 911 0 c 1,19,-1
 771 0 l 1,20,21
 761 39 761 39 761 88 c 128,-1,22
 761 137 761 137 765 166 c 1,23,24
 696 76 696 76 602 26.5 c 128,-1,25
 508 -23 508 -23 403 -23 c 0,26,27
 155 -23 155 -23 155 253 c 0,28,29
 155 294 155 294 161 342 c 2,30,-1
 234 936 l 1,31,-1
 374 936 l 1,32,-1
 303 358 l 2,33,34
 299 330 299 330 299 299 c 0,7,8
EndSplineSet
EndChar

StartChar: udieresis
Encoding: 252 252 192
Width: 1126
GlyphClass: 2
Flags: W
LayerCount: 2
Fore
SplineSet
957.5 1175 m 128,-1,1
 922 1141 922 1141 872.5 1141 c 128,-1,2
 823 1141 823 1141 790.5 1172.5 c 128,-1,3
 758 1204 758 1204 758 1254 c 128,-1,4
 758 1304 758 1304 793.5 1340 c 128,-1,5
 829 1376 829 1376 879 1376 c 128,-1,6
 929 1376 929 1376 961 1344.5 c 128,-1,7
 993 1313 993 1313 993 1261 c 128,-1,0
 993 1209 993 1209 957.5 1175 c 128,-1,1
589.5 1175 m 128,-1,9
 554 1141 554 1141 504.5 1141 c 128,-1,10
 455 1141 455 1141 422.5 1172.5 c 128,-1,11
 390 1204 390 1204 390 1254 c 128,-1,12
 390 1304 390 1304 425.5 1340 c 128,-1,13
 461 1376 461 1376 511 1376 c 128,-1,14
 561 1376 561 1376 593 1344.5 c 128,-1,15
 625 1313 625 1313 625 1261 c 128,-1,8
 625 1209 625 1209 589.5 1175 c 128,-1,9
299 299 m 0,16,17
 299 205 299 205 341 155.5 c 128,-1,18
 383 106 383 106 461 106 c 0,19,20
 576 106 576 106 678.5 200 c 128,-1,21
 781 294 781 294 796 414 c 2,22,-1
 860 936 l 1,23,-1
 1000 936 l 1,24,-1
 904 155 l 2,25,26
 900 123 900 123 900 84.5 c 128,-1,27
 900 46 900 46 911 0 c 1,28,-1
 771 0 l 1,29,30
 761 39 761 39 761 88 c 128,-1,31
 761 137 761 137 765 166 c 1,32,33
 696 76 696 76 602 26.5 c 128,-1,34
 508 -23 508 -23 403 -23 c 0,35,36
 155 -23 155 -23 155 253 c 0,37,38
 155 294 155 294 161 342 c 2,39,-1
 234 936 l 1,40,-1
 374 936 l 1,41,-1
 303 358 l 2,42,43
 299 330 299 330 299 299 c 0,16,17
EndSplineSet
EndChar

StartChar: yacute
Encoding: 253 253 193
Width: 1126
GlyphClass: 2
Flags: W
LayerCount: 2
Fore
SplineSet
588 1038 m 1,0,-1
 510 1079 l 1,1,-1
 722 1424 l 1,2,-1
 843 1346 l 1,3,-1
 588 1038 l 1,0,-1
129 -160 m 2,4,-1
 129 -168 l 2,5,6
 129 -196 129 -196 156 -215 c 128,-1,7
 183 -234 183 -234 229 -234 c 0,8,9
 305 -234 305 -234 360 -181 c 128,-1,10
 415 -128 415 -128 505 26 c 1,11,12
 253 433 253 433 200 936 c 1,13,-1
 374 936 l 1,14,15
 374 927 374 927 366.5 906 c 128,-1,16
 359 885 359 885 359 875 c 128,-1,17
 359 865 359 865 360 862 c 0,18,19
 391 649 391 649 442.5 486.5 c 128,-1,20
 494 324 494 324 590 171 c 1,21,22
 855 647 855 647 864 936 c 1,23,-1
 1019 936 l 1,24,25
 1014 834 1014 834 966.5 688.5 c 128,-1,26
 919 543 919 543 846 393 c 0,27,28
 716 122 716 122 577 -106 c 0,29,30
 497 -237 497 -237 413 -296.5 c 128,-1,31
 329 -356 329 -356 225 -356 c 0,32,33
 94 -356 94 -356 23 -276 c 1,34,-1
 120 -139 l 1,35,36
 129 -151 129 -151 129 -160 c 2,4,-1
EndSplineSet
EndChar

StartChar: thorn
Encoding: 254 254 194
Width: 1126
GlyphClass: 2
Flags: W
LayerCount: 2
Fore
SplineSet
707 979 m 0,0,1
 858 979 858 979 931 882 c 0,2,3
 992 801 992 801 992 645 c 128,-1,4
 992 489 992 489 953 365 c 128,-1,5
 914 241 914 241 844 161 c 0,6,7
 700 -2 700 -2 467 -2 c 0,8,9
 344 -2 344 -2 261 40 c 1,10,-1
 211 -330 l 1,11,-1
 69 -330 l 1,12,-1
 292 1362 l 1,13,-1
 446 1362 l 1,14,15
 445 1352 445 1352 436 1332.5 c 128,-1,16
 427 1313 427 1313 424 1292 c 2,17,-1
 364 805 l 1,18,19
 498 979 498 979 707 979 c 0,0,1
499 118 m 0,20,21
 648 118 648 118 746 250.5 c 128,-1,22
 844 383 844 383 844 640 c 0,23,24
 844 750 844 750 804 799.5 c 128,-1,25
 764 849 764 849 675 849 c 0,26,27
 546 849 546 849 459 758 c 128,-1,28
 372 667 372 667 325 518 c 1,29,-1
 280 178 l 1,30,31
 364 118 364 118 499 118 c 0,20,21
EndSplineSet
EndChar

StartChar: ydieresis
Encoding: 255 255 195
Width: 1126
GlyphClass: 2
Flags: W
LayerCount: 2
Fore
SplineSet
925.5 1175 m 128,-1,1
 890 1141 890 1141 840.5 1141 c 128,-1,2
 791 1141 791 1141 758.5 1172.5 c 128,-1,3
 726 1204 726 1204 726 1254 c 128,-1,4
 726 1304 726 1304 761.5 1340 c 128,-1,5
 797 1376 797 1376 847 1376 c 128,-1,6
 897 1376 897 1376 929 1344.5 c 128,-1,7
 961 1313 961 1313 961 1261 c 128,-1,0
 961 1209 961 1209 925.5 1175 c 128,-1,1
557.5 1175 m 128,-1,9
 522 1141 522 1141 472.5 1141 c 128,-1,10
 423 1141 423 1141 390.5 1172.5 c 128,-1,11
 358 1204 358 1204 358 1254 c 128,-1,12
 358 1304 358 1304 393.5 1340 c 128,-1,13
 429 1376 429 1376 479 1376 c 128,-1,14
 529 1376 529 1376 561 1344.5 c 128,-1,15
 593 1313 593 1313 593 1261 c 128,-1,8
 593 1209 593 1209 557.5 1175 c 128,-1,9
129 -160 m 2,16,-1
 129 -168 l 2,17,18
 129 -196 129 -196 156 -215 c 128,-1,19
 183 -234 183 -234 229 -234 c 0,20,21
 305 -234 305 -234 360 -181 c 128,-1,22
 415 -128 415 -128 505 26 c 1,23,24
 253 433 253 433 200 936 c 1,25,-1
 374 936 l 1,26,27
 374 927 374 927 366.5 906 c 128,-1,28
 359 885 359 885 359 875 c 128,-1,29
 359 865 359 865 360 862 c 0,30,31
 391 649 391 649 442.5 486.5 c 128,-1,32
 494 324 494 324 590 171 c 1,33,34
 855 647 855 647 864 936 c 1,35,-1
 1019 936 l 1,36,37
 1014 834 1014 834 966.5 688.5 c 128,-1,38
 919 543 919 543 846 393 c 0,39,40
 716 122 716 122 577 -106 c 0,41,42
 497 -237 497 -237 413 -296.5 c 128,-1,43
 329 -356 329 -356 225 -356 c 0,44,45
 94 -356 94 -356 23 -276 c 1,46,-1
 120 -139 l 1,47,48
 129 -151 129 -151 129 -160 c 2,16,-1
EndSplineSet
EndChar

StartChar: Amacron
Encoding: 256 256 196
Width: 1126
GlyphClass: 2
Flags: W
LayerCount: 2
Fore
SplineSet
384 1415 m 1,0,-1
 398 1530 l 1,1,-1
 898 1530 l 1,2,-1
 884 1415 l 1,3,-1
 384 1415 l 1,0,-1
-23 0 m 1,4,-1
 610 1298 l 1,5,-1
 682 1298 l 1,6,-1
 995 0 l 1,7,-1
 835 0 l 1,8,-1
 752 373 l 1,9,-1
 300 373 l 1,10,-1
 123 0 l 1,11,-1
 -23 0 l 1,4,-1
358 496 m 1,12,-1
 724 496 l 1,13,-1
 610 1021 l 1,14,-1
 358 496 l 1,12,-1
EndSplineSet
EndChar

StartChar: amacron
Encoding: 257 257 197
Width: 1126
GlyphClass: 2
Flags: W
LayerCount: 2
Fore
SplineSet
434 1157 m 1,0,-1
 448 1272 l 1,1,-1
 968 1272 l 1,2,-1
 954 1157 l 1,3,-1
 434 1157 l 1,0,-1
427 -25 m 0,4,5
 140 -25 140 -25 140 322 c 0,6,7
 140 615 140 615 283 785.5 c 128,-1,8
 426 956 426 956 663 956 c 0,9,10
 773 956 773 956 871 926 c 1,11,-1
 1025 941 l 1,12,13
 1023 932 1023 932 1014.5 912 c 128,-1,14
 1006 892 1006 892 1003 871 c 2,15,-1
 912 153 l 2,16,17
 908 117 908 117 908 97.5 c 128,-1,18
 908 78 908 78 916 0 c 1,19,-1
 778 0 l 1,20,21
 765 62 765 62 765 92.5 c 128,-1,22
 765 123 765 123 768 147 c 1,23,24
 636 -25 636 -25 427 -25 c 0,4,5
641 836 m 0,25,26
 479 836 479 836 383 693.5 c 128,-1,27
 287 551 287 551 287 306 c 0,28,29
 287 194 287 194 326.5 150 c 128,-1,30
 366 106 366 106 464 105.5 c 128,-1,31
 562 105 562 105 655 191.5 c 128,-1,32
 748 278 748 278 805 425 c 1,33,-1
 854 800 l 1,34,35
 748 836 748 836 641 836 c 0,25,26
EndSplineSet
EndChar

StartChar: Abreve
Encoding: 258 258 198
Width: 1126
GlyphClass: 2
Flags: W
LayerCount: 2
Fore
SplineSet
798.5 1388.5 m 128,-1,1
 732 1360 732 1360 643.5 1360 c 128,-1,2
 555 1360 555 1360 489 1388.5 c 128,-1,3
 423 1417 423 1417 364 1484 c 1,4,-1
 461 1577 l 1,5,6
 509 1520 509 1520 548.5 1500.5 c 128,-1,7
 588 1481 588 1481 652.5 1481 c 128,-1,8
 717 1481 717 1481 762 1502 c 128,-1,9
 807 1523 807 1523 859 1577 c 1,10,-1
 934 1484 l 1,11,0
 865 1417 865 1417 798.5 1388.5 c 128,-1,1
-23 0 m 1,12,-1
 610 1298 l 1,13,-1
 682 1298 l 1,14,-1
 995 0 l 1,15,-1
 835 0 l 1,16,-1
 752 373 l 1,17,-1
 300 373 l 1,18,-1
 123 0 l 1,19,-1
 -23 0 l 1,12,-1
358 496 m 1,20,-1
 724 496 l 1,21,-1
 610 1021 l 1,22,-1
 358 496 l 1,20,-1
EndSplineSet
EndChar

StartChar: abreve
Encoding: 259 259 199
Width: 1126
GlyphClass: 2
Flags: W
LayerCount: 2
Fore
SplineSet
597 1213 m 128,-1,1
 635 1193 635 1193 698.5 1193 c 128,-1,2
 762 1193 762 1193 804.5 1213 c 128,-1,3
 847 1233 847 1233 909 1289 c 1,4,-1
 984 1196 l 1,5,6
 909 1130 909 1130 837.5 1101 c 128,-1,7
 766 1072 766 1072 684 1072 c 128,-1,8
 602 1072 602 1072 537.5 1101 c 128,-1,9
 473 1130 473 1130 414 1196 c 1,10,-1
 511 1289 l 1,11,0
 559 1233 559 1233 597 1213 c 128,-1,1
427 -25 m 0,12,13
 140 -25 140 -25 140 322 c 0,14,15
 140 615 140 615 283 785.5 c 128,-1,16
 426 956 426 956 663 956 c 0,17,18
 773 956 773 956 871 926 c 1,19,-1
 1025 941 l 1,20,21
 1023 932 1023 932 1014.5 912 c 128,-1,22
 1006 892 1006 892 1003 871 c 2,23,-1
 912 153 l 2,24,25
 908 117 908 117 908 97.5 c 128,-1,26
 908 78 908 78 916 0 c 1,27,-1
 778 0 l 1,28,29
 765 62 765 62 765 92.5 c 128,-1,30
 765 123 765 123 768 147 c 1,31,32
 636 -25 636 -25 427 -25 c 0,12,13
641 836 m 0,33,34
 479 836 479 836 383 693.5 c 128,-1,35
 287 551 287 551 287 306 c 0,36,37
 287 194 287 194 326.5 150 c 128,-1,38
 366 106 366 106 464 105.5 c 128,-1,39
 562 105 562 105 655 191.5 c 128,-1,40
 748 278 748 278 805 425 c 1,41,-1
 854 800 l 1,42,43
 748 836 748 836 641 836 c 0,33,34
EndSplineSet
EndChar

StartChar: Aogonek
Encoding: 260 260 200
Width: 1126
GlyphClass: 2
Flags: W
LayerCount: 2
Fore
SplineSet
793 -210 m 0,0,1
 793 -263 793 -263 850.5 -263 c 128,-1,2
 908 -263 908 -263 973 -217 c 1,3,-1
 960 -322 l 1,4,5
 886 -366 886 -366 812 -366 c 128,-1,6
 738 -366 738 -366 700 -331 c 128,-1,7
 662 -296 662 -296 662 -233.5 c 128,-1,8
 662 -171 662 -171 706 -114.5 c 128,-1,9
 750 -58 750 -58 835 0 c 1,10,-1
 752 373 l 1,11,-1
 300 373 l 1,12,-1
 123 0 l 1,13,-1
 -23 0 l 1,14,-1
 610 1298 l 1,15,-1
 682 1298 l 1,16,-1
 995 0 l 1,17,18
 877 -67 877 -67 835 -116 c 128,-1,19
 793 -165 793 -165 793 -210 c 0,0,1
358 496 m 1,20,-1
 724 496 l 1,21,-1
 610 1021 l 1,22,-1
 358 496 l 1,20,-1
EndSplineSet
EndChar

StartChar: aogonek
Encoding: 261 261 201
Width: 1126
GlyphClass: 2
Flags: W
LayerCount: 2
Fore
SplineSet
427 -25 m 0,0,1
 140 -25 140 -25 140 322 c 0,2,3
 140 615 140 615 283 785.5 c 128,-1,4
 426 956 426 956 663 956 c 0,5,6
 773 956 773 956 871 926 c 1,7,-1
 1025 941 l 1,8,9
 1023 932 1023 932 1014.5 912 c 128,-1,10
 1006 892 1006 892 1003 871 c 2,11,-1
 912 153 l 2,12,13
 908 117 908 117 908 97.5 c 128,-1,14
 908 78 908 78 916 0 c 1,15,16
 809 -32 809 -32 763 -88.5 c 128,-1,17
 717 -145 717 -145 717 -204 c 128,-1,18
 717 -263 717 -263 770 -263 c 0,19,20
 830 -263 830 -263 894 -217 c 1,21,-1
 881 -322 l 1,22,23
 809 -366 809 -366 735 -366 c 128,-1,24
 661 -366 661 -366 622 -329.5 c 128,-1,25
 583 -293 583 -293 583 -230 c 0,26,27
 583 -97 583 -97 778 0 c 1,28,29
 765 62 765 62 765 92.5 c 128,-1,30
 765 123 765 123 768 147 c 1,31,32
 636 -25 636 -25 427 -25 c 0,0,1
641 836 m 0,33,34
 479 836 479 836 383 693.5 c 128,-1,35
 287 551 287 551 287 306 c 0,36,37
 287 194 287 194 326.5 150 c 128,-1,38
 366 106 366 106 464 105.5 c 128,-1,39
 562 105 562 105 655 191.5 c 128,-1,40
 748 278 748 278 805 425 c 1,41,-1
 854 800 l 1,42,43
 748 836 748 836 641 836 c 0,33,34
EndSplineSet
EndChar

StartChar: Cacute
Encoding: 262 262 202
Width: 1126
GlyphClass: 2
Flags: W
LayerCount: 2
Fore
SplineSet
570 1363 m 1,0,-1
 540 1441 l 1,1,-1
 884 1633 l 1,2,-1
 936 1499 l 1,3,-1
 570 1363 l 1,0,-1
915 972 m 2,4,-1
 918 1006 l 1,5,6
 918 1058 918 1058 868 1110 c 0,7,8
 844 1135 844 1135 799.5 1151.5 c 128,-1,9
 755 1168 755 1168 699 1168 c 0,10,11
 520 1168 520 1168 398.5 983 c 128,-1,12
 277 798 277 798 277 500 c 0,13,14
 277 311 277 311 354.5 208.5 c 128,-1,15
 432 106 432 106 576 106 c 0,16,17
 756 106 756 106 869 260 c 1,18,-1
 966 188 l 1,19,20
 806 -20 806 -20 556 -20 c 0,21,22
 351 -20 351 -20 238 113 c 128,-1,23
 125 246 125 246 125 488 c 0,24,25
 125 671 125 671 170.5 823 c 128,-1,26
 216 975 216 975 295.5 1076.5 c 128,-1,27
 375 1178 375 1178 483.5 1234 c 128,-1,28
 592 1290 592 1290 718 1290 c 0,29,30
 998 1290 998 1290 1084 1026 c 1,31,-1
 919 948 l 1,32,33
 915 961 915 961 915 972 c 2,4,-1
EndSplineSet
EndChar

StartChar: cacute
Encoding: 263 263 203
Width: 1126
GlyphClass: 2
Flags: W
LayerCount: 2
Fore
SplineSet
526 1079 m 1,0,-1
 738 1424 l 1,1,-1
 859 1346 l 1,2,-1
 604 1038 l 1,3,-1
 526 1079 l 1,0,-1
834 680 m 1,4,-1
 836 700 l 1,5,6
 836 734 836 734 790 778 c 0,7,8
 767 801 767 801 723.5 817 c 128,-1,9
 680 833 680 833 625 833 c 0,10,11
 478 833 478 833 382 715.5 c 128,-1,12
 286 598 286 598 286 405 c 0,13,14
 286 265 286 265 355.5 180.5 c 128,-1,15
 425 96 425 96 555 96 c 0,16,17
 713 96 713 96 850 233 c 1,18,-1
 924 133 l 1,19,20
 760 -24 760 -24 535 -24 c 0,21,22
 346 -24 346 -24 239 86 c 128,-1,23
 132 196 132 196 132 388 c 0,24,25
 132 533 132 533 186 658 c 0,26,27
 269 848 269 848 440 920 c 0,28,29
 530 958 530 958 639 958 c 0,30,31
 868 958 868 958 971 775 c 1,32,-1
 847 648 l 1,33,34
 834 661 834 661 834 680 c 1,4,-1
EndSplineSet
EndChar

StartChar: Ccircumflex
Encoding: 264 264 204
Width: 1126
GlyphClass: 2
Flags: W
LayerCount: 2
Fore
SplineSet
473 1363 m 1,0,-1
 415 1435 l 1,1,-1
 666 1601 l 1,2,-1
 778 1601 l 1,3,-1
 995 1435 l 1,4,-1
 917 1363 l 1,5,-1
 707 1492 l 1,6,-1
 473 1363 l 1,0,-1
915 972 m 2,7,-1
 918 1006 l 1,8,9
 918 1058 918 1058 868 1110 c 0,10,11
 844 1135 844 1135 799.5 1151.5 c 128,-1,12
 755 1168 755 1168 699 1168 c 0,13,14
 520 1168 520 1168 398.5 983 c 128,-1,15
 277 798 277 798 277 500 c 0,16,17
 277 311 277 311 354.5 208.5 c 128,-1,18
 432 106 432 106 576 106 c 0,19,20
 756 106 756 106 869 260 c 1,21,-1
 966 188 l 1,22,23
 806 -20 806 -20 556 -20 c 0,24,25
 351 -20 351 -20 238 113 c 128,-1,26
 125 246 125 246 125 488 c 0,27,28
 125 671 125 671 170.5 823 c 128,-1,29
 216 975 216 975 295.5 1076.5 c 128,-1,30
 375 1178 375 1178 483.5 1234 c 128,-1,31
 592 1290 592 1290 718 1290 c 0,32,33
 998 1290 998 1290 1084 1026 c 1,34,-1
 919 948 l 1,35,36
 915 961 915 961 915 972 c 2,7,-1
EndSplineSet
EndChar

StartChar: ccircumflex
Encoding: 265 265 205
Width: 1126
GlyphClass: 2
Flags: W
LayerCount: 2
Fore
SplineSet
443 1071 m 1,0,-1
 360 1142 l 1,1,-1
 639 1451 l 1,2,-1
 684 1451 l 1,3,-1
 884 1135 l 1,4,-1
 781 1063 l 1,5,-1
 640 1282 l 1,6,-1
 443 1071 l 1,0,-1
834 680 m 1,7,-1
 836 700 l 1,8,9
 836 734 836 734 790 778 c 0,10,11
 767 801 767 801 723.5 817 c 128,-1,12
 680 833 680 833 625 833 c 0,13,14
 478 833 478 833 382 715.5 c 128,-1,15
 286 598 286 598 286 405 c 0,16,17
 286 265 286 265 355.5 180.5 c 128,-1,18
 425 96 425 96 555 96 c 0,19,20
 713 96 713 96 850 233 c 1,21,-1
 924 133 l 1,22,23
 760 -24 760 -24 535 -24 c 0,24,25
 346 -24 346 -24 239 86 c 128,-1,26
 132 196 132 196 132 388 c 0,27,28
 132 533 132 533 186 658 c 0,29,30
 269 848 269 848 440 920 c 0,31,32
 530 958 530 958 639 958 c 0,33,34
 868 958 868 958 971 775 c 1,35,-1
 847 648 l 1,36,37
 834 661 834 661 834 680 c 1,7,-1
EndSplineSet
EndChar

StartChar: Cdotaccent
Encoding: 266 266 206
Width: 1126
GlyphClass: 2
Flags: W
LayerCount: 2
Fore
SplineSet
792.5 1426.5 m 128,-1,1
 758 1391 758 1391 708 1391 c 128,-1,2
 658 1391 658 1391 625 1422.5 c 128,-1,3
 592 1454 592 1454 592 1504 c 128,-1,4
 592 1554 592 1554 627.5 1590 c 128,-1,5
 663 1626 663 1626 713 1626 c 128,-1,6
 763 1626 763 1626 795 1594.5 c 128,-1,7
 827 1563 827 1563 827 1512.5 c 128,-1,0
 827 1462 827 1462 792.5 1426.5 c 128,-1,1
915 972 m 2,8,-1
 918 1006 l 1,9,10
 918 1058 918 1058 868 1110 c 0,11,12
 844 1135 844 1135 799.5 1151.5 c 128,-1,13
 755 1168 755 1168 699 1168 c 0,14,15
 520 1168 520 1168 398.5 983 c 128,-1,16
 277 798 277 798 277 500 c 0,17,18
 277 311 277 311 354.5 208.5 c 128,-1,19
 432 106 432 106 576 106 c 0,20,21
 756 106 756 106 869 260 c 1,22,-1
 966 188 l 1,23,24
 806 -20 806 -20 556 -20 c 0,25,26
 351 -20 351 -20 238 113 c 128,-1,27
 125 246 125 246 125 488 c 0,28,29
 125 671 125 671 170.5 823 c 128,-1,30
 216 975 216 975 295.5 1076.5 c 128,-1,31
 375 1178 375 1178 483.5 1234 c 128,-1,32
 592 1290 592 1290 718 1290 c 0,33,34
 998 1290 998 1290 1084 1026 c 1,35,-1
 919 948 l 1,36,37
 915 961 915 961 915 972 c 2,8,-1
EndSplineSet
EndChar

StartChar: cdotaccent
Encoding: 267 267 207
Width: 1126
GlyphClass: 2
Flags: W
LayerCount: 2
Fore
SplineSet
743.5 1175 m 128,-1,1
 708 1141 708 1141 658.5 1141 c 128,-1,2
 609 1141 609 1141 576.5 1172.5 c 128,-1,3
 544 1204 544 1204 544 1254 c 128,-1,4
 544 1304 544 1304 579.5 1340 c 128,-1,5
 615 1376 615 1376 665 1376 c 128,-1,6
 715 1376 715 1376 747 1344.5 c 128,-1,7
 779 1313 779 1313 779 1261 c 128,-1,0
 779 1209 779 1209 743.5 1175 c 128,-1,1
834 680 m 1,8,-1
 836 700 l 1,9,10
 836 734 836 734 790 778 c 0,11,12
 767 801 767 801 723.5 817 c 128,-1,13
 680 833 680 833 625 833 c 0,14,15
 478 833 478 833 382 715.5 c 128,-1,16
 286 598 286 598 286 405 c 0,17,18
 286 265 286 265 355.5 180.5 c 128,-1,19
 425 96 425 96 555 96 c 0,20,21
 713 96 713 96 850 233 c 1,22,-1
 924 133 l 1,23,24
 760 -24 760 -24 535 -24 c 0,25,26
 346 -24 346 -24 239 86 c 128,-1,27
 132 196 132 196 132 388 c 0,28,29
 132 533 132 533 186 658 c 0,30,31
 269 848 269 848 440 920 c 0,32,33
 530 958 530 958 639 958 c 0,34,35
 868 958 868 958 971 775 c 1,36,-1
 847 648 l 1,37,38
 834 661 834 661 834 680 c 1,8,-1
EndSplineSet
EndChar

StartChar: Ccaron
Encoding: 268 268 208
Width: 1126
GlyphClass: 2
Flags: W
LayerCount: 2
Fore
SplineSet
642 1358 m 1,0,-1
 425 1524 l 1,1,-1
 503 1601 l 1,2,-1
 713 1472 l 1,3,-1
 947 1601 l 1,4,-1
 1005 1524 l 1,5,-1
 754 1358 l 1,6,-1
 642 1358 l 1,0,-1
915 972 m 2,7,-1
 918 1006 l 1,8,9
 918 1058 918 1058 868 1110 c 0,10,11
 844 1135 844 1135 799.5 1151.5 c 128,-1,12
 755 1168 755 1168 699 1168 c 0,13,14
 520 1168 520 1168 398.5 983 c 128,-1,15
 277 798 277 798 277 500 c 0,16,17
 277 311 277 311 354.5 208.5 c 128,-1,18
 432 106 432 106 576 106 c 0,19,20
 756 106 756 106 869 260 c 1,21,-1
 966 188 l 1,22,23
 806 -20 806 -20 556 -20 c 0,24,25
 351 -20 351 -20 238 113 c 128,-1,26
 125 246 125 246 125 488 c 0,27,28
 125 671 125 671 170.5 823 c 128,-1,29
 216 975 216 975 295.5 1076.5 c 128,-1,30
 375 1178 375 1178 483.5 1234 c 128,-1,31
 592 1290 592 1290 718 1290 c 0,32,33
 998 1290 998 1290 1084 1026 c 1,34,-1
 919 948 l 1,35,36
 915 961 915 961 915 972 c 2,7,-1
EndSplineSet
EndChar

StartChar: ccaron
Encoding: 269 269 209
Width: 1126
GlyphClass: 2
Flags: W
LayerCount: 2
Fore
SplineSet
621 1041 m 1,0,-1
 413 1360 l 1,1,-1
 514 1431 l 1,2,-1
 661 1199 l 1,3,-1
 862 1429 l 1,4,-1
 947 1357 l 1,5,-1
 666 1041 l 1,6,-1
 621 1041 l 1,0,-1
834 680 m 1,7,-1
 836 700 l 1,8,9
 836 734 836 734 790 778 c 0,10,11
 767 801 767 801 723.5 817 c 128,-1,12
 680 833 680 833 625 833 c 0,13,14
 478 833 478 833 382 715.5 c 128,-1,15
 286 598 286 598 286 405 c 0,16,17
 286 265 286 265 355.5 180.5 c 128,-1,18
 425 96 425 96 555 96 c 0,19,20
 713 96 713 96 850 233 c 1,21,-1
 924 133 l 1,22,23
 760 -24 760 -24 535 -24 c 0,24,25
 346 -24 346 -24 239 86 c 128,-1,26
 132 196 132 196 132 388 c 0,27,28
 132 533 132 533 186 658 c 0,29,30
 269 848 269 848 440 920 c 0,31,32
 530 958 530 958 639 958 c 0,33,34
 868 958 868 958 971 775 c 1,35,-1
 847 648 l 1,36,37
 834 661 834 661 834 680 c 1,7,-1
EndSplineSet
EndChar

StartChar: Dcaron
Encoding: 270 270 210
Width: 1126
GlyphClass: 2
Flags: W
LayerCount: 2
Fore
SplineSet
492 1358 m 1,0,-1
 275 1524 l 1,1,-1
 353 1601 l 1,2,-1
 563 1472 l 1,3,-1
 797 1601 l 1,4,-1
 855 1524 l 1,5,-1
 604 1358 l 1,6,-1
 492 1358 l 1,0,-1
551 1276 m 2,7,8
 708 1276 708 1276 796.5 1233.5 c 128,-1,9
 885 1191 885 1191 941 1102 c 0,10,11
 1019 976 1019 976 1019 776 c 0,12,13
 1019 773 1019 773 1019 769 c 0,14,15
 1019 582 1019 582 964 429 c 128,-1,16
 909 276 909 276 812 168 c 0,17,18
 659 -2 659 -2 370 -2 c 2,19,-1
 96 -2 l 1,20,-1
 252 1276 l 1,21,-1
 551 1276 l 2,7,8
379 121 m 2,22,23
 621 121 621 121 746 284 c 128,-1,24
 871 447 871 447 871 762 c 0,25,26
 871 954 871 954 788 1053.5 c 128,-1,27
 705 1153 705 1153 527 1153 c 2,28,-1
 380 1153 l 1,29,-1
 254 121 l 1,30,-1
 379 121 l 2,22,23
EndSplineSet
EndChar

StartChar: dcaron
Encoding: 271 271 211
Width: 1126
GlyphClass: 2
Flags: W
LayerCount: 2
Fore
SplineSet
980 1037 m 1,0,-1
 1085 1412 l 1,1,-1
 1250 1412 l 1,2,-1
 1058 1010 l 1,3,-1
 980 1037 l 1,0,-1
283 -25 m 0,4,5
 -2 -25 -2 -25 -2 307 c 0,6,7
 -2 619 -2 619 142.5 787.5 c 128,-1,8
 287 956 287 956 523 956 c 0,9,10
 648 956 648 956 733 912 c 1,11,-1
 774 1212 l 1,12,-1
 792 1362 l 1,13,-1
 946 1362 l 1,14,15
 945 1353 945 1353 935.5 1333 c 128,-1,16
 926 1313 926 1313 924 1292 c 2,17,-1
 772 153 l 2,18,19
 768 129 768 129 768 103.5 c 128,-1,20
 768 78 768 78 776 0 c 1,21,-1
 638 0 l 1,22,23
 625 62 625 62 625 95 c 128,-1,24
 625 128 625 128 629 153 c 1,25,26
 495 -25 495 -25 283 -25 c 0,4,5
315 105 m 0,27,28
 448 105 448 105 536 202 c 128,-1,29
 624 299 624 299 670 455 c 1,30,-1
 714 773 l 1,31,32
 628 836 628 836 485 836 c 128,-1,33
 342 836 342 836 244 703.5 c 128,-1,34
 146 571 146 571 146 314 c 0,35,36
 146 204 146 204 186 154.5 c 128,-1,37
 226 105 226 105 315 105 c 0,27,28
EndSplineSet
EndChar

StartChar: Dcroat
Encoding: 272 272 212
Width: 1126
GlyphClass: 2
Flags: W
LayerCount: 2
Fore
SplineSet
551 1276 m 2,0,1
 708 1276 708 1276 796.5 1233.5 c 128,-1,2
 885 1191 885 1191 941 1102 c 0,3,4
 1019 976 1019 976 1019 776 c 0,5,6
 1019 773 1019 773 1019 769 c 0,7,8
 1019 582 1019 582 964 429 c 128,-1,9
 909 276 909 276 812 168 c 0,10,11
 659 -2 659 -2 370 -2 c 2,12,-1
 96 -2 l 1,13,-1
 171 611 l 1,14,-1
 40 611 l 1,15,-1
 54 730 l 1,16,-1
 185 730 l 1,17,-1
 252 1276 l 1,18,-1
 551 1276 l 2,0,1
379 121 m 2,19,20
 621 121 621 121 746 284 c 128,-1,21
 871 447 871 447 871 762 c 0,22,23
 871 954 871 954 788 1053.5 c 128,-1,24
 705 1153 705 1153 527 1153 c 2,25,-1
 380 1153 l 1,26,-1
 328 730 l 1,27,-1
 640 730 l 1,28,-1
 626 611 l 1,29,-1
 314 611 l 1,30,-1
 254 121 l 1,31,-1
 379 121 l 2,19,20
EndSplineSet
EndChar

StartChar: dcroat
Encoding: 273 273 213
Width: 1126
GlyphClass: 2
Flags: W
LayerCount: 2
Fore
SplineSet
373 -25 m 0,0,1
 88 -25 88 -25 88 307 c 0,2,3
 88 619 88 619 232.5 787.5 c 128,-1,4
 377 956 377 956 613 956 c 0,5,6
 738 956 738 956 823 912 c 1,7,-1
 845 1074 l 1,8,-1
 572 1074 l 1,9,-1
 586 1189 l 1,10,-1
 861 1189 l 1,11,-1
 882 1362 l 1,12,-1
 1036 1362 l 1,13,14
 1034 1353 1034 1353 1025.5 1333 c 128,-1,15
 1017 1313 1017 1313 1014 1292 c 2,16,-1
 1001 1189 l 1,17,-1
 1106 1189 l 1,18,-1
 1092 1074 l 1,19,-1
 985 1074 l 1,20,-1
 862 153 l 2,21,22
 858 129 858 129 858 103.5 c 128,-1,23
 858 78 858 78 866 0 c 1,24,-1
 728 0 l 1,25,26
 715 62 715 62 715 95 c 128,-1,27
 715 128 715 128 719 153 c 1,28,29
 585 -25 585 -25 373 -25 c 0,0,1
405 105 m 0,30,31
 538 105 538 105 626 202 c 128,-1,32
 714 299 714 299 760 455 c 1,33,-1
 804 773 l 1,34,35
 718 836 718 836 575 836 c 128,-1,36
 432 836 432 836 334 703.5 c 128,-1,37
 236 571 236 571 236 314 c 0,38,39
 236 204 236 204 276 154.5 c 128,-1,40
 316 105 316 105 405 105 c 0,30,31
EndSplineSet
EndChar

StartChar: Emacron
Encoding: 274 274 214
Width: 1126
GlyphClass: 2
Flags: W
LayerCount: 2
Fore
SplineSet
403 1415 m 1,0,-1
 417 1530 l 1,1,-1
 917 1530 l 1,2,-1
 903 1415 l 1,3,-1
 403 1415 l 1,0,-1
104 0 m 1,4,-1
 260 1276 l 1,5,-1
 1043 1276 l 1,6,-1
 1028 1153 l 1,7,-1
 389 1153 l 1,8,-1
 337 727 l 1,9,-1
 863 727 l 1,10,-1
 848 604 l 1,11,-1
 322 604 l 1,12,-1
 263 123 l 1,13,-1
 895 123 l 1,14,-1
 880 0 l 1,15,-1
 104 0 l 1,4,-1
EndSplineSet
EndChar

StartChar: emacron
Encoding: 275 275 215
Width: 1126
GlyphClass: 2
Flags: W
LayerCount: 2
Fore
SplineSet
400 1157 m 1,0,-1
 414 1272 l 1,1,-1
 934 1272 l 1,2,-1
 920 1157 l 1,3,-1
 400 1157 l 1,0,-1
477 -25 m 0,4,5
 345 -25 345 -25 244 48 c 1,6,7
 192 87 192 87 161 159 c 128,-1,8
 130 231 130 231 130 326 c 128,-1,9
 130 421 130 421 157.5 532 c 128,-1,10
 185 643 185 643 235.5 728 c 128,-1,11
 286 813 286 813 350 862 c 1,12,13
 476 956 476 956 629.5 956 c 128,-1,14
 783 956 783 956 855 879.5 c 128,-1,15
 927 803 927 803 927 677 c 0,16,17
 927 600 927 600 887 560.5 c 128,-1,18
 847 521 847 521 749 508 c 2,19,-1
 291 446 l 1,20,21
 279 391 279 391 279 343 c 0,22,23
 279 227 279 227 340 162 c 128,-1,24
 401 97 401 97 497.5 97 c 128,-1,25
 594 97 594 97 656.5 128.5 c 128,-1,26
 719 160 719 160 782 227 c 1,27,-1
 854 147 l 1,28,29
 704 -25 704 -25 477 -25 c 0,4,5
787 696 m 0,30,31
 787 760 787 760 747.5 797.5 c 128,-1,32
 708 835 708 835 624 835 c 0,33,34
 509 835 509 835 428.5 761.5 c 128,-1,35
 348 688 348 688 310 561 c 1,36,-1
 690 614 l 2,37,38
 743 621 743 621 765 640 c 128,-1,39
 787 659 787 659 787 696 c 0,30,31
EndSplineSet
EndChar

StartChar: Ebreve
Encoding: 276 276 216
Width: 1126
GlyphClass: 2
Flags: W
LayerCount: 2
Fore
SplineSet
817.5 1388.5 m 128,-1,1
 751 1360 751 1360 662.5 1360 c 128,-1,2
 574 1360 574 1360 508 1388.5 c 128,-1,3
 442 1417 442 1417 383 1484 c 1,4,-1
 480 1577 l 1,5,6
 528 1520 528 1520 567.5 1500.5 c 128,-1,7
 607 1481 607 1481 671.5 1481 c 128,-1,8
 736 1481 736 1481 781 1502 c 128,-1,9
 826 1523 826 1523 878 1577 c 1,10,-1
 953 1484 l 1,11,0
 884 1417 884 1417 817.5 1388.5 c 128,-1,1
104 0 m 1,12,-1
 260 1276 l 1,13,-1
 1043 1276 l 1,14,-1
 1028 1153 l 1,15,-1
 389 1153 l 1,16,-1
 337 727 l 1,17,-1
 863 727 l 1,18,-1
 848 604 l 1,19,-1
 322 604 l 1,20,-1
 263 123 l 1,21,-1
 895 123 l 1,22,-1
 880 0 l 1,23,-1
 104 0 l 1,12,-1
EndSplineSet
EndChar

StartChar: ebreve
Encoding: 277 277 217
Width: 1126
GlyphClass: 2
Flags: W
LayerCount: 2
Fore
SplineSet
650 1072 m 128,-1,1
 568 1072 568 1072 503.5 1101 c 128,-1,2
 439 1130 439 1130 380 1196 c 1,3,-1
 477 1289 l 1,4,5
 525 1233 525 1233 563 1213 c 128,-1,6
 601 1193 601 1193 664.5 1193 c 128,-1,7
 728 1193 728 1193 770.5 1213 c 128,-1,8
 813 1233 813 1233 875 1289 c 1,9,-1
 950 1196 l 1,10,11
 875 1130 875 1130 803.5 1101 c 128,-1,0
 732 1072 732 1072 650 1072 c 128,-1,1
477 -25 m 0,12,13
 345 -25 345 -25 244 48 c 1,14,15
 192 87 192 87 161 159 c 128,-1,16
 130 231 130 231 130 326 c 128,-1,17
 130 421 130 421 157.5 532 c 128,-1,18
 185 643 185 643 235.5 728 c 128,-1,19
 286 813 286 813 350 862 c 1,20,21
 476 956 476 956 629.5 956 c 128,-1,22
 783 956 783 956 855 879.5 c 128,-1,23
 927 803 927 803 927 677 c 0,24,25
 927 600 927 600 887 560.5 c 128,-1,26
 847 521 847 521 749 508 c 2,27,-1
 291 446 l 1,28,29
 279 391 279 391 279 343 c 0,30,31
 279 227 279 227 340 162 c 128,-1,32
 401 97 401 97 497.5 97 c 128,-1,33
 594 97 594 97 656.5 128.5 c 128,-1,34
 719 160 719 160 782 227 c 1,35,-1
 854 147 l 1,36,37
 704 -25 704 -25 477 -25 c 0,12,13
787 696 m 0,38,39
 787 760 787 760 747.5 797.5 c 128,-1,40
 708 835 708 835 624 835 c 0,41,42
 509 835 509 835 428.5 761.5 c 128,-1,43
 348 688 348 688 310 561 c 1,44,-1
 690 614 l 2,45,46
 743 621 743 621 765 640 c 128,-1,47
 787 659 787 659 787 696 c 0,38,39
EndSplineSet
EndChar

StartChar: Edotaccent
Encoding: 278 278 218
Width: 1126
GlyphClass: 2
Flags: W
LayerCount: 2
Fore
SplineSet
757.5 1426.5 m 128,-1,1
 723 1391 723 1391 673 1391 c 128,-1,2
 623 1391 623 1391 590 1422.5 c 128,-1,3
 557 1454 557 1454 557 1504 c 128,-1,4
 557 1554 557 1554 592.5 1590 c 128,-1,5
 628 1626 628 1626 678 1626 c 128,-1,6
 728 1626 728 1626 760 1594.5 c 128,-1,7
 792 1563 792 1563 792 1512.5 c 128,-1,0
 792 1462 792 1462 757.5 1426.5 c 128,-1,1
104 0 m 1,8,-1
 260 1276 l 1,9,-1
 1043 1276 l 1,10,-1
 1028 1153 l 1,11,-1
 389 1153 l 1,12,-1
 337 727 l 1,13,-1
 863 727 l 1,14,-1
 848 604 l 1,15,-1
 322 604 l 1,16,-1
 263 123 l 1,17,-1
 895 123 l 1,18,-1
 880 0 l 1,19,-1
 104 0 l 1,8,-1
EndSplineSet
EndChar

StartChar: edotaccent
Encoding: 279 279 219
Width: 1126
GlyphClass: 2
Flags: W
LayerCount: 2
Fore
SplineSet
745.5 1175 m 128,-1,1
 710 1141 710 1141 660.5 1141 c 128,-1,2
 611 1141 611 1141 578.5 1172.5 c 128,-1,3
 546 1204 546 1204 546 1254 c 128,-1,4
 546 1304 546 1304 581.5 1340 c 128,-1,5
 617 1376 617 1376 667 1376 c 128,-1,6
 717 1376 717 1376 749 1344.5 c 128,-1,7
 781 1313 781 1313 781 1261 c 128,-1,0
 781 1209 781 1209 745.5 1175 c 128,-1,1
477 -25 m 0,8,9
 345 -25 345 -25 244 48 c 1,10,11
 192 87 192 87 161 159 c 128,-1,12
 130 231 130 231 130 326 c 128,-1,13
 130 421 130 421 157.5 532 c 128,-1,14
 185 643 185 643 235.5 728 c 128,-1,15
 286 813 286 813 350 862 c 1,16,17
 476 956 476 956 629.5 956 c 128,-1,18
 783 956 783 956 855 879.5 c 128,-1,19
 927 803 927 803 927 677 c 0,20,21
 927 600 927 600 887 560.5 c 128,-1,22
 847 521 847 521 749 508 c 2,23,-1
 291 446 l 1,24,25
 279 391 279 391 279 343 c 0,26,27
 279 227 279 227 340 162 c 128,-1,28
 401 97 401 97 497.5 97 c 128,-1,29
 594 97 594 97 656.5 128.5 c 128,-1,30
 719 160 719 160 782 227 c 1,31,-1
 854 147 l 1,32,33
 704 -25 704 -25 477 -25 c 0,8,9
787 696 m 0,34,35
 787 760 787 760 747.5 797.5 c 128,-1,36
 708 835 708 835 624 835 c 0,37,38
 509 835 509 835 428.5 761.5 c 128,-1,39
 348 688 348 688 310 561 c 1,40,-1
 690 614 l 2,41,42
 743 621 743 621 765 640 c 128,-1,43
 787 659 787 659 787 696 c 0,34,35
EndSplineSet
EndChar

StartChar: Eogonek
Encoding: 280 280 220
Width: 1126
GlyphClass: 2
Flags: W
LayerCount: 2
Fore
SplineSet
685 -222 m 0,0,1
 685 -263 685 -263 733 -263 c 0,2,3
 793 -263 793 -263 857 -217 c 1,4,-1
 844 -322 l 1,5,6
 772 -366 772 -366 700 -366 c 128,-1,7
 628 -366 628 -366 586.5 -333.5 c 128,-1,8
 545 -301 545 -301 545 -251 c 0,9,10
 545 -180 545 -180 590.5 -127 c 128,-1,11
 636 -74 636 -74 754 0 c 1,12,-1
 104 0 l 1,13,-1
 260 1276 l 1,14,-1
 1043 1276 l 1,15,-1
 1028 1153 l 1,16,-1
 389 1153 l 1,17,-1
 337 727 l 1,18,-1
 863 727 l 1,19,-1
 848 604 l 1,20,-1
 322 604 l 1,21,-1
 263 123 l 1,22,-1
 895 123 l 1,23,-1
 879 0 l 1,24,25
 761 -88 761 -88 723 -133.5 c 128,-1,26
 685 -179 685 -179 685 -222 c 0,0,1
EndSplineSet
EndChar

StartChar: eogonek
Encoding: 281 281 221
Width: 1126
GlyphClass: 2
Flags: W
LayerCount: 2
Fore
SplineSet
343 -330 m 128,-1,1
 304 -294 304 -294 304 -235.5 c 128,-1,2
 304 -177 304 -177 341.5 -131.5 c 128,-1,3
 379 -86 379 -86 491 -25 c 1,4,-1
 477 -25 l 2,5,6
 345 -25 345 -25 244 48 c 1,7,8
 192 87 192 87 161 159 c 128,-1,9
 130 231 130 231 130 326 c 128,-1,10
 130 421 130 421 157.5 532 c 128,-1,11
 185 643 185 643 235.5 728 c 128,-1,12
 286 813 286 813 350 862 c 1,13,14
 476 956 476 956 629.5 956 c 128,-1,15
 783 956 783 956 855 879.5 c 128,-1,16
 927 803 927 803 927 677 c 0,17,18
 927 600 927 600 887 560.5 c 128,-1,19
 847 521 847 521 749 508 c 2,20,-1
 291 446 l 1,21,22
 279 391 279 391 279 343 c 0,23,24
 279 227 279 227 340 162 c 128,-1,25
 401 97 401 97 497.5 97 c 128,-1,26
 594 97 594 97 656.5 128.5 c 128,-1,27
 719 160 719 160 782 227 c 1,28,-1
 854 147 l 1,29,30
 777 59 777 59 679 16 c 1,31,32
 536 -62 536 -62 487 -113.5 c 128,-1,33
 438 -165 438 -165 438 -214 c 128,-1,34
 438 -263 438 -263 494.5 -263 c 128,-1,35
 551 -263 551 -263 615 -217 c 1,36,-1
 602 -322 l 1,37,38
 530 -366 530 -366 456 -366 c 128,-1,0
 382 -366 382 -366 343 -330 c 128,-1,1
787 696 m 0,39,40
 787 760 787 760 747.5 797.5 c 128,-1,41
 708 835 708 835 624 835 c 0,42,43
 509 835 509 835 428.5 761.5 c 128,-1,44
 348 688 348 688 310 561 c 1,45,-1
 690 614 l 2,46,47
 743 621 743 621 765 640 c 128,-1,48
 787 659 787 659 787 696 c 0,39,40
EndSplineSet
EndChar

StartChar: Ecaron
Encoding: 282 282 222
Width: 1126
GlyphClass: 2
Flags: W
LayerCount: 2
Fore
SplineSet
607 1358 m 1,0,-1
 390 1524 l 1,1,-1
 468 1601 l 1,2,-1
 678 1472 l 1,3,-1
 912 1601 l 1,4,-1
 970 1524 l 1,5,-1
 719 1358 l 1,6,-1
 607 1358 l 1,0,-1
104 0 m 1,7,-1
 260 1276 l 1,8,-1
 1043 1276 l 1,9,-1
 1028 1153 l 1,10,-1
 389 1153 l 1,11,-1
 337 727 l 1,12,-1
 863 727 l 1,13,-1
 848 604 l 1,14,-1
 322 604 l 1,15,-1
 263 123 l 1,16,-1
 895 123 l 1,17,-1
 880 0 l 1,18,-1
 104 0 l 1,7,-1
EndSplineSet
EndChar

StartChar: ecaron
Encoding: 283 283 223
Width: 1126
GlyphClass: 2
Flags: W
LayerCount: 2
Fore
SplineSet
623 1041 m 1,0,-1
 415 1360 l 1,1,-1
 516 1431 l 1,2,-1
 663 1199 l 1,3,-1
 864 1429 l 1,4,-1
 949 1357 l 1,5,-1
 668 1041 l 1,6,-1
 623 1041 l 1,0,-1
477 -25 m 0,7,8
 345 -25 345 -25 244 48 c 1,9,10
 192 87 192 87 161 159 c 128,-1,11
 130 231 130 231 130 326 c 128,-1,12
 130 421 130 421 157.5 532 c 128,-1,13
 185 643 185 643 235.5 728 c 128,-1,14
 286 813 286 813 350 862 c 1,15,16
 476 956 476 956 629.5 956 c 128,-1,17
 783 956 783 956 855 879.5 c 128,-1,18
 927 803 927 803 927 677 c 0,19,20
 927 600 927 600 887 560.5 c 128,-1,21
 847 521 847 521 749 508 c 2,22,-1
 291 446 l 1,23,24
 279 391 279 391 279 343 c 0,25,26
 279 227 279 227 340 162 c 128,-1,27
 401 97 401 97 497.5 97 c 128,-1,28
 594 97 594 97 656.5 128.5 c 128,-1,29
 719 160 719 160 782 227 c 1,30,-1
 854 147 l 1,31,32
 704 -25 704 -25 477 -25 c 0,7,8
787 696 m 0,33,34
 787 760 787 760 747.5 797.5 c 128,-1,35
 708 835 708 835 624 835 c 0,36,37
 509 835 509 835 428.5 761.5 c 128,-1,38
 348 688 348 688 310 561 c 1,39,-1
 690 614 l 2,40,41
 743 621 743 621 765 640 c 128,-1,42
 787 659 787 659 787 696 c 0,33,34
EndSplineSet
EndChar

StartChar: Gcircumflex
Encoding: 284 284 224
Width: 1126
GlyphClass: 2
Flags: W
LayerCount: 2
Fore
SplineSet
473 1363 m 1,0,-1
 415 1435 l 1,1,-1
 666 1601 l 1,2,-1
 778 1601 l 1,3,-1
 995 1435 l 1,4,-1
 917 1363 l 1,5,-1
 707 1492 l 1,6,-1
 473 1363 l 1,0,-1
897 970 m 1,7,-1
 901 996 l 1,8,9
 901 1065 901 1065 841 1117 c 128,-1,10
 781 1169 781 1169 691 1169 c 128,-1,11
 601 1169 601 1169 524.5 1123.5 c 128,-1,12
 448 1078 448 1078 389 995 c 128,-1,13
 330 912 330 912 295.5 785.5 c 128,-1,14
 261 659 261 659 261 507 c 0,15,16
 261 310 261 310 338.5 207.5 c 128,-1,17
 416 105 416 105 557.5 105 c 128,-1,18
 699 105 699 105 784 151 c 1,19,-1
 831 487 l 1,20,-1
 600 487 l 1,21,-1
 615 610 l 1,22,-1
 990 610 l 1,23,-1
 918 84 l 1,24,25
 756 -21 756 -21 543.5 -21 c 128,-1,26
 331 -21 331 -21 218.5 112 c 128,-1,27
 106 245 106 245 106 486 c 0,28,29
 106 546 106 546 116 631 c 0,30,31
 154 946 154 946 305 1118 c 128,-1,32
 456 1290 456 1290 710 1290 c 0,33,34
 835 1290 835 1290 931 1222.5 c 128,-1,35
 1027 1155 1027 1155 1065 1026 c 1,36,-1
 902 948 l 1,37,38
 897 958 897 958 897 970 c 1,7,-1
EndSplineSet
EndChar

StartChar: gcircumflex
Encoding: 285 285 225
Width: 1126
GlyphClass: 2
Flags: W
LayerCount: 2
Fore
SplineSet
474 1071 m 1,0,-1
 391 1142 l 1,1,-1
 670 1451 l 1,2,-1
 715 1451 l 1,3,-1
 915 1135 l 1,4,-1
 812 1063 l 1,5,-1
 671 1282 l 1,6,-1
 474 1071 l 1,0,-1
171 -216 m 0,7,8
 171 -259 171 -259 208 -288 c 0,9,10
 272 -337 272 -337 361.5 -337 c 128,-1,11
 451 -337 451 -337 521.5 -307.5 c 128,-1,12
 592 -278 592 -278 646.5 -207 c 128,-1,13
 701 -136 701 -136 717 -29 c 2,14,-1
 739 117 l 1,15,16
 611 -25 611 -25 425 -25 c 0,17,18
 138 -25 138 -25 138 306 c 0,19,20
 138 616 138 616 282 786 c 128,-1,21
 426 956 426 956 673 956 c 0,22,23
 779 956 779 956 863 927 c 1,24,-1
 1013 941 l 1,25,26
 1012 932 1012 932 1002.5 912 c 128,-1,27
 993 892 993 892 991 871 c 2,28,-1
 983 804 l 1,29,-1
 857 -16 l 2,30,31
 839 -135 839 -135 792.5 -224 c 128,-1,32
 746 -313 746 -313 678 -366 c 1,33,34
 544 -473 544 -473 356 -473 c 0,35,36
 261 -473 261 -473 202 -448 c 128,-1,37
 143 -423 143 -423 86 -373 c 1,38,-1
 149 -185 l 1,39,40
 171 -193 171 -193 171 -216 c 0,7,8
455 105 m 0,41,42
 666 105 666 105 775 357 c 1,43,-1
 841 795 l 1,44,45
 755 836 755 836 641 836 c 0,46,47
 483 836 483 836 383.5 703.5 c 128,-1,48
 284 571 284 571 284 317 c 0,49,50
 284 206 284 206 324.5 155.5 c 128,-1,51
 365 105 365 105 455 105 c 0,41,42
EndSplineSet
EndChar

StartChar: Gbreve
Encoding: 286 286 226
Width: 1126
GlyphClass: 2
Flags: W
LayerCount: 2
Fore
SplineSet
852.5 1388.5 m 128,-1,1
 786 1360 786 1360 697.5 1360 c 128,-1,2
 609 1360 609 1360 543 1388.5 c 128,-1,3
 477 1417 477 1417 418 1484 c 1,4,-1
 515 1577 l 1,5,6
 563 1520 563 1520 602.5 1500.5 c 128,-1,7
 642 1481 642 1481 706.5 1481 c 128,-1,8
 771 1481 771 1481 816 1502 c 128,-1,9
 861 1523 861 1523 913 1577 c 1,10,-1
 988 1484 l 1,11,0
 919 1417 919 1417 852.5 1388.5 c 128,-1,1
897 970 m 1,12,-1
 901 996 l 1,13,14
 901 1065 901 1065 841 1117 c 128,-1,15
 781 1169 781 1169 691 1169 c 128,-1,16
 601 1169 601 1169 524.5 1123.5 c 128,-1,17
 448 1078 448 1078 389 995 c 128,-1,18
 330 912 330 912 295.5 785.5 c 128,-1,19
 261 659 261 659 261 507 c 0,20,21
 261 310 261 310 338.5 207.5 c 128,-1,22
 416 105 416 105 557.5 105 c 128,-1,23
 699 105 699 105 784 151 c 1,24,-1
 831 487 l 1,25,-1
 600 487 l 1,26,-1
 615 610 l 1,27,-1
 990 610 l 1,28,-1
 918 84 l 1,29,30
 756 -21 756 -21 543.5 -21 c 128,-1,31
 331 -21 331 -21 218.5 112 c 128,-1,32
 106 245 106 245 106 486 c 0,33,34
 106 546 106 546 116 631 c 0,35,36
 154 946 154 946 305 1118 c 128,-1,37
 456 1290 456 1290 710 1290 c 0,38,39
 835 1290 835 1290 931 1222.5 c 128,-1,40
 1027 1155 1027 1155 1065 1026 c 1,41,-1
 902 948 l 1,42,43
 897 958 897 958 897 970 c 1,12,-1
EndSplineSet
EndChar

StartChar: gbreve
Encoding: 287 287 227
Width: 1126
GlyphClass: 2
Flags: W
LayerCount: 2
Fore
SplineSet
592 1213 m 128,-1,1
 630 1193 630 1193 693.5 1193 c 128,-1,2
 757 1193 757 1193 799.5 1213 c 128,-1,3
 842 1233 842 1233 904 1289 c 1,4,-1
 979 1196 l 1,5,6
 904 1130 904 1130 832.5 1101 c 128,-1,7
 761 1072 761 1072 679 1072 c 128,-1,8
 597 1072 597 1072 532.5 1101 c 128,-1,9
 468 1130 468 1130 409 1196 c 1,10,-1
 506 1289 l 1,11,0
 554 1233 554 1233 592 1213 c 128,-1,1
171 -216 m 0,12,13
 171 -259 171 -259 208 -288 c 0,14,15
 272 -337 272 -337 361.5 -337 c 128,-1,16
 451 -337 451 -337 521.5 -307.5 c 128,-1,17
 592 -278 592 -278 646.5 -207 c 128,-1,18
 701 -136 701 -136 717 -29 c 2,19,-1
 739 117 l 1,20,21
 611 -25 611 -25 425 -25 c 0,22,23
 138 -25 138 -25 138 306 c 0,24,25
 138 616 138 616 282 786 c 128,-1,26
 426 956 426 956 673 956 c 0,27,28
 779 956 779 956 863 927 c 1,29,-1
 1013 941 l 1,30,31
 1012 932 1012 932 1002.5 912 c 128,-1,32
 993 892 993 892 991 871 c 2,33,-1
 983 804 l 1,34,-1
 857 -16 l 2,35,36
 839 -135 839 -135 792.5 -224 c 128,-1,37
 746 -313 746 -313 678 -366 c 1,38,39
 544 -473 544 -473 356 -473 c 0,40,41
 261 -473 261 -473 202 -448 c 128,-1,42
 143 -423 143 -423 86 -373 c 1,43,-1
 149 -185 l 1,44,45
 171 -193 171 -193 171 -216 c 0,12,13
455 105 m 0,46,47
 666 105 666 105 775 357 c 1,48,-1
 841 795 l 1,49,50
 755 836 755 836 641 836 c 0,51,52
 483 836 483 836 383.5 703.5 c 128,-1,53
 284 571 284 571 284 317 c 0,54,55
 284 206 284 206 324.5 155.5 c 128,-1,56
 365 105 365 105 455 105 c 0,46,47
EndSplineSet
EndChar

StartChar: Gdotaccent
Encoding: 288 288 228
Width: 1126
GlyphClass: 2
Flags: W
LayerCount: 2
Fore
SplineSet
792.5 1426.5 m 128,-1,1
 758 1391 758 1391 708 1391 c 128,-1,2
 658 1391 658 1391 625 1422.5 c 128,-1,3
 592 1454 592 1454 592 1504 c 128,-1,4
 592 1554 592 1554 627.5 1590 c 128,-1,5
 663 1626 663 1626 713 1626 c 128,-1,6
 763 1626 763 1626 795 1594.5 c 128,-1,7
 827 1563 827 1563 827 1512.5 c 128,-1,0
 827 1462 827 1462 792.5 1426.5 c 128,-1,1
897 970 m 1,8,-1
 901 996 l 1,9,10
 901 1065 901 1065 841 1117 c 128,-1,11
 781 1169 781 1169 691 1169 c 128,-1,12
 601 1169 601 1169 524.5 1123.5 c 128,-1,13
 448 1078 448 1078 389 995 c 128,-1,14
 330 912 330 912 295.5 785.5 c 128,-1,15
 261 659 261 659 261 507 c 0,16,17
 261 310 261 310 338.5 207.5 c 128,-1,18
 416 105 416 105 557.5 105 c 128,-1,19
 699 105 699 105 784 151 c 1,20,-1
 831 487 l 1,21,-1
 600 487 l 1,22,-1
 615 610 l 1,23,-1
 990 610 l 1,24,-1
 918 84 l 1,25,26
 756 -21 756 -21 543.5 -21 c 128,-1,27
 331 -21 331 -21 218.5 112 c 128,-1,28
 106 245 106 245 106 486 c 0,29,30
 106 546 106 546 116 631 c 0,31,32
 154 946 154 946 305 1118 c 128,-1,33
 456 1290 456 1290 710 1290 c 0,34,35
 835 1290 835 1290 931 1222.5 c 128,-1,36
 1027 1155 1027 1155 1065 1026 c 1,37,-1
 902 948 l 1,38,39
 897 958 897 958 897 970 c 1,8,-1
EndSplineSet
EndChar

StartChar: gdotaccent
Encoding: 289 289 229
Width: 1126
GlyphClass: 2
Flags: W
LayerCount: 2
Fore
SplineSet
774.5 1175 m 128,-1,1
 739 1141 739 1141 689.5 1141 c 128,-1,2
 640 1141 640 1141 607.5 1172.5 c 128,-1,3
 575 1204 575 1204 575 1254 c 128,-1,4
 575 1304 575 1304 610.5 1340 c 128,-1,5
 646 1376 646 1376 696 1376 c 128,-1,6
 746 1376 746 1376 778 1344.5 c 128,-1,7
 810 1313 810 1313 810 1261 c 128,-1,0
 810 1209 810 1209 774.5 1175 c 128,-1,1
171 -216 m 0,8,9
 171 -259 171 -259 208 -288 c 0,10,11
 272 -337 272 -337 361.5 -337 c 128,-1,12
 451 -337 451 -337 521.5 -307.5 c 128,-1,13
 592 -278 592 -278 646.5 -207 c 128,-1,14
 701 -136 701 -136 717 -29 c 2,15,-1
 739 117 l 1,16,17
 611 -25 611 -25 425 -25 c 0,18,19
 138 -25 138 -25 138 306 c 0,20,21
 138 616 138 616 282 786 c 128,-1,22
 426 956 426 956 673 956 c 0,23,24
 779 956 779 956 863 927 c 1,25,-1
 1013 941 l 1,26,27
 1012 932 1012 932 1002.5 912 c 128,-1,28
 993 892 993 892 991 871 c 2,29,-1
 983 804 l 1,30,-1
 857 -16 l 2,31,32
 839 -135 839 -135 792.5 -224 c 128,-1,33
 746 -313 746 -313 678 -366 c 1,34,35
 544 -473 544 -473 356 -473 c 0,36,37
 261 -473 261 -473 202 -448 c 128,-1,38
 143 -423 143 -423 86 -373 c 1,39,-1
 149 -185 l 1,40,41
 171 -193 171 -193 171 -216 c 0,8,9
455 105 m 0,42,43
 666 105 666 105 775 357 c 1,44,-1
 841 795 l 1,45,46
 755 836 755 836 641 836 c 0,47,48
 483 836 483 836 383.5 703.5 c 128,-1,49
 284 571 284 571 284 317 c 0,50,51
 284 206 284 206 324.5 155.5 c 128,-1,52
 365 105 365 105 455 105 c 0,42,43
EndSplineSet
EndChar

StartChar: uni0122
Encoding: 290 290 230
Width: 1126
GlyphClass: 2
Flags: W
LayerCount: 2
Fore
SplineSet
897 970 m 1,0,-1
 901 996 l 1,1,2
 901 1065 901 1065 841 1117 c 128,-1,3
 781 1169 781 1169 691 1169 c 128,-1,4
 601 1169 601 1169 524.5 1123.5 c 128,-1,5
 448 1078 448 1078 389 995 c 128,-1,6
 330 912 330 912 295.5 785.5 c 128,-1,7
 261 659 261 659 261 507 c 0,8,9
 261 310 261 310 338.5 207.5 c 128,-1,10
 416 105 416 105 557.5 105 c 128,-1,11
 699 105 699 105 784 151 c 1,12,-1
 831 487 l 1,13,-1
 600 487 l 1,14,-1
 615 610 l 1,15,-1
 990 610 l 1,16,-1
 918 84 l 1,17,18
 756 -21 756 -21 543.5 -21 c 128,-1,19
 331 -21 331 -21 218.5 112 c 128,-1,20
 106 245 106 245 106 486 c 0,21,22
 106 546 106 546 116 631 c 0,23,24
 154 946 154 946 305 1118 c 128,-1,25
 456 1290 456 1290 710 1290 c 0,26,27
 835 1290 835 1290 931 1222.5 c 128,-1,28
 1027 1155 1027 1155 1065 1026 c 1,29,-1
 902 948 l 1,30,31
 897 958 897 958 897 970 c 1,0,-1
411 -88 m 1,32,-1
 567 -127 l 1,33,-1
 346 -454 l 1,34,-1
 262 -396 l 1,35,-1
 411 -88 l 1,32,-1
EndSplineSet
EndChar

StartChar: uni0123
Encoding: 291 291 231
Width: 1126
GlyphClass: 2
Flags: W
LayerCount: 2
Fore
SplineSet
575 1063 m 1,0,-1
 796 1390 l 1,1,-1
 880 1332 l 1,2,-1
 731 1024 l 1,3,-1
 575 1063 l 1,0,-1
171 -216 m 0,4,5
 171 -259 171 -259 208 -288 c 0,6,7
 272 -337 272 -337 361.5 -337 c 128,-1,8
 451 -337 451 -337 521.5 -307.5 c 128,-1,9
 592 -278 592 -278 646.5 -207 c 128,-1,10
 701 -136 701 -136 717 -29 c 2,11,-1
 739 117 l 1,12,13
 611 -25 611 -25 425 -25 c 0,14,15
 138 -25 138 -25 138 306 c 0,16,17
 138 616 138 616 282 786 c 128,-1,18
 426 956 426 956 673 956 c 0,19,20
 779 956 779 956 863 927 c 1,21,-1
 1013 941 l 1,22,23
 1012 932 1012 932 1002.5 912 c 128,-1,24
 993 892 993 892 991 871 c 2,25,-1
 983 804 l 1,26,-1
 857 -16 l 2,27,28
 839 -135 839 -135 792.5 -224 c 128,-1,29
 746 -313 746 -313 678 -366 c 1,30,31
 544 -473 544 -473 356 -473 c 0,32,33
 261 -473 261 -473 202 -448 c 128,-1,34
 143 -423 143 -423 86 -373 c 1,35,-1
 149 -185 l 1,36,37
 171 -193 171 -193 171 -216 c 0,4,5
455 105 m 0,38,39
 666 105 666 105 775 357 c 1,40,-1
 841 795 l 1,41,42
 755 836 755 836 641 836 c 0,43,44
 483 836 483 836 383.5 703.5 c 128,-1,45
 284 571 284 571 284 317 c 0,46,47
 284 206 284 206 324.5 155.5 c 128,-1,48
 365 105 365 105 455 105 c 0,38,39
EndSplineSet
EndChar

StartChar: Hcircumflex
Encoding: 292 292 232
Width: 1126
GlyphClass: 2
Flags: W
LayerCount: 2
Fore
SplineSet
438 1363 m 1,0,-1
 380 1435 l 1,1,-1
 631 1601 l 1,2,-1
 743 1601 l 1,3,-1
 960 1435 l 1,4,-1
 882 1363 l 1,5,-1
 672 1492 l 1,6,-1
 438 1363 l 1,0,-1
61 0 m 1,7,-1
 217 1276 l 1,8,-1
 375 1276 l 1,9,10
 374 1266 374 1266 365 1246.5 c 128,-1,11
 356 1227 356 1227 353 1206 c 2,12,-1
 294 731 l 1,13,-1
 855 731 l 1,14,-1
 922 1276 l 1,15,-1
 1080 1276 l 1,16,17
 1079 1266 1079 1266 1070 1246.5 c 128,-1,18
 1061 1227 1061 1227 1058 1206 c 2,19,-1
 910 0 l 1,20,-1
 764 0 l 1,21,-1
 838 608 l 1,22,-1
 279 608 l 1,23,-1
 205 0 l 1,24,-1
 61 0 l 1,7,-1
EndSplineSet
EndChar

StartChar: hcircumflex
Encoding: 293 293 233
Width: 1126
GlyphClass: 2
Flags: W
LayerCount: 2
Fore
SplineSet
342 1420 m 1,0,-1
 284 1492 l 1,1,-1
 535 1658 l 1,2,-1
 647 1658 l 1,3,-1
 864 1492 l 1,4,-1
 786 1420 l 1,5,-1
 576 1549 l 1,6,-1
 342 1420 l 1,0,-1
730 958 m 0,7,8
 841 958 841 958 895.5 906 c 128,-1,9
 950 854 950 854 950 732 c 0,10,11
 950 690 950 690 944 639 c 2,12,-1
 882 153 l 2,13,14
 877 119 877 119 877 82.5 c 128,-1,15
 877 46 877 46 886 0 c 1,16,-1
 748 0 l 1,17,18
 734 51 734 51 734 84.5 c 128,-1,19
 734 118 734 118 739 153 c 2,20,-1
 780 426 l 1,21,-1
 801 613 l 2,22,23
 805 646 805 646 805 679 c 0,24,25
 805 762 805 762 772 793.5 c 128,-1,26
 739 825 739 825 667 825 c 128,-1,27
 595 825 595 825 514 785 c 128,-1,28
 433 745 433 745 371.5 674.5 c 128,-1,29
 310 604 310 604 300 528 c 2,30,-1
 235 0 l 1,31,-1
 95 0 l 1,32,-1
 262 1362 l 1,33,-1
 416 1362 l 1,34,35
 415 1352 415 1352 406 1332.5 c 128,-1,36
 397 1313 397 1313 394 1292 c 2,37,-1
 330 770 l 1,38,39
 509 958 509 958 730 958 c 0,7,8
EndSplineSet
EndChar

StartChar: Hbar
Encoding: 294 294 234
Width: 1126
GlyphClass: 2
Flags: W
LayerCount: 2
Fore
SplineSet
61 0 m 1,0,-1
 180 973 l 1,1,-1
 78 973 l 1,2,-1
 93 1091 l 1,3,-1
 195 1091 l 1,4,-1
 217 1276 l 1,5,-1
 375 1276 l 1,6,7
 374 1266 374 1266 365 1246.5 c 128,-1,8
 356 1227 356 1227 353 1206 c 2,9,-1
 339 1091 l 1,10,-1
 900 1091 l 1,11,-1
 922 1276 l 1,12,-1
 1080 1276 l 1,13,14
 1079 1266 1079 1266 1070 1246.5 c 128,-1,15
 1061 1227 1061 1227 1058 1206 c 2,16,-1
 1044 1091 l 1,17,-1
 1130 1091 l 1,18,-1
 1115 973 l 1,19,-1
 1029 973 l 1,20,-1
 910 0 l 1,21,-1
 764 0 l 1,22,-1
 838 608 l 1,23,-1
 279 608 l 1,24,-1
 205 0 l 1,25,-1
 61 0 l 1,0,-1
294 731 m 1,26,-1
 855 731 l 1,27,-1
 885 973 l 1,28,-1
 324 973 l 1,29,-1
 294 731 l 1,26,-1
EndSplineSet
EndChar

StartChar: hbar
Encoding: 295 295 235
Width: 1126
GlyphClass: 2
Flags: W
LayerCount: 2
Fore
SplineSet
730 918 m 0,0,1
 840 918 840 918 896.5 867.5 c 128,-1,2
 953 817 953 817 953 701 c 0,3,4
 953 656 953 656 944 599 c 2,5,-1
 917 427 l 1,6,-1
 882 153 l 2,7,8
 877 119 877 119 877 82.5 c 128,-1,9
 877 46 877 46 886 0 c 1,10,-1
 748 0 l 1,11,12
 734 51 734 51 734 84.5 c 128,-1,13
 734 118 734 118 739 153 c 2,14,-1
 801 573 l 2,15,16
 807 614 807 614 807 646 c 0,17,18
 807 724 807 724 772.5 754.5 c 128,-1,19
 738 785 738 785 666.5 785 c 128,-1,20
 595 785 595 785 514 745 c 128,-1,21
 433 705 433 705 371.5 634.5 c 128,-1,22
 310 564 310 564 300 488 c 2,23,-1
 235 0 l 1,24,-1
 95 0 l 1,25,-1
 222 1032 l 1,26,-1
 80 1032 l 1,27,-1
 94 1147 l 1,28,-1
 236 1147 l 1,29,-1
 262 1362 l 1,30,-1
 416 1362 l 1,31,32
 415 1353 415 1353 405.5 1333 c 128,-1,33
 396 1313 396 1313 394 1292 c 2,34,-1
 377 1147 l 1,35,-1
 780 1147 l 1,36,-1
 766 1032 l 1,37,-1
 364 1032 l 1,38,-1
 330 730 l 1,39,40
 509 918 509 918 730 918 c 0,0,1
EndSplineSet
EndChar

StartChar: Itilde
Encoding: 296 296 236
Width: 1126
GlyphClass: 2
Flags: W
LayerCount: 2
Fore
SplineSet
455.5 1569.5 m 128,-1,1
 508 1603 508 1603 558.5 1603 c 128,-1,2
 609 1603 609 1603 649 1586 c 128,-1,3
 689 1569 689 1569 714 1548 c 0,4,5
 779 1494 779 1494 829 1494 c 0,6,7
 860 1494 860 1494 881.5 1509 c 128,-1,8
 903 1524 903 1524 946 1575 c 1,9,-1
 1002 1508 l 1,10,11
 947 1424 947 1424 910 1398 c 128,-1,12
 873 1372 873 1372 825.5 1372 c 128,-1,13
 778 1372 778 1372 740.5 1389 c 128,-1,14
 703 1406 703 1406 679 1427 c 128,-1,15
 655 1448 655 1448 622.5 1465 c 128,-1,16
 590 1482 590 1482 556 1482 c 128,-1,17
 522 1482 522 1482 492 1463.5 c 128,-1,18
 462 1445 462 1445 414 1389 c 1,19,-1
 343 1448 l 1,20,0
 403 1536 403 1536 455.5 1569.5 c 128,-1,1
135 0 m 1,21,-1
 150 125 l 1,22,-1
 422 125 l 1,23,-1
 548 1153 l 1,24,-1
 290 1153 l 1,25,-1
 305 1276 l 1,26,-1
 979 1276 l 1,27,-1
 964 1153 l 1,28,-1
 692 1153 l 1,29,-1
 566 123 l 1,30,-1
 850 123 l 1,31,-1
 835 0 l 1,32,-1
 135 0 l 1,21,-1
EndSplineSet
EndChar

StartChar: itilde
Encoding: 297 297 237
Width: 1126
GlyphClass: 2
Flags: W
LayerCount: 2
Fore
SplineSet
519 1374 m 0,0,1
 561 1374 561 1374 602 1354 c 128,-1,2
 643 1334 643 1334 670 1310 c 1,3,4
 739 1245 739 1245 778 1245 c 128,-1,5
 817 1245 817 1245 840.5 1261.5 c 128,-1,6
 864 1278 864 1278 904 1328 c 1,7,-1
 974 1243 l 1,8,9
 903 1163 903 1163 864 1137.5 c 128,-1,10
 825 1112 825 1112 781.5 1112 c 128,-1,11
 738 1112 738 1112 698.5 1133.5 c 128,-1,12
 659 1155 659 1155 628 1182 c 0,13,14
 549 1251 549 1251 506 1251 c 128,-1,15
 463 1251 463 1251 428 1228.5 c 128,-1,16
 393 1206 393 1206 347 1153 c 1,17,-1
 282 1218 l 1,18,19
 401 1374 401 1374 519 1374 c 0,0,1
117 0 m 1,20,-1
 131 120 l 1,21,-1
 449 120 l 1,22,-1
 535 816 l 1,23,-1
 221 816 l 1,24,-1
 235 936 l 1,25,-1
 692 936 l 1,26,-1
 592 120 l 1,27,-1
 911 120 l 1,28,-1
 897 0 l 1,29,-1
 117 0 l 1,20,-1
EndSplineSet
EndChar

StartChar: Imacron
Encoding: 298 298 238
Width: 1126
GlyphClass: 2
Flags: W
LayerCount: 2
Fore
SplineSet
377 1415 m 1,0,-1
 391 1530 l 1,1,-1
 891 1530 l 1,2,-1
 877 1415 l 1,3,-1
 377 1415 l 1,0,-1
135 0 m 1,4,-1
 150 125 l 1,5,-1
 422 125 l 1,6,-1
 548 1153 l 1,7,-1
 290 1153 l 1,8,-1
 305 1276 l 1,9,-1
 979 1276 l 1,10,-1
 964 1153 l 1,11,-1
 692 1153 l 1,12,-1
 566 123 l 1,13,-1
 850 123 l 1,14,-1
 835 0 l 1,15,-1
 135 0 l 1,4,-1
EndSplineSet
EndChar

StartChar: imacron
Encoding: 299 299 239
Width: 1126
GlyphClass: 2
Flags: W
LayerCount: 2
Fore
SplineSet
302 1157 m 1,0,-1
 316 1272 l 1,1,-1
 836 1272 l 1,2,-1
 822 1157 l 1,3,-1
 302 1157 l 1,0,-1
117 0 m 1,4,-1
 131 120 l 1,5,-1
 449 120 l 1,6,-1
 535 816 l 1,7,-1
 221 816 l 1,8,-1
 235 936 l 1,9,-1
 692 936 l 1,10,-1
 592 120 l 1,11,-1
 911 120 l 1,12,-1
 897 0 l 1,13,-1
 117 0 l 1,4,-1
EndSplineSet
EndChar

StartChar: Ibreve
Encoding: 300 300 240
Width: 1126
GlyphClass: 2
Flags: W
LayerCount: 2
Fore
SplineSet
791.5 1388.5 m 128,-1,1
 725 1360 725 1360 636.5 1360 c 128,-1,2
 548 1360 548 1360 482 1388.5 c 128,-1,3
 416 1417 416 1417 357 1484 c 1,4,-1
 454 1577 l 1,5,6
 502 1520 502 1520 541.5 1500.5 c 128,-1,7
 581 1481 581 1481 645.5 1481 c 128,-1,8
 710 1481 710 1481 755 1502 c 128,-1,9
 800 1523 800 1523 852 1577 c 1,10,-1
 927 1484 l 1,11,0
 858 1417 858 1417 791.5 1388.5 c 128,-1,1
135 0 m 1,12,-1
 150 125 l 1,13,-1
 422 125 l 1,14,-1
 548 1153 l 1,15,-1
 290 1153 l 1,16,-1
 305 1276 l 1,17,-1
 979 1276 l 1,18,-1
 964 1153 l 1,19,-1
 692 1153 l 1,20,-1
 566 123 l 1,21,-1
 850 123 l 1,22,-1
 835 0 l 1,23,-1
 135 0 l 1,12,-1
EndSplineSet
EndChar

StartChar: ibreve
Encoding: 301 301 241
Width: 1126
GlyphClass: 2
Flags: W
LayerCount: 2
Fore
SplineSet
637 1072 m 128,-1,1
 555 1072 555 1072 490.5 1101 c 128,-1,2
 426 1130 426 1130 367 1196 c 1,3,-1
 464 1289 l 1,4,5
 512 1233 512 1233 550 1213 c 128,-1,6
 588 1193 588 1193 651.5 1193 c 128,-1,7
 715 1193 715 1193 757.5 1213 c 128,-1,8
 800 1233 800 1233 862 1289 c 1,9,-1
 937 1196 l 1,10,11
 862 1130 862 1130 790.5 1101 c 128,-1,0
 719 1072 719 1072 637 1072 c 128,-1,1
117 0 m 1,12,-1
 131 120 l 1,13,-1
 449 120 l 1,14,-1
 535 816 l 1,15,-1
 221 816 l 1,16,-1
 235 936 l 1,17,-1
 692 936 l 1,18,-1
 592 120 l 1,19,-1
 911 120 l 1,20,-1
 897 0 l 1,21,-1
 117 0 l 1,12,-1
EndSplineSet
EndChar

StartChar: Iogonek
Encoding: 302 302 242
Width: 1126
GlyphClass: 2
Flags: W
LayerCount: 2
Fore
SplineSet
642 -222 m 0,0,1
 642 -263 642 -263 690 -263 c 0,2,3
 750 -263 750 -263 814 -217 c 1,4,-1
 801 -322 l 1,5,6
 729 -366 729 -366 657 -366 c 128,-1,7
 585 -366 585 -366 543.5 -333.5 c 128,-1,8
 502 -301 502 -301 502 -251 c 0,9,10
 502 -180 502 -180 547.5 -127 c 128,-1,11
 593 -74 593 -74 711 0 c 1,12,-1
 135 0 l 1,13,-1
 150 125 l 1,14,-1
 422 125 l 1,15,-1
 548 1153 l 1,16,-1
 290 1153 l 1,17,-1
 305 1276 l 1,18,-1
 979 1276 l 1,19,-1
 964 1153 l 1,20,-1
 692 1153 l 1,21,-1
 566 123 l 1,22,-1
 850 123 l 1,23,-1
 835 0 l 1,24,-1
 836 0 l 1,25,26
 718 -88 718 -88 680 -133.5 c 128,-1,27
 642 -179 642 -179 642 -222 c 0,0,1
EndSplineSet
EndChar

StartChar: iogonek
Encoding: 303 303 243
Width: 1126
GlyphClass: 2
Flags: W
LayerCount: 2
Fore
SplineSet
609 1117 m 128,-1,1
 560 1117 560 1117 524 1152.5 c 128,-1,2
 488 1188 488 1188 488 1237.5 c 128,-1,3
 488 1287 488 1287 522.5 1323 c 128,-1,4
 557 1359 557 1359 607.5 1359 c 128,-1,5
 658 1359 658 1359 694.5 1322.5 c 128,-1,6
 731 1286 731 1286 731 1237 c 128,-1,7
 731 1188 731 1188 694.5 1152.5 c 128,-1,0
 658 1117 658 1117 609 1117 c 128,-1,1
703 -220 m 0,8,9
 703 -261 703 -261 751 -261 c 0,10,11
 811 -261 811 -261 875 -215 c 1,12,-1
 862 -320 l 1,13,14
 790 -364 790 -364 718 -364 c 128,-1,15
 646 -364 646 -364 604.5 -331.5 c 128,-1,16
 563 -299 563 -299 563 -249 c 0,17,18
 563 -178 563 -178 608 -125.5 c 128,-1,19
 653 -73 653 -73 769 0 c 1,20,-1
 117 0 l 1,21,-1
 131 120 l 1,22,-1
 449 120 l 1,23,-1
 535 816 l 1,24,-1
 221 816 l 1,25,-1
 235 936 l 1,26,-1
 692 936 l 1,27,-1
 592 120 l 1,28,-1
 910 120 l 1,29,-1
 896 1 l 1,30,-1
 894 0 l 1,31,32
 778 -88 778 -88 740.5 -132.5 c 128,-1,33
 703 -177 703 -177 703 -220 c 0,8,9
EndSplineSet
EndChar

